<svg width="945" height="41" viewBox="0 0 945 41" fill="none" xmlns="http://www.w3.org/2000/svg">
<path d="M20.5 0C16.4455 0 12.482 1.2023 9.11082 3.45487C5.73961 5.70744 3.11207 8.9091 1.56048 12.655C0.00888236 16.4009 -0.397086 20.5227 0.393911 24.4993C1.18491 28.476 3.13734 32.1287 6.00432 34.9957C8.87129 37.8627 12.524 39.8151 16.5007 40.6061C20.4773 41.3971 24.5991 40.9911 28.345 39.4395C32.0909 37.8879 35.2926 35.2604 37.5451 31.8892C39.7977 28.518 41 24.5545 41 20.5C40.9896 15.0663 38.8264 9.85806 34.9842 6.01582C31.1419 2.17358 25.9337 0.0104195 20.5 0ZM22.8654 29.9615C22.8654 30.3798 22.6993 30.7809 22.4035 31.0766C22.1078 31.3723 21.7067 31.5385 21.2885 31.5385C20.8702 31.5385 20.4691 31.3723 20.1734 31.0766C19.8777 30.7809 19.7115 30.3798 19.7115 29.9615V14.7639L17.425 16.3014C17.0747 16.5315 16.6474 16.6129 16.2371 16.5279C15.8268 16.4429 15.467 16.1983 15.237 15.8481C15.007 15.4978 14.9255 15.0705 15.0106 14.6602C15.0956 14.2499 15.3401 13.8901 15.6904 13.6601L20.4212 10.5062C20.6606 10.3541 20.9355 10.2668 21.2189 10.253C21.5023 10.2392 21.7844 10.2993 22.0375 10.4274C22.2896 10.5635 22.4999 10.7657 22.6457 11.0122C22.7916 11.2588 22.8675 11.5404 22.8654 11.8269V29.9615Z" fill="#00A5A5" fill-opacity="0.07"/>
<path d="M22.8654 29.9615C22.8654 30.3798 22.6993 30.7809 22.4035 31.0766C22.1078 31.3723 21.7067 31.5385 21.2885 31.5385C20.8702 31.5385 20.4691 31.3723 20.1734 31.0766C19.8777 30.7809 19.7115 30.3798 19.7115 29.9615V14.7639L17.425 16.3014C17.0747 16.5315 16.6474 16.6129 16.2371 16.5279C15.8268 16.4429 15.467 16.1983 15.237 15.8481C15.007 15.4978 14.9255 15.0705 15.0106 14.6602C15.0956 14.2499 15.3401 13.8901 15.6904 13.6601L20.4212 10.5062C20.6606 10.3541 20.9355 10.2668 21.2189 10.253C21.5023 10.2392 21.7844 10.2993 22.0375 10.4274C22.2896 10.5635 22.4999 10.7657 22.6457 11.0122C22.7916 11.2588 22.8675 11.5404 22.8654 11.8269V29.9615Z" fill="white"/>
<path d="M20.625 6C17.7324 6 14.9049 6.85774 12.4998 8.46476C10.0947 10.0718 8.22019 12.3559 7.11326 15.0283C6.00633 17.7006 5.71671 20.6412 6.28101 23.4782C6.84532 26.3152 8.23822 28.9211 10.2836 30.9664C12.3289 33.0118 14.9348 34.4047 17.7718 34.969C20.6088 35.5333 23.5494 35.2437 26.2217 34.1367C28.8941 33.0298 31.1782 31.1553 32.7852 28.7502C34.3923 26.3451 35.25 23.5176 35.25 20.625C35.2426 16.7485 33.6993 13.0329 30.9582 10.2918C28.2171 7.55066 24.5015 6.00743 20.625 6ZM22.3125 27.375C22.3125 27.6734 22.194 27.9595 21.983 28.1705C21.772 28.3815 21.4859 28.5 21.1875 28.5C20.8891 28.5 20.603 28.3815 20.392 28.1705C20.181 27.9595 20.0625 27.6734 20.0625 27.375V16.5328L18.4313 17.6297C18.1814 17.7938 17.8765 17.8519 17.5838 17.7913C17.2911 17.7306 17.0344 17.5561 16.8703 17.3063C16.7062 17.0564 16.6481 16.7515 16.7088 16.4588C16.7694 16.1661 16.9439 15.9094 17.1937 15.7453L20.5688 13.4953C20.7396 13.3868 20.9357 13.3245 21.1379 13.3146C21.34 13.3048 21.5413 13.3477 21.7219 13.4391C21.9017 13.5361 22.0517 13.6804 22.1558 13.8563C22.2599 14.0322 22.314 14.2331 22.3125 14.4375V27.375Z" fill="#00A5A5"/>
<path d="M22.3125 27.375C22.3125 27.6734 22.194 27.9595 21.983 28.1705C21.772 28.3815 21.4859 28.5 21.1875 28.5C20.8891 28.5 20.603 28.3815 20.392 28.1705C20.181 27.9595 20.0625 27.6734 20.0625 27.375V16.5328L18.4313 17.6297C18.1814 17.7938 17.8765 17.8519 17.5838 17.7913C17.2911 17.7306 17.0344 17.5561 16.8703 17.3063C16.7062 17.0564 16.6481 16.7515 16.7088 16.4588C16.7694 16.1661 16.9439 15.9094 17.1937 15.7453L20.5688 13.4953C20.7396 13.3868 20.9357 13.3245 21.1379 13.3146C21.34 13.3048 21.5413 13.3477 21.7219 13.4391C21.9017 13.5361 22.0517 13.6804 22.1558 13.8563C22.2599 14.0322 22.314 14.2331 22.3125 14.4375V27.375Z" fill="white"/>
<line x1="66" y1="20.5" x2="429" y2="20.5" stroke="#00A5A5"/>
<path d="M474 34.5C481.456 34.5 487.5 28.4558 487.5 21C487.5 13.5442 481.456 7.5 474 7.5C466.544 7.5 460.5 13.5442 460.5 21C460.5 28.4558 466.544 34.5 474 34.5Z" stroke="#B9B9B9" stroke-width="1.5" stroke-linecap="round" stroke-linejoin="round"/>
<path d="M470.892 16.3172C471.196 15.601 471.737 15.0115 472.425 14.6484C473.113 14.2854 473.905 14.1711 474.667 14.325C475.43 14.4788 476.116 14.8912 476.609 15.4926C477.103 16.0939 477.373 16.8472 477.375 17.625C477.378 18.2971 477.177 18.9541 476.798 19.5094V19.5094L470.625 27.75H477.375" stroke="#B9B9B9" stroke-width="1.5" stroke-linecap="round" stroke-linejoin="round"/>
<line x1="519" y1="20.5" x2="882" y2="20.5" stroke="#B9B9B9" stroke-dasharray="19 19"/>
<path d="M927 34.5C934.456 34.5 940.5 28.4558 940.5 21C940.5 13.5442 934.456 7.5 927 7.5C919.544 7.5 913.5 13.5442 913.5 21C913.5 28.4558 919.544 34.5 927 34.5Z" stroke="#B9B9B9" stroke-width="1.5" stroke-linecap="round" stroke-linejoin="round"/>
<path d="M923.625 14.8125H930.375L926.438 20.4375C927.085 20.4375 927.723 20.5973 928.294 20.9025C928.865 21.2078 929.352 21.6492 929.711 22.1876C930.071 22.726 930.292 23.3448 930.356 23.9892C930.419 24.6335 930.323 25.2836 930.075 25.8819C929.827 26.4801 929.436 27.0079 928.935 27.4187C928.435 27.8295 927.841 28.1105 927.205 28.2368C926.57 28.3632 925.914 28.3309 925.294 28.143C924.675 27.9551 924.111 27.6172 923.653 27.1594" stroke="#B9B9B9" stroke-width="1.5" stroke-linecap="round" stroke-linejoin="round"/>
</svg>
