<svg width="490" height="36" viewBox="0 0 490 36" fill="none" xmlns="http://www.w3.org/2000/svg">
<path d="M18.5 31.5C26.1377 31.5 32.3293 25.4558 32.3293 18C32.3293 10.5442 26.1377 4.5 18.5 4.5C10.8623 4.5 4.67073 10.5442 4.67073 18C4.67073 25.4558 10.8623 31.5 18.5 31.5Z" stroke="#B9B9B9" stroke-width="1.5" stroke-linecap="round" stroke-linejoin="round"/>
<path d="M17.9238 10.6875L14.4665 20.25H21.3811" stroke="#B9B9B9" stroke-width="1.5" stroke-linecap="round" stroke-linejoin="round"/>
<path d="M21.3811 15.75V24.75" stroke="#B9B9B9" stroke-width="1.5" stroke-linecap="round" stroke-linejoin="round"/>
<line x1="63.939" y1="17.5" x2="426.939" y2="17.5" stroke="#B9B9B9" stroke-dasharray="19 19"/>
<path d="M471.939 31.5C479.395 31.5 485.439 25.4558 485.439 18C485.439 10.5442 479.395 4.5 471.939 4.5C464.483 4.5 458.439 10.5442 458.439 18C458.439 25.4558 464.483 31.5 471.939 31.5Z" stroke="#B9B9B9" stroke-width="1.5" stroke-linecap="round" stroke-linejoin="round"/>
<path d="M475.314 11.8125H469.661L468.564 18.5906C469.115 18.04 469.816 17.665 470.58 17.5131C471.344 17.3612 472.136 17.4392 472.855 17.7373C473.574 18.0353 474.189 18.54 474.622 19.1875C475.055 19.835 475.286 20.5963 475.286 21.375C475.286 22.1537 475.055 22.915 474.622 23.5625C474.189 24.21 473.574 24.7147 472.855 25.0127C472.136 25.3108 471.344 25.3888 470.58 25.2369C469.816 25.085 469.115 24.71 468.564 24.1594" stroke="#B9B9B9" stroke-width="1.5" stroke-linecap="round" stroke-linejoin="round"/>
</svg>
