<svg width="32" height="33" viewBox="0 0 32 33" fill="none" xmlns="http://www.w3.org/2000/svg">
<path d="M16 17.8334C16.8284 17.8334 17.5 17.1618 17.5 16.3334C17.5 15.5049 16.8284 14.8334 16 14.8334C15.1716 14.8334 14.5 15.5049 14.5 16.3334C14.5 17.1618 15.1716 17.8334 16 17.8334Z" fill="#00A5A5"/>
<path d="M23.075 16.3333L26.5375 12.8708C27.4757 11.9326 28.0028 10.6602 28.0028 9.33335C28.0028 8.00653 27.4757 6.73405 26.5375 5.79585C26.073 5.3313 25.5215 4.96279 24.9145 4.71138C24.3075 4.45997 23.657 4.33057 23 4.33057C21.6732 4.33057 20.4007 4.85764 19.4625 5.79585L16 9.25835L12.5375 5.79585C11.5993 4.85764 10.3268 4.33057 9 4.33057C7.67318 4.33057 6.40071 4.85764 5.4625 5.79585C4.5243 6.73405 3.99722 8.00653 3.99722 9.33335C3.99722 10.6602 4.5243 11.9326 5.4625 12.8708L8.925 16.3333L5.4625 19.7958C4.5243 20.7341 3.99722 22.0065 3.99722 23.3333C3.99722 23.9903 4.12662 24.6409 4.37804 25.2478C4.62945 25.8548 4.99795 26.4063 5.4625 26.8708C5.92705 27.3354 6.47856 27.7039 7.08552 27.9553C7.69249 28.2067 8.34303 28.3361 9 28.3361C10.3268 28.3361 11.5993 27.8091 12.5375 26.8708L16 23.4083L19.4625 26.8708C20.4007 27.8091 21.6732 28.3361 23 28.3361C24.3268 28.3361 25.5993 27.8091 26.5375 26.8708C27.4757 25.9326 28.0028 24.6602 28.0028 23.3333C28.0028 22.0065 27.4757 20.7341 26.5375 19.7958L23.075 16.3333ZM16 12.0958L20.2375 16.3333L16 20.5708L11.7625 16.3333L16 12.0958ZM20.875 7.20835C21.4386 6.64476 22.203 6.32814 23 6.32814C23.797 6.32814 24.5614 6.64476 25.125 7.20835C25.6886 7.77193 26.0052 8.53632 26.0052 9.33335C26.0052 10.1304 25.6886 10.8948 25.125 11.4583L21.6625 14.9208L17.4125 10.6708L20.875 7.20835ZM11.125 25.4583C10.5614 26.0219 9.79703 26.3386 9 26.3386C8.20297 26.3386 7.43859 26.0219 6.875 25.4583C6.31142 24.8948 5.9948 24.1304 5.9948 23.3333C5.9948 22.5363 6.31142 21.7719 6.875 21.2083L10.3375 17.7458L14.5875 21.9958L11.125 25.4583Z" fill="#00A5A5"/>
</svg>
