<svg width="54" height="104" viewBox="0 0 54 104" fill="none" xmlns="http://www.w3.org/2000/svg">
<path d="M47.4224 97.732L53.5429 103.843L53.5429 91.6208L47.4224 97.732Z" fill="#FFC263"/>
<path d="M47.4222 79.4078L53.5428 85.519L53.5428 73.2967L47.4222 79.4078Z" fill="#FFC263"/>
<path d="M47.4222 61.0836L53.5428 67.1948L53.5428 54.9724L47.4222 61.0836Z" fill="#FFC263"/>
<path d="M47.4222 42.7593L53.5428 48.8705L53.5428 36.6482L47.4222 42.7593Z" fill="#FFC263"/>
<path d="M47.4222 24.4353L53.5428 30.5465L53.5428 18.3241L47.4222 24.4353Z" fill="#FFC263"/>
<path d="M47.4222 6.11093L53.5428 12.2221L53.5428 -0.000214577L47.4222 6.11093Z" fill="#FFC263"/>
<path d="M28.7151 79.4078L34.8263 85.519L34.8263 73.2967L28.7151 79.4078Z" fill="#FFC263"/>
<path d="M28.7151 61.0837L34.8263 67.1949L34.8263 54.9725L28.7151 61.0837Z" fill="#FFC263"/>
<path d="M28.715 42.7595L34.8261 48.8707L34.8261 36.6484L28.715 42.7595Z" fill="#FFC263"/>
<path d="M28.7151 24.4351L34.8263 30.5463L34.8263 18.3239L28.7151 24.4351Z" fill="#FFC263"/>
<path d="M9.99841 61.0836L16.1096 67.1948L16.1096 54.9725L9.99841 61.0836Z" fill="#FFC263"/>
<path d="M9.99841 42.7594L16.1096 48.8706L16.1096 36.6483L9.99841 42.7594Z" fill="#FFC263"/>
<path d="M37.536 88.5653L43.6472 94.6764L43.6472 82.454L37.536 88.5653Z" fill="#FFC263"/>
<path d="M37.5361 70.241L43.6473 76.3615L43.6473 64.1298L37.5361 70.241Z" fill="#FFC263"/>
<path d="M37.5361 51.9171L43.6473 58.0376L43.6473 45.8059L37.5361 51.9171Z" fill="#FFC263"/>
<path d="M37.5361 33.6021L43.6473 39.7133L43.6473 27.4816L37.5361 33.6021Z" fill="#FFC263"/>
<path d="M37.536 15.2781L43.6472 21.3893L43.6472 9.15759L37.536 15.2781Z" fill="#FFC263"/>
<path d="M19.3615 70.241L25.4726 76.3616L25.4726 64.1299L19.3615 70.241Z" fill="#FFC263"/>
<path d="M19.3615 51.9167L25.4726 58.0372L25.4726 45.8056L19.3615 51.9167Z" fill="#FFC263"/>
<path d="M19.3615 33.602L25.4726 39.7132L25.4726 27.4815L19.3615 33.602Z" fill="#FFC263"/>
<path d="M0 51.9168L6.11118 58.0373L6.11118 45.8057L0 51.9168Z" fill="#FFC263"/>
</svg>
