<svg width="76" height="123" viewBox="0 0 76 123" fill="none" xmlns="http://www.w3.org/2000/svg">
<path d="M-45.7796 49.2749L2.28876 1.20655C0.957382 1.47006 -0.346294 1.78903 -1.64994 2.13575L-44.8504 45.3362C-45.1971 46.6399 -45.5161 47.9435 -45.7796 49.2749Z" fill="#A1D2CB"/>
<path d="M-47 61.4931C-47 61.6179 -47 61.7566 -47 61.8814L14.8953 0C14.7704 0 14.6318 0 14.5069 0C13.6055 0 12.7179 0.027737 11.8442 0.0554741L-46.9307 58.8303C-46.9723 59.7179 -47 60.6055 -47 61.4931Z" fill="#A1D2CB"/>
<path d="M-46.043 72.3383L25.3383 0.956963C24.4785 0.804409 23.6047 0.665723 22.7449 0.554775L-46.4452 69.7449C-46.3343 70.6047 -46.1956 71.4784 -46.043 72.3383Z" fill="#A1D2CB"/>
<path d="M-43.7132 81.3944L34.3944 3.28681C33.6455 3.02331 32.8827 2.78754 32.1199 2.56564L-44.4344 79.1199C-44.1986 79.8827 -43.9628 80.6455 -43.7132 81.3944Z" fill="#A1D2CB"/>
<path d="M-40.3154 89.3965L42.4104 6.67073C41.7447 6.33788 41.0651 6.00504 40.3856 5.68606L-41.3 87.3717C-40.9811 88.0513 -40.6621 88.7308 -40.3154 89.3965Z" fill="#A1D2CB"/>
<path d="M-36.0438 96.525L49.5388 10.9423C48.9425 10.5262 48.3462 10.1241 47.736 9.73574L-37.2504 94.7221C-36.8621 95.3323 -36.4599 95.9287 -36.0438 96.525Z" fill="#A1D2CB"/>
<path d="M-30.9957 102.877L55.8768 16.0043C55.3498 15.5328 54.8228 15.0613 54.2819 14.6036L-32.3964 101.282C-31.9387 101.809 -31.4672 102.35 -30.9957 102.877Z" fill="#A1D2CB"/>
<path d="M-25.1847 108.466L61.4797 21.8014C61.0221 21.2605 60.5505 20.7197 60.079 20.1927L-26.7935 107.065C-26.2665 107.537 -25.7395 108.008 -25.1847 108.466Z" fill="#A1D2CB"/>
<path d="M-18.6388 113.306L66.3198 28.3473C65.9315 27.7371 65.5293 27.1407 65.1132 26.5444L-20.4417 112.113C-19.8454 112.515 -19.2491 112.918 -18.6388 113.306Z" fill="#A1D2CB"/>
<path d="M-11.2747 117.342L70.3417 35.7254C70.0227 35.0458 69.7037 34.3663 69.357 33.7006L-13.3133 116.371C-12.6337 116.704 -11.9542 117.023 -11.2747 117.342Z" fill="#A1D2CB"/>
<path d="M-2.99524 120.462L73.4759 43.9909C73.254 43.2281 73.0043 42.4654 72.7547 41.7165L-5.26965 119.741C-4.52075 120.004 -3.75801 120.24 -2.99524 120.462Z" fill="#A1D2CB"/>
<path d="M6.40769 122.459L75.473 53.3938C75.3621 52.5201 75.2234 51.6464 75.0708 50.7866L3.80045 122.057C4.66029 122.209 5.53398 122.348 6.40769 122.459Z" fill="#A1D2CB"/>
<path d="M14.5068 123C15.4638 123 16.4068 122.972 17.336 122.931L75.9305 64.3362C75.9721 63.3931 75.9999 62.4501 75.9999 61.507C75.9999 61.4238 75.9999 61.3545 75.9999 61.2712L14.2711 123C14.3404 122.986 14.4236 123 14.5068 123Z" fill="#A1D2CB"/>
<path d="M30.8719 120.781L73.795 77.858C74.1556 76.5543 74.4746 75.2368 74.7519 73.9055L26.9193 121.738C28.2507 121.461 29.5682 121.142 30.8719 120.781Z" fill="#A1D2CB"/>
<path d="M67.7066 92.3366L45.3366 114.707C54.6008 109.326 62.3256 101.601 67.7066 92.3366Z" fill="#A1D2CB"/>
</svg>
