<svg width="77" height="154" viewBox="0 0 77 154" fill="none" xmlns="http://www.w3.org/2000/svg">
<path d="M71.2191 103.722C68.1402 105.787 64.9832 106.19 61.9043 103.813C58.8513 101.461 58.5655 98.2392 59.7477 94.2898C55.7463 95.1602 52.1477 95.1343 49.7833 91.5746C47.7567 88.5216 48.2503 85.5336 50.251 82.6495C50.4978 82.4027 50.7447 82.1688 50.9915 81.922C52.4206 80.8957 54.0835 79.8954 55.7464 80.2331C58.7863 80.8437 58.2277 79.4407 58.3966 77.2971C58.6174 74.335 58.3056 73.1268 54.9928 73.6075C53.7846 73.7764 52.3946 72.7111 51.0954 72.2044C50.7446 71.8537 50.3939 71.5029 50.0431 71.1651C48.2893 68.2161 47.7436 65.2151 49.8742 62.2401C52.2387 58.9402 55.5775 58.6544 59.6827 59.7457C58.6434 55.7054 58.7993 52.1587 62.346 49.8073C65.386 47.8066 68.374 48.3003 71.2321 50.288C71.4789 50.5348 71.7128 50.7816 71.9596 51.0285C72.5442 52.4705 73.8044 54.0165 73.5835 55.3156C72.9989 58.8233 74.6618 58.1867 77.0912 58.3816C80.0143 58.6155 80.2611 57.823 80.1832 55.3286C80.1312 53.9126 81.2485 52.4705 81.8331 51.0285C82.0929 50.7687 82.3527 50.4958 82.6126 50.236C85.6785 48.0794 88.8354 47.7157 91.9144 50.0541C94.9804 52.3926 95.3441 55.5885 94.1619 59.5119C98.0593 58.8363 101.697 58.6674 104.087 62.266C106.114 65.319 105.646 68.307 103.724 71.2171C103.425 71.5159 103.126 71.8017 102.84 72.1005C101.385 72.6721 99.8651 73.8414 98.488 73.6855C95.513 73.3477 95.552 74.4 95.5909 76.9203C95.6299 79.3627 95.487 80.532 98.501 80.1942C99.8781 80.0383 101.398 81.2205 102.84 81.7921C103.139 82.0909 103.438 82.3897 103.75 82.6885C105.802 85.7545 106.205 88.9114 103.853 91.9644C101.515 94.9914 98.3711 95.472 94.4087 94.1729C95.2142 98.2522 95.0843 101.968 91.3168 104.306C88.4197 106.099 85.5616 105.605 82.8074 103.851C82.4307 103.475 82.0669 103.098 81.6902 102.734C80.2351 100.578 79.8584 98.1742 80.2611 95.6669C76.1169 95.1992 72.6741 95.3162 73.1028 100.812C73.1548 101.474 72.4273 102.189 72.0505 102.877C71.7647 103.176 71.4919 103.449 71.2191 103.722ZM91.07 91.0809C88.6925 89.6389 93.6812 85.1049 88.3807 85.0789C85.6785 85.0659 85.0419 85.9883 85.0679 88.4957C85.1069 93.7572 89.576 88.7815 91.07 91.0809ZM62.9436 91.1459C64.4116 89.1582 69.6991 93.8741 68.7767 87.4044C68.0362 82.2598 64.7754 86.3131 62.9696 84.988C63.7101 87.1316 62.9306 88.9244 62.9436 91.1459ZM91.2518 62.9416C84.977 63.5912 85.1329 63.6171 84.951 65.0722C84.3404 70.1258 88.1599 68.411 91.1219 69.2034C90.2385 66.852 90.927 64.9293 91.2518 62.9416ZM62.8916 62.6688C63.2424 64.9553 63.4632 66.9169 63.1125 69.1255C64.8403 67.5795 68.309 71.399 68.8936 66.3064C69.6082 60.0055 64.2947 65.0072 62.8916 62.6688ZM74.5319 76.5826C74.6358 77.9207 73.6225 79.8434 76.3637 79.2978C77.7538 79.0249 79.5466 80.0123 79.3127 77.1282C79.1568 75.1665 79.0529 74.4 76.8054 74.5429C75.1165 74.6468 73.9083 74.478 74.5319 76.5826Z" fill="#FFC263" fill-opacity="0.36"/>
<path d="M71.9853 51.0284C71.7385 50.7816 71.5046 50.5348 71.2578 50.2879C71.2188 49.9761 71.2578 49.6254 71.1409 49.3526C69.5429 45.8319 69.491 42.5061 72.7648 39.9338C75.428 37.8422 78.429 37.8292 81.1053 39.9078C84.3921 42.4541 84.3531 45.7929 82.7941 49.3136C82.6772 49.5864 82.7032 49.9372 82.6642 50.249C82.4044 50.5088 82.1446 50.7816 81.8847 51.0414C78.5719 52.3795 75.2721 52.3536 71.9853 51.0284Z" fill="#FFC263" fill-opacity="0.36"/>
<path d="M81.6771 102.747C82.0538 103.124 82.4176 103.501 82.7943 103.864C83.0022 104.618 83.21 105.384 83.4049 106.138C84.2623 109.36 83.7427 112.231 80.8846 114.219C78.2604 116.037 75.4282 115.998 72.8429 114.115C70.0368 112.062 69.5821 109.178 70.5305 105.982C70.7513 105.228 70.9982 104.475 71.219 103.721C71.4918 103.449 71.7646 103.163 72.0374 102.89C75.2333 101.539 78.4552 101.578 81.6771 102.747Z" fill="#FFC263" fill-opacity="0.36"/>
<path d="M51.0043 81.922C50.7575 82.1688 50.5106 82.4027 50.2638 82.6495C46.4054 83.8837 42.5339 84.9879 39.6628 80.8307C37.9869 78.4143 37.948 75.7771 39.5459 73.2827C42.2871 69.0345 46.1715 69.9699 50.0689 71.1391C50.4197 71.4899 50.7705 71.8407 51.1212 72.1784C52.3814 75.4523 52.2645 78.7001 51.0043 81.922Z" fill="#FFC263" fill-opacity="0.36"/>
<path d="M45.34 104.618C41.8064 104.657 38.6235 101.422 38.7404 97.9013C38.8444 94.5365 41.8584 91.5745 45.2231 91.5355C48.7568 91.4965 51.9397 94.7314 51.8227 98.2521C51.7318 101.617 48.7048 104.579 45.34 104.618Z" fill="#FFC263" fill-opacity="0.36"/>
<path d="M62.3978 108.385C62.5407 111.919 59.3838 115.18 55.8241 115.18C52.4594 115.18 49.4064 112.218 49.2635 108.853C49.1206 105.319 52.2775 102.059 55.8371 102.059C59.2149 102.059 62.2679 105.008 62.3978 108.385Z" fill="#FFC263" fill-opacity="0.36"/>
<path d="M45.0543 49.3266C48.3801 49.1967 51.537 52.0288 51.8099 55.4065C52.0957 58.9012 49.0687 62.279 45.509 62.4219C41.9884 62.5648 38.7275 59.4209 38.7405 55.8742C38.7535 52.5094 41.6895 49.4565 45.0543 49.3266Z" fill="#FFC263" fill-opacity="0.36"/>
<path d="M55.8631 38.7774C59.4098 38.7904 62.5407 42.0642 62.3718 45.5849C62.2159 48.9626 59.1499 51.8857 55.7981 51.8597C52.2515 51.8467 49.1206 48.5729 49.2765 45.0522C49.4453 41.6874 52.5113 38.7514 55.8631 38.7774Z" fill="#FFC263" fill-opacity="0.36"/>
<path d="M60.2932 118.791C60.8259 115.076 62.9305 113.088 66.672 113.127C70.2446 113.166 72.8559 116.206 72.4012 119.792C71.9205 123.546 69.582 125.43 65.8795 125.17C62.099 124.897 60.3971 122.455 60.2932 118.791Z" fill="#FFC263" fill-opacity="0.36"/>
<path d="M40.793 87.4562C40.5072 91.1717 38.6235 93.4582 34.804 93.4842C31.0235 93.5102 28.8149 91.3796 28.763 87.5861C28.724 83.8056 30.8676 81.61 34.6481 81.5451C38.4675 81.4931 40.4293 83.7277 40.793 87.4562Z" fill="#FFC263" fill-opacity="0.36"/>
<path d="M34.986 60.369C38.7015 60.8237 40.8451 62.8764 40.7022 66.6568C40.5593 70.4503 38.2598 72.516 34.5053 72.3861C30.7118 72.2561 28.6592 69.9567 28.7761 66.1892C28.893 62.3697 31.2575 60.5639 34.986 60.369Z" fill="#FFC263" fill-opacity="0.36"/>
<path d="M72.4922 34.6333C72.0895 38.5957 70.1148 40.8302 66.3083 40.7652C62.5148 40.7003 60.3583 38.4787 60.4102 34.6852C60.4622 30.8918 62.6967 28.7482 66.4772 28.7742C70.3226 28.8001 72.1414 31.1646 72.4922 34.6333Z" fill="#FFC263" fill-opacity="0.36"/>
<path d="M45.444 124.728C42.1312 124.352 39.9227 122.611 39.8447 119.285C39.7798 115.972 41.8584 113.816 45.1583 113.738C48.4711 113.66 50.6276 115.751 50.7056 119.051C50.8095 122.377 48.6399 124.183 45.444 124.728Z" fill="#FFC263" fill-opacity="0.36"/>
<path d="M77.0261 135.304C73.7653 134.914 71.5438 133.173 71.4658 129.834C71.4009 126.508 73.5054 124.339 76.8053 124.248C80.1311 124.17 82.3006 126.274 82.3915 129.587C82.4955 132.952 80.3259 134.771 77.0261 135.304Z" fill="#FFC263" fill-opacity="0.36"/>
<path d="M29.7245 76.9202C29.1919 80.3369 27.3731 82.4675 24.0603 82.3766C20.7734 82.2856 18.6948 80.142 18.7727 76.8422C18.8507 73.5554 21.0073 71.4898 24.3071 71.5547C27.6329 71.6197 29.2958 73.8802 29.7245 76.9202Z" fill="#FFC263" fill-opacity="0.36"/>
<path d="M76.8573 18.6669C80.1051 19.0436 82.3137 20.7845 82.3656 24.1103C82.4306 27.4231 80.339 29.5796 77.0392 29.6446C73.7264 29.7096 71.5828 27.6179 71.5049 24.3181C71.4269 20.9923 73.5835 19.1865 76.8573 18.6669Z" fill="#FFC263" fill-opacity="0.36"/>
<path d="M50.8095 34.6852C50.4457 37.92 48.7179 40.1026 45.4051 40.1805C42.1052 40.2455 39.9617 38.1799 39.8837 34.893C39.8058 31.5932 41.8844 29.4496 45.1712 29.3717C48.484 29.2808 50.2898 31.4113 50.8095 34.6852Z" fill="#FFC263" fill-opacity="0.36"/>
<path d="M34.687 103.085C38.1038 103.605 40.2344 105.423 40.1435 108.736C40.0655 112.023 37.9219 114.102 34.6221 114.037C31.3353 113.959 29.2697 111.815 29.3216 108.515C29.3866 105.177 31.6341 103.514 34.687 103.085Z" fill="#FFC263" fill-opacity="0.36"/>
<path d="M40.2603 45.1561C39.8836 48.4689 38.1557 50.6644 34.8429 50.7294C31.5431 50.7943 29.3995 48.7157 29.3216 45.4289C29.2436 42.1291 31.3222 39.9985 34.609 39.9075C37.9478 39.8166 39.7277 41.9862 40.2603 45.1561Z" fill="#FFC263" fill-opacity="0.36"/>
<path d="M23.9821 103.098C20.7992 102.734 19.0584 100.967 19.2402 97.7585C19.4221 94.5106 21.4488 92.9127 24.6187 93.1205C27.6067 93.3154 29.2046 95.1731 29.1397 98.1482C29.0877 101.409 27.152 102.942 23.9821 103.098Z" fill="#FFC263" fill-opacity="0.36"/>
<path d="M24.5148 60.9017C21.137 60.7068 19.2273 59.1218 19.2273 55.874C19.2403 52.6391 21.0721 50.8723 24.2939 50.9113C27.282 50.9373 29.0098 52.6391 29.1397 55.6271C29.2826 58.888 27.4509 60.5249 24.5148 60.9017Z" fill="#FFC263" fill-opacity="0.36"/>
<path d="M56.0062 134.784C52.5895 134.498 50.7577 132.796 50.8616 129.548C50.9655 126.287 52.9142 124.612 56.1231 124.729C59.1241 124.845 60.7871 126.638 60.826 129.639C60.878 132.952 58.9293 134.485 56.0062 134.784Z" fill="#FFC263" fill-opacity="0.36"/>
<path d="M60.8648 24.4221C60.501 27.605 58.7342 29.3458 55.5253 29.1639C52.2774 28.982 50.6795 26.9554 50.8874 23.7855C51.0822 20.7975 52.94 19.1995 55.9151 19.2645C59.1759 19.3164 60.7089 21.2522 60.8648 24.4221Z" fill="#FFC263" fill-opacity="0.36"/>
<path d="M13.6541 91.9383C10.9648 91.6654 9.23698 90.1715 9.30194 87.3783C9.35391 84.832 11.0038 83.1951 13.5631 83.1821C16.3433 83.1691 18.0452 84.8839 17.9932 87.6771C17.9282 90.2104 16.2653 91.6265 13.6541 91.9383Z" fill="#FFC263" fill-opacity="0.36"/>
<path d="M13.5112 62.006C15.9406 62.1619 17.7074 63.3961 17.9543 65.9554C18.2141 68.7485 16.6161 70.5933 13.862 70.7492C11.0948 70.8921 9.32798 69.2032 9.28901 66.4101C9.26302 63.8508 10.874 62.3957 13.5112 62.006Z" fill="#FFC263" fill-opacity="0.36"/>
<path d="M70.9073 140.175C70.6345 142.839 69.1925 144.683 66.4383 144.696C63.6971 144.709 61.9692 142.955 61.9692 140.201C61.9692 137.668 63.6322 135.992 66.1265 135.849C68.8807 135.693 70.4396 137.408 70.9073 140.175Z" fill="#FFC263" fill-opacity="0.36"/>
<path d="M70.8423 13.587C70.6474 16.0814 69.3223 17.8352 66.763 18.0301C63.9568 18.2379 62.0991 16.588 62.0081 13.8079C61.9042 11.0147 63.671 9.26088 66.4772 9.27388C69.0365 9.29986 70.4785 10.9757 70.8423 13.587Z" fill="#FFC263" fill-opacity="0.36"/>
<path d="M38.7014 24.305C38.4675 26.6955 37.2073 28.1375 34.765 28.1245C32.0757 28.1115 30.6726 26.5266 30.8415 23.9023C30.9844 21.4859 32.5304 20.2128 34.9468 20.3167C37.3892 20.4206 38.5584 21.9146 38.7014 24.305Z" fill="#FFC263" fill-opacity="0.36"/>
<path d="M24.3329 115.18C26.7363 115.44 28.1524 116.726 28.1134 119.194C28.0615 121.909 26.4506 123.286 23.8003 123.091C21.3579 122.923 20.1107 121.338 20.2407 118.908C20.3966 116.44 21.9165 115.284 24.3329 115.18Z" fill="#FFC263" fill-opacity="0.36"/>
<path d="M49.0165 13.6781C48.7047 15.8087 47.5484 17.3027 45.3789 17.3157C42.9885 17.3287 41.4944 15.8087 41.6373 13.4183C41.7673 11.3007 43.2223 9.92356 45.4178 10.0145C47.6004 10.1054 48.7306 11.5605 49.0165 13.6781Z" fill="#FFC263" fill-opacity="0.36"/>
<path d="M34.7261 125.729C37.1425 125.898 38.6366 127.119 38.6755 129.587C38.7145 132.277 37.1945 133.745 34.5183 133.641C32.0629 133.55 30.7508 132.043 30.8028 129.613C30.8547 127.145 32.3097 125.924 34.7261 125.729Z" fill="#FFC263" fill-opacity="0.36"/>
<path d="M13.3551 104.865C15.6806 105.124 17.1876 106.255 17.2785 108.411C17.3825 110.802 15.8885 112.322 13.498 112.27C11.3545 112.231 9.99037 110.776 9.97738 108.606C9.96439 106.385 11.4974 105.319 13.3551 104.865Z" fill="#FFC263" fill-opacity="0.36"/>
<path d="M24.3331 38.7645C21.6958 38.4787 20.2538 37.2315 20.2798 34.7892C20.3057 32.0999 21.8907 30.7099 24.528 30.8788C26.9444 31.0347 28.2045 32.5806 28.1006 34.997C27.9967 37.4654 26.4117 38.5307 24.3331 38.7645Z" fill="#FFC263" fill-opacity="0.36"/>
<path d="M49.0557 140.422C48.6659 142.553 47.4707 143.982 45.2622 143.956C43.0666 143.93 41.6376 142.54 41.6246 140.357C41.6116 137.928 43.1446 136.46 45.561 136.603C47.7176 136.72 48.8608 138.24 49.0557 140.422Z" fill="#FFC263" fill-opacity="0.36"/>
<path d="M17.3437 45.4161C16.941 47.5727 15.7328 49.0277 13.5112 48.9238C11.3287 48.8328 9.9386 47.3778 10.0165 45.1823C10.1075 42.9997 11.5495 41.6096 13.7581 41.6876C15.9536 41.7785 17.0969 43.2725 17.3437 45.4161Z" fill="#FFC263" fill-opacity="0.36"/>
<path d="M73.7002 150.88C73.999 148.607 75.1942 147.49 77.2209 147.658C79.2865 147.827 80.2998 149.23 80.092 151.231C79.9101 153.011 78.7149 154.05 76.8701 153.998C74.7915 153.946 73.8691 152.634 73.7002 150.88Z" fill="#FFC263" fill-opacity="0.36"/>
<path d="M58.7082 150.802C58.5004 152.595 57.552 153.712 55.6683 153.634C54.0443 153.557 53.031 152.517 53.031 150.893C53.031 149.036 54.1482 147.957 56.006 148.022C57.6429 148.074 58.4874 149.165 58.7082 150.802Z" fill="#FFC263" fill-opacity="0.36"/>
<path d="M58.6691 3.142C58.4483 4.76592 57.5778 5.87019 55.9279 5.88318C54.0442 5.89618 52.9269 4.72695 53.0828 2.85619C53.2127 1.25825 54.317 0.244927 55.9929 0.348858C57.6298 0.439798 58.4742 1.51808 58.6691 3.142Z" fill="#FFC263" fill-opacity="0.36"/>
<path d="M80.1051 3.12905C79.8453 5.41553 78.5722 6.42886 76.5325 6.23399C74.6877 6.05211 73.7004 4.80493 73.8173 2.96015C73.9472 0.816574 75.3113 -0.170765 77.351 0.0241059C79.2087 0.180003 80.0402 1.46615 80.1051 3.12905Z" fill="#FFC263" fill-opacity="0.36"/>
<path d="M5.91117 55.861C5.7163 57.4849 4.84589 58.6022 3.20898 58.6282C1.32523 58.6672 0.207964 57.5109 0.324886 55.6272C0.428818 54.0162 1.53307 53.0159 3.19597 53.0809C4.85887 53.1718 5.70331 54.2501 5.91117 55.861Z" fill="#FFC263" fill-opacity="0.36"/>
<path d="M6.19699 76.9851C6.06707 78.9728 4.98879 80.129 2.91017 80.0511C1.06539 79.9861 0.0130973 78.8819 0.000105956 77.0371C-0.0128854 74.9455 1.16933 73.8282 3.24795 73.8932C5.10572 73.9451 6.05408 75.0754 6.19699 76.9851Z" fill="#FFC263" fill-opacity="0.36"/>
<path d="M5.91118 98.1479C5.66434 99.7589 4.78095 100.863 3.13104 100.837C1.24729 100.811 0.143014 99.629 0.324893 97.7582C0.48079 96.1733 1.61103 95.16 3.27393 95.2899C4.91084 95.4198 5.76827 96.511 5.91118 98.1479Z" fill="#FFC263" fill-opacity="0.36"/>
</svg>
