<svg width="32" height="33" viewBox="0 0 32 33" fill="none" xmlns="http://www.w3.org/2000/svg">
<path d="M28.2375 13.5166C27.7625 13.0291 27.275 12.5166 27.0875 12.0791C26.9 11.6416 26.9125 10.9916 26.9 10.3291C26.8875 9.11663 26.8625 7.72913 25.9 6.76663C24.9375 5.80413 23.55 5.77913 22.3375 5.76663C21.675 5.75413 21 5.74163 20.5875 5.57913C20.175 5.41663 19.6375 4.90413 19.15 4.42913C18.2875 3.60413 17.3 2.66663 16 2.66663C14.7 2.66663 13.7125 3.60413 12.85 4.42913C12.3625 4.90413 11.85 5.39163 11.4125 5.57913C10.975 5.76663 10.325 5.75413 9.6625 5.76663C8.45 5.77913 7.0625 5.80413 6.1 6.76663C5.1375 7.72913 5.1125 9.11663 5.1 10.3291C5.0875 10.9916 5.075 11.6666 4.9125 12.0791C4.75 12.4916 4.2375 13.0291 3.7625 13.5166C2.9375 14.3791 2 15.3666 2 16.6666C2 17.9666 2.9375 18.9541 3.7625 19.8166C4.2375 20.3041 4.725 20.8166 4.9125 21.2541C5.1 21.6916 5.0875 22.3416 5.1 23.0041C5.1125 24.2166 5.1375 25.6041 6.1 26.5666C7.0625 27.5291 8.45 27.5541 9.6625 27.5666C10.325 27.5791 11 27.5916 11.4125 27.7541C11.825 27.9166 12.3625 28.4291 12.85 28.9041C13.7125 29.7291 14.7 30.6666 16 30.6666C17.3 30.6666 18.2875 29.7291 19.15 28.9041C19.6375 28.4291 20.15 27.9416 20.5875 27.7541C21.025 27.5666 21.675 27.5791 22.3375 27.5666C23.55 27.5541 24.9375 27.5291 25.9 26.5666C26.8625 25.6041 26.8875 24.2166 26.9 23.0041C26.9125 22.3416 26.925 21.6666 27.0875 21.2541C27.25 20.8416 27.7625 20.3041 28.2375 19.8166C29.0625 18.9541 30 17.9666 30 16.6666C30 15.3666 29.0625 14.3791 28.2375 13.5166ZM22.1875 14.3916L14.8625 21.3916C14.6731 21.5698 14.4225 21.6682 14.1625 21.6666C13.9063 21.6676 13.6598 21.569 13.475 21.3916L9.8125 17.8916C9.71092 17.803 9.6283 17.6947 9.56962 17.5734C9.51094 17.452 9.47741 17.32 9.47104 17.1854C9.46466 17.0507 9.48559 16.9161 9.53255 16.7898C9.5795 16.6634 9.65153 16.5478 9.74429 16.45C9.83706 16.3522 9.94864 16.2741 10.0723 16.2205C10.196 16.1669 10.3293 16.1389 10.4641 16.1381C10.5989 16.1373 10.7325 16.1638 10.8568 16.216C10.9811 16.2681 11.0936 16.3449 11.1875 16.4416L14.1625 19.2791L20.8125 12.9416C21.0069 12.772 21.2594 12.6841 21.5172 12.6963C21.7749 12.7085 22.018 12.8198 22.1955 13.0071C22.3731 13.1943 22.4714 13.4429 22.4699 13.701C22.4684 13.959 22.3672 14.2065 22.1875 14.3916Z" fill="#00A5A5"/>
</svg>
