<svg width="24" height="24" viewBox="0 0 24 24" fill="none" xmlns="http://www.w3.org/2000/svg">
<path d="M21.7498 12.0002C21.745 14.3823 20.8708 16.6807 19.2913 18.4638C17.7119 20.247 15.5358 21.3922 13.1717 21.6846C13.119 21.6898 13.0657 21.684 13.0153 21.6676C12.9649 21.6512 12.9184 21.6245 12.8788 21.5893C12.8392 21.5541 12.8073 21.5111 12.7851 21.4629C12.7629 21.4148 12.7509 21.3626 12.7498 21.3096V14.2502H14.9998C15.1024 14.2504 15.2039 14.2296 15.2981 14.189C15.3923 14.1484 15.4772 14.0889 15.5475 14.0142C15.6178 13.9395 15.672 13.8512 15.7068 13.7548C15.7416 13.6583 15.7563 13.5557 15.7498 13.4533C15.7333 13.2594 15.6437 13.079 15.4993 12.9485C15.3549 12.818 15.1663 12.7471 14.9717 12.7502H12.7498V10.5002C12.7498 10.1024 12.9079 9.72085 13.1892 9.43955C13.4705 9.15824 13.852 9.00021 14.2498 9.00021H15.7498C15.8524 9.00041 15.9539 8.97957 16.0481 8.93898C16.1423 8.89839 16.2272 8.83892 16.2975 8.76423C16.3678 8.68954 16.422 8.60123 16.4568 8.50476C16.4916 8.40828 16.5063 8.30569 16.4998 8.20333C16.4833 8.0094 16.3937 7.82898 16.2493 7.69848C16.1049 7.56798 15.9163 7.49712 15.7217 7.50021H14.2498C13.4542 7.50021 12.6911 7.81628 12.1285 8.37889C11.5659 8.94149 11.2498 9.70456 11.2498 10.5002V12.7502H8.99985C8.89729 12.75 8.79577 12.7708 8.70158 12.8114C8.60739 12.852 8.52253 12.9115 8.45223 12.9862C8.38194 13.0609 8.32771 13.1492 8.2929 13.2457C8.25809 13.3421 8.24344 13.4447 8.24985 13.5471C8.26644 13.741 8.35598 13.9214 8.5004 14.0519C8.64481 14.1824 8.83336 14.2533 9.02797 14.2502H11.2498V21.3096C11.2501 21.3621 11.2393 21.4142 11.2182 21.4623C11.197 21.5104 11.166 21.5536 11.1271 21.5889C11.0882 21.6243 11.0423 21.6511 10.9924 21.6676C10.9425 21.684 10.8897 21.6898 10.8373 21.6846C5.88735 21.0846 2.06235 16.7815 2.25922 11.6346C2.36974 9.09281 3.4694 6.69492 5.32347 4.95274C7.17755 3.21056 9.63917 2.2621 12.1829 2.30982C14.7266 2.35754 17.1509 3.39765 18.9384 5.20814C20.7258 7.01863 21.7347 9.45608 21.7498 12.0002Z" fill="#00A5A5"/>
</svg>
