<svg width="16" height="16" viewBox="0 0 16 16" fill="none" xmlns="http://www.w3.org/2000/svg">
<path d="M13.5 4H11V3.5C10.9984 3.10268 10.8398 2.72211 10.5588 2.44116C10.2779 2.16021 9.89732 2.00165 9.5 2H6.5C6.10268 2.00165 5.72211 2.16021 5.44116 2.44116C5.16021 2.72211 5.00165 3.10268 5 3.5V4H2.5C2.23478 4 1.98043 4.10536 1.79289 4.29289C1.60536 4.48043 1.5 4.73478 1.5 5V13C1.5 13.2652 1.60536 13.5196 1.79289 13.7071C1.98043 13.8946 2.23478 14 2.5 14H13.5C13.7652 14 14.0196 13.8946 14.2071 13.7071C14.3946 13.5196 14.5 13.2652 14.5 13V5C14.5 4.73478 14.3946 4.48043 14.2071 4.29289C14.0196 4.10536 13.7652 4 13.5 4ZM6 3.5C6 3.36739 6.05268 3.24021 6.14645 3.14645C6.24021 3.05268 6.36739 3 6.5 3H9.5C9.63261 3 9.75979 3.05268 9.85355 3.14645C9.94732 3.24021 10 3.36739 10 3.5V4H6V3.5ZM9.75 9.5H8.5V10.75C8.5 10.8826 8.44732 11.0098 8.35355 11.1036C8.25979 11.1973 8.13261 11.25 8 11.25C7.86739 11.25 7.74021 11.1973 7.64645 11.1036C7.55268 11.0098 7.5 10.8826 7.5 10.75V9.5H6.25C6.11739 9.5 5.99021 9.44732 5.89645 9.35355C5.80268 9.25979 5.75 9.13261 5.75 9C5.75 8.86739 5.80268 8.74021 5.89645 8.64645C5.99021 8.55268 6.11739 8.5 6.25 8.5H7.5V7.25C7.5 7.11739 7.55268 6.99021 7.64645 6.89645C7.74021 6.80268 7.86739 6.75 8 6.75C8.13261 6.75 8.25979 6.80268 8.35355 6.89645C8.44732 6.99021 8.5 7.11739 8.5 7.25V8.5H9.75C9.88261 8.5 10.0098 8.55268 10.1036 8.64645C10.1973 8.74021 10.25 8.86739 10.25 9C10.25 9.13261 10.1973 9.25979 10.1036 9.35355C10.0098 9.44732 9.88261 9.5 9.75 9.5Z" fill="#E19621"/>
</svg>
