<svg width="618" height="402" viewBox="0 0 618 402" fill="none" xmlns="http://www.w3.org/2000/svg">
<path d="M147.001 201.693C186.267 187.833 228.583 190.097 266.153 208.056L265.293 209.855C188.73 173.241 96.6673 205.737 60.0534 282.299C42.3168 319.388 40.0844 361.163 53.7645 399.919C67.4446 438.676 95.4096 469.803 132.495 487.53L131.634 489.329C94.0612 471.36 65.7445 439.838 51.8847 400.572C38.0248 361.307 40.2889 318.99 58.2478 281.42C76.2134 243.869 107.736 215.553 147.001 201.693Z" fill="white" fill-opacity="0.53"/>
<path d="M150.593 211.868C185.653 199.493 225.413 200.464 261.519 217.73L260.659 219.529C189.442 185.472 103.791 215.705 69.7242 286.925C35.6667 358.141 65.9027 443.802 137.119 477.859L136.259 479.658C64.0473 445.125 33.3919 358.276 67.922 286.055C85.192 249.958 115.542 224.24 150.593 211.868Z" fill="white" fill-opacity="0.53"/>
<path d="M154.141 221.919C188.003 209.967 224.495 211.922 256.897 227.41L256.037 229.209C224.116 213.944 188.169 212.029 154.816 223.802C121.453 235.578 94.6764 259.643 79.417 291.552C64.1515 323.473 62.2372 359.42 74.0101 392.773C85.7863 426.136 109.851 452.912 141.76 468.172L140.899 469.971C108.506 454.48 84.0734 427.292 72.1208 393.429C60.1682 359.567 62.1235 323.075 77.6114 290.673C93.0999 258.301 120.278 233.872 154.141 221.919Z" fill="white" fill-opacity="0.53"/>
<path d="M157.732 232.094C187.606 221.549 221.494 222.377 252.267 237.093L251.406 238.892C190.856 209.935 118.039 235.638 89.0818 296.189C60.125 356.74 85.8276 429.557 146.378 458.514L145.518 460.312C83.9722 430.88 57.8468 356.865 87.2829 295.329C101.999 264.556 127.859 242.639 157.732 232.094Z" fill="white" fill-opacity="0.53"/>
<path d="M161.301 242.203C188.581 232.574 219.536 233.323 247.642 246.764L246.782 248.563C191.564 222.157 125.169 245.593 98.7716 300.807C72.3652 356.025 95.8011 422.42 151.016 448.817L150.155 450.616C93.955 423.74 70.0931 356.138 96.9694 299.937C110.395 271.847 134.02 251.832 161.301 242.203Z" fill="white" fill-opacity="0.53"/>
<path d="M164.869 252.312C189.565 243.595 217.581 244.279 243.008 256.439L242.148 258.238C192.275 234.388 132.292 255.56 108.442 305.432C96.8866 329.597 95.4324 356.812 104.346 382.065C113.26 407.318 131.476 427.591 155.64 439.147L154.78 440.946C130.134 429.168 111.56 408.481 102.47 382.728C93.3795 356.975 94.8619 329.208 106.644 304.572C118.803 279.145 140.172 261.029 164.869 252.312Z" fill="white" fill-opacity="0.53"/>
<path d="M168.437 262.421C190.54 254.619 215.613 255.229 238.386 266.119L237.526 267.918C192.987 246.619 139.425 265.524 118.126 310.064C96.8261 354.603 115.732 408.164 160.271 429.464L159.411 431.263C113.877 409.487 94.548 354.728 116.324 309.194C127.202 286.446 146.333 270.223 168.437 262.421Z" fill="white" fill-opacity="0.53"/>
<path d="M427.96 263.884C433.048 266.02 438.22 267.819 443.476 269.309L612.828 99.9562C611.339 94.6999 609.54 89.528 607.404 84.4404L427.96 263.884Z" fill="#FFC263"/>
<path d="M406.063 252.275C410.392 255.114 414.833 257.644 419.359 259.921L603.44 75.8392C601.163 71.2857 598.634 66.8445 595.795 62.5439L406.063 252.275Z" fill="#FFC263"/>
<path d="M387.314 237.462C390.969 240.891 394.763 244.096 398.67 247.047L590.566 55.1517C587.614 51.2446 584.41 47.45 580.981 43.7959L387.314 237.462Z" fill="#FFC263"/>
<path d="M436.729 7.73242C417.475 14.2817 399.402 25.2158 384.054 40.5349C368.707 55.882 357.801 73.9557 351.252 93.2099L436.729 7.73242Z" fill="#FFC263"/>
<path d="M615.386 164.521C616.932 156.735 617.803 148.864 618 140.966L484.485 274.48C492.384 274.284 500.282 273.412 508.04 271.866L615.386 164.521Z" fill="#FFC263"/>
<path d="M453.623 271.782C459.75 273.018 465.906 273.833 472.118 274.227L617.747 128.598C617.354 122.386 616.538 116.202 615.302 110.103L453.623 271.782Z" fill="#FFC263"/>
<path d="M358.56 199.123C360.837 203.676 363.367 208.117 366.206 212.418L555.937 22.6865C551.608 19.8475 547.167 17.3178 542.641 15.041L358.56 199.123Z" fill="#FFC263"/>
<path d="M346.614 110.44C345.068 118.226 344.197 126.097 344 133.995L477.515 0.480469C469.616 0.677227 461.718 1.54856 453.96 3.09452L346.614 110.44Z" fill="#FFC263"/>
<path d="M525.271 267.229C544.525 260.68 562.598 249.746 577.946 234.427C593.293 219.08 604.199 201.006 610.748 181.752L525.271 267.229Z" fill="#FFC263"/>
<path d="M349.172 174.978C350.662 180.234 352.461 185.406 354.597 190.494L534.041 11.05C528.953 8.91374 523.781 7.11474 518.525 5.625L349.172 174.978Z" fill="#FFC263"/>
<path d="M344.253 146.363C344.647 152.575 345.462 158.758 346.699 164.858L508.378 3.17881C502.25 1.94204 496.095 1.12691 489.883 0.733398L344.253 146.363Z" fill="#FFC263"/>
<path d="M371.434 219.809C374.385 223.716 377.589 227.511 381.019 231.165L574.713 37.4707C571.059 34.0415 567.264 30.8371 563.357 27.8857L371.434 219.809Z" fill="#FFC263"/>
</svg>
