<svg width="337" height="208" viewBox="0 0 337 208" fill="none" xmlns="http://www.w3.org/2000/svg">
<path d="M68.84 32.6403C91.4319 24.6339 115.772 25.9218 137.376 36.2597L136.88 37.2972C92.855 16.2206 39.8854 34.9924 18.7932 79.1458C8.57569 100.535 7.27447 124.619 15.1276 146.956C22.9808 169.294 39.054 187.227 60.3787 197.432L59.8832 198.469C38.2778 188.126 22.0024 169.965 14.0461 147.334C6.0897 124.703 7.40933 100.306 17.7549 78.6397C28.1044 56.9842 46.248 40.6466 68.84 32.6403Z" fill="white" fill-opacity="0.53"/>
<path d="M70.9016 38.5057C91.0738 31.3569 113.944 31.9004 134.706 41.8399L134.21 42.8773C93.2592 23.2723 43.979 40.7367 24.354 81.8092C4.73444 122.88 22.0917 172.251 63.0429 191.856L62.5473 192.893C21.0239 173.014 3.42589 122.958 23.3177 81.3085C33.2664 60.4917 50.7349 45.6525 70.9016 38.5057Z" fill="white" fill-opacity="0.53"/>
<path d="M72.9388 44.3C92.4219 37.3954 113.412 38.5076 132.044 47.4231L131.548 48.4606C113.193 39.6731 92.5165 38.5843 73.3264 45.385C54.1308 52.1877 38.7185 66.0721 29.928 84.4737C21.134 102.883 20.0182 123.607 26.7765 142.83C33.5367 162.059 47.3683 177.486 65.7163 186.27L65.2207 187.307C46.5939 178.39 32.551 162.726 25.6895 143.209C18.828 123.692 19.9676 102.654 28.8898 83.9676C37.8122 65.2992 53.4557 51.2046 72.9388 44.3Z" fill="white" fill-opacity="0.53"/>
<path d="M75.0005 50.1658C92.1886 44.0745 111.681 44.5378 129.376 53.0092L128.881 54.0466C94.0626 37.3778 52.1665 52.2253 35.4853 87.1448C18.8041 122.064 33.559 164.033 68.377 180.702L67.8814 181.739C32.4912 164.796 17.4937 122.138 34.4509 86.6496C42.9286 68.9029 57.8123 56.2571 75.0005 50.1658Z" fill="white" fill-opacity="0.53"/>
<path d="M77.0481 55.9933C92.7442 50.4308 110.549 50.8502 126.711 58.5875L126.216 59.6249C94.4642 44.4242 56.263 57.9623 41.0564 89.8044C25.8444 121.648 39.298 159.916 71.0475 175.111L70.5519 176.148C38.2356 160.677 24.5374 121.714 40.0201 89.3038C47.7542 73.1041 61.352 61.5558 77.0481 55.9933Z" fill="white" fill-opacity="0.53"/>
<path d="M79.0973 61.8197C93.3068 56.784 109.421 57.1669 124.043 64.1667L123.547 65.2041C94.8694 51.475 60.3576 63.7056 46.6183 92.4668C39.9612 106.402 39.1136 122.093 44.2306 136.648C49.3476 151.202 59.8177 162.882 73.7127 169.534L73.2171 170.571C59.0453 163.791 48.3692 151.873 43.1509 137.03C37.9327 122.187 38.7968 106.179 45.5838 91.9716C52.5888 77.3077 64.8878 66.8554 79.0973 61.8197Z" fill="white" fill-opacity="0.53"/>
<path d="M81.145 67.6476C93.8624 63.1406 108.284 63.4817 121.38 69.7509L120.884 70.7883C95.273 58.5273 64.4559 69.4485 52.1858 95.1342C39.9157 120.82 50.7687 151.69 76.3797 163.951L75.8841 164.989C49.7009 152.454 38.6052 120.893 51.1495 94.6335C57.4164 81.5148 68.4275 72.1545 81.145 67.6476Z" fill="white" fill-opacity="0.53"/>
<path d="M233.657 143.655C236.424 144.82 239.236 145.801 242.095 146.614L334.188 54.252C333.378 51.3854 332.4 48.5647 331.238 45.79L233.657 143.655Z" fill="#FFC263"/>
<path d="M221.75 137.324C224.104 138.873 226.519 140.252 228.98 141.494L329.083 41.0996C327.844 38.6162 326.469 36.1941 324.925 33.8486L221.75 137.324Z" fill="#FFC263"/>
<path d="M211.555 129.245C213.542 131.115 215.605 132.863 217.73 134.472L322.082 29.8163C320.477 27.6854 318.734 25.6159 316.87 23.623L211.555 129.245Z" fill="#FFC263"/>
<path d="M238.426 3.95508C227.955 7.52691 218.127 13.4902 209.781 21.8449C201.435 30.215 195.505 40.072 191.943 50.5728L238.426 3.95508Z" fill="#FFC263"/>
<path d="M335.579 89.4645C336.419 85.2181 336.893 80.9258 337 76.6182L264.396 149.434C268.691 149.327 272.986 148.852 277.204 148.009L335.579 89.4645Z" fill="#FFC263"/>
<path d="M247.612 147.963C250.944 148.637 254.292 149.082 257.67 149.297L336.862 69.8731C336.648 66.4852 336.205 63.1127 335.533 59.7861L247.612 147.963Z" fill="#FFC263"/>
<path d="M195.918 108.336C197.156 110.819 198.532 113.241 200.076 115.587L303.251 12.1111C300.897 10.5628 298.482 9.18312 296.021 7.94141L195.918 108.336Z" fill="#FFC263"/>
<path d="M189.422 59.97C188.581 64.2163 188.107 68.5086 188 72.8163L260.605 0C256.309 0.107308 252.014 0.582519 247.796 1.42566L189.422 59.97Z" fill="#FFC263"/>
<path d="M286.574 145.48C297.045 141.908 306.873 135.945 315.219 127.59C323.564 119.22 329.495 109.363 333.056 98.8623L286.574 145.48Z" fill="#FFC263"/>
<path d="M190.812 95.1674C191.623 98.0341 192.601 100.855 193.763 103.629L291.343 5.76434C288.577 4.59928 285.764 3.61814 282.906 2.80566L190.812 95.1674Z" fill="#FFC263"/>
<path d="M188.138 79.5611C188.352 82.949 188.795 86.3216 189.467 89.6481L277.388 1.47138C274.056 0.796867 270.708 0.352312 267.33 0.137695L188.138 79.5611Z" fill="#FFC263"/>
<path d="M202.918 119.618C204.523 121.749 206.265 123.818 208.13 125.811L313.46 20.1737C311.473 18.3035 309.41 16.5559 307.285 14.9463L202.918 119.618Z" fill="#FFC263"/>
</svg>
