<svg width="24" height="25" viewBox="0 0 24 25" fill="none" xmlns="http://www.w3.org/2000/svg">
<path d="M3.94703 5H20.0533C20.1988 5.00005 20.3411 5.0424 20.4629 5.12191C20.5847 5.20141 20.6808 5.31463 20.7395 5.44777C20.7981 5.58092 20.8167 5.72824 20.7931 5.87179C20.7695 6.01533 20.7046 6.14891 20.6064 6.25625L14.447 13.0344C14.3188 13.1716 14.2483 13.3529 14.2502 13.5406V18.8469C14.2513 18.9715 14.221 19.0944 14.162 19.2042C14.103 19.314 14.0172 19.4072 13.9127 19.475L10.9127 21.4719C10.8001 21.546 10.6697 21.5884 10.5351 21.5947C10.4005 21.601 10.2667 21.5709 10.1477 21.5076C10.0288 21.4443 9.92908 21.3501 9.85912 21.2349C9.78916 21.1198 9.75152 20.9879 9.75015 20.8531V13.5406C9.75196 13.3529 9.68147 13.1716 9.55328 13.0344L3.3939 6.25625C3.2957 6.14891 3.23084 6.01533 3.20722 5.87179C3.1836 5.72824 3.20223 5.58092 3.26086 5.44777C3.31948 5.31463 3.41556 5.20141 3.53739 5.12191C3.65922 5.0424 3.80155 5.00005 3.94703 5V5Z" stroke="#12253A" stroke-width="1.5" stroke-linecap="round" stroke-linejoin="round"/>
</svg>
