<svg width="13" height="13" viewBox="0 0 13 13" fill="none" xmlns="http://www.w3.org/2000/svg">
<path d="M6.72383 9.68398L9.28321 11.309C9.61328 11.5172 10.0195 11.2074 9.92305 10.8266L9.18164 7.91172C9.1616 7.83092 9.16478 7.74611 9.19084 7.66704C9.21689 7.58798 9.26475 7.51789 9.32891 7.46484L11.6242 5.55039C11.9238 5.30156 11.7715 4.79883 11.3805 4.77343L8.38438 4.58047C8.30263 4.57571 8.22404 4.54724 8.1582 4.49854C8.09237 4.44985 8.04215 4.38303 8.01368 4.30625L6.89649 1.49297C6.86692 1.41167 6.81304 1.34144 6.74218 1.29181C6.67132 1.24218 6.5869 1.21556 6.50039 1.21556C6.41388 1.21556 6.32947 1.24218 6.25861 1.29181C6.18775 1.34144 6.13387 1.41167 6.1043 1.49297L4.98711 4.30625C4.95864 4.38303 4.90842 4.44985 4.84258 4.49854C4.77675 4.54724 4.69816 4.57571 4.61641 4.58047L1.62032 4.77343C1.2293 4.79883 1.07696 5.30156 1.37657 5.55039L3.67188 7.46484C3.73603 7.51789 3.7839 7.58798 3.80995 7.66704C3.836 7.74611 3.83919 7.83092 3.81914 7.91172L3.1336 10.6133C3.0168 11.0703 3.5043 11.441 3.89532 11.1922L6.27696 9.68398C6.34374 9.64151 6.42125 9.61896 6.50039 9.61896C6.57954 9.61896 6.65704 9.64151 6.72383 9.68398V9.68398Z" stroke="#FFC263" stroke-linecap="round" stroke-linejoin="round"/>
</svg>
