<svg width="61" height="75" viewBox="0 0 61 75" fill="none" xmlns="http://www.w3.org/2000/svg">
<path d="M28.872 74.456C23.8107 74.456 18.7493 73.832 13.688 72.584C8.696 71.336 4.328 69.568 0.584 67.28L8.072 51.784C10.984 53.7253 14.208 55.216 17.744 56.256C21.3493 57.296 24.8507 57.816 28.248 57.816C31.784 57.816 34.592 57.1573 36.672 55.84C38.752 54.5227 39.792 52.6507 39.792 50.224C39.792 48.0747 38.9253 46.376 37.192 45.128C35.4587 43.8107 32.616 43.152 28.664 43.152H20.032V30.152L39.584 9.04L41.56 16.112H4.328V0.199995H56.952V13.096L37.4 34.208L27.312 28.488H32.928C42.0107 28.488 48.8747 30.5333 53.52 34.624C58.2347 38.6453 60.592 43.8453 60.592 50.224C60.592 54.384 59.448 58.3013 57.16 61.976C54.9413 65.6507 51.5093 68.6667 46.864 71.024C42.2187 73.312 36.2213 74.456 28.872 74.456Z" fill="#F5F5F5"/>
</svg>
