<svg width="61" height="75" viewBox="0 0 61 75" fill="none" xmlns="http://www.w3.org/2000/svg">
<path d="M4.12 75V62.104L31.368 36.624C33.3093 34.8213 34.7307 33.2267 35.632 31.84C36.6027 30.4533 37.2267 29.2053 37.504 28.096C37.8507 26.9173 38.024 25.8427 38.024 24.872C38.024 22.5147 37.2267 20.6773 35.632 19.36C34.1067 18.0427 31.784 17.384 28.664 17.384C26.0293 17.384 23.568 17.9733 21.28 19.152C18.992 20.3307 17.12 22.0987 15.664 24.456L0.376 15.928C3.08 11.352 6.99733 7.67733 12.128 4.904C17.2587 2.13066 23.3947 0.743995 30.536 0.743995C36.152 0.743995 41.0747 1.64533 45.304 3.448C49.5333 5.25066 52.8267 7.816 55.184 11.144C57.6107 14.472 58.824 18.3893 58.824 22.896C58.824 25.2533 58.512 27.6107 57.888 29.968C57.264 32.256 56.0507 34.7173 54.248 37.352C52.5147 39.9173 49.9147 42.7947 46.448 45.984L24.816 65.952L21.384 58.672H60.8V75H4.12Z" fill="#F5F5F5"/>
</svg>
