<svg width="124" height="97" viewBox="0 0 124 97" fill="none" xmlns="http://www.w3.org/2000/svg">
<g clip-path="url(#clip0_196_2981)">
<path d="M84.1445 10.8458L92.1086 2.81689C90.6947 3.63142 89.3818 4.60594 88.1939 5.71136L87.0157 6.8992C85.9191 8.09675 84.9525 9.42034 84.1445 10.8458Z" fill="#FFE3B8"/>
<path d="M81.7695 17.2263L98.4384 0.421875C97.9767 0.513994 97.5246 0.625506 97.0725 0.746714L82.0917 15.8493C81.9715 16.3051 81.8609 16.7608 81.7695 17.2263Z" fill="#FFE3B8"/>
<path d="M81.3457 21.4976C81.3457 21.5412 81.3457 21.5897 81.3457 21.6333L102.809 0C102.766 0 102.718 0 102.675 0C102.362 0 102.054 0.00969668 101.751 0.0193934L81.3697 20.5667C81.3553 20.877 81.3457 21.1873 81.3457 21.4976Z" fill="#FFE3B8"/>
<path d="M81.6766 25.2889L106.43 0.33445C106.132 0.281118 105.829 0.232634 105.53 0.193848L81.5371 24.3823C81.5756 24.6829 81.6237 24.9883 81.6766 25.2889Z" fill="#FFE3B8"/>
<path d="M82.4864 28.455L109.572 1.14909C109.312 1.05697 109.048 0.974546 108.783 0.896973L82.2363 27.6599C82.3181 27.9265 82.3998 28.1932 82.4864 28.455Z" fill="#FFE3B8"/>
<path d="M83.6637 31.2524L112.351 2.33203C112.12 2.21567 111.884 2.0993 111.649 1.98779L83.3223 30.5446C83.4329 30.7821 83.5435 31.0197 83.6637 31.2524Z" fill="#FFE3B8"/>
<path d="M85.145 33.7443L114.823 3.82513C114.616 3.67968 114.409 3.53907 114.198 3.40332L84.7266 33.114C84.8612 33.3273 85.0007 33.5358 85.145 33.7443Z" fill="#FFE3B8"/>
<path d="M86.8959 35.9652L117.021 5.59515C116.838 5.43031 116.656 5.26546 116.468 5.10547L86.4102 35.4076C86.5689 35.5919 86.7324 35.781 86.8959 35.9652Z" fill="#FFE3B8"/>
<path d="M88.9114 37.9188L118.964 7.62149C118.806 7.4324 118.642 7.24332 118.479 7.05908L88.3535 37.4291C88.5363 37.594 88.719 37.7588 88.9114 37.9188Z" fill="#FFE3B8"/>
<path d="M91.1818 39.611L120.643 9.91007C120.509 9.69674 120.369 9.48826 120.225 9.27979L90.5566 39.1941C90.7634 39.3347 90.9702 39.4753 91.1818 39.611Z" fill="#FFE3B8"/>
<path d="M93.7343 41.0216L122.037 12.4891C121.926 12.2515 121.816 12.014 121.695 11.7812L93.0273 40.6823C93.263 40.7986 93.4986 40.9101 93.7343 41.0216Z" fill="#FFE3B8"/>
<path d="M96.6051 42.1129L123.123 15.3791C123.046 15.1125 122.96 14.8458 122.873 14.584L95.8164 41.8608C96.0761 41.9529 96.3406 42.0353 96.6051 42.1129Z" fill="#FFE3B8"/>
<path d="M99.867 42.8111L123.817 18.6664C123.779 18.3609 123.731 18.0555 123.678 17.7549L98.9629 42.6705C99.2611 42.7239 99.564 42.7724 99.867 42.8111Z" fill="#FFE3B8"/>
<path d="M102.674 42.9999C103.005 42.9999 103.332 42.9902 103.655 42.9757L123.974 22.4914C123.988 22.1617 123.998 21.832 123.998 21.5023C123.998 21.4733 123.998 21.449 123.998 21.4199L102.592 42.9999C102.616 42.9951 102.645 42.9999 102.674 42.9999Z" fill="#FFE3B8"/>
<path d="M108.351 42.2243L123.236 27.2187C123.361 26.7629 123.471 26.3024 123.568 25.8369L106.98 42.5589C107.442 42.4619 107.899 42.3504 108.351 42.2243Z" fill="#FFE3B8"/>
<path d="M121.123 32.2803L113.365 40.1007C116.578 38.2195 119.257 35.519 121.123 32.2803Z" fill="#FFE3B8"/>
</g>
<g clip-path="url(#clip1_196_2981)">
<path d="M-31.9238 46.0519L1.59751 12.834C0.669044 13.0161 -0.240099 13.2365 -1.14922 13.4761L-31.2759 43.3301C-31.5176 44.231 -31.7401 45.1319 -31.9238 46.0519Z" fill="#A1D2CB"/>
<path d="M-32.7754 54.4952C-32.7754 54.5815 -32.7754 54.6773 -32.7754 54.7636L10.3884 12C10.3014 12 10.2047 12 10.1176 12C9.48896 12 8.86998 12.0192 8.26067 12.0383L-32.727 52.6551C-32.7561 53.2685 -32.7754 53.8818 -32.7754 54.4952Z" fill="#A1D2CB"/>
<path d="M-32.1082 61.9898L17.6709 12.6612C17.0713 12.5558 16.462 12.46 15.8623 12.3833L-32.3887 60.1976C-32.3113 60.7918 -32.2146 61.3956 -32.1082 61.9898Z" fill="#A1D2CB"/>
<path d="M-30.4834 68.2481L23.9863 14.2713C23.4641 14.0892 22.9321 13.9263 22.4002 13.7729L-30.9863 66.6763C-30.8219 67.2034 -30.6575 67.7305 -30.4834 68.2481Z" fill="#A1D2CB"/>
<path d="M-28.1141 73.7779L29.5763 16.6097C29.112 16.3796 28.6381 16.1496 28.1642 15.9292L-28.8008 72.3786C-28.5783 72.8482 -28.3559 73.3179 -28.1141 73.7779Z" fill="#A1D2CB"/>
<path d="M-25.1351 78.7043L34.5475 19.5618C34.1316 19.2743 33.7158 18.9964 33.2902 18.728L-25.9766 77.4584C-25.7058 77.8801 -25.4253 78.2922 -25.1351 78.7043Z" fill="#A1D2CB"/>
<path d="M-21.615 83.0936L38.9671 23.0598C38.5996 22.7339 38.2321 22.4081 37.8549 22.0918L-22.5918 81.9914C-22.2726 82.3556 -21.9438 82.7294 -21.615 83.0936Z" fill="#A1D2CB"/>
<path d="M-17.5617 86.9559L42.8753 27.0658C42.5562 26.6921 42.2273 26.3183 41.8985 25.9541L-18.6836 85.9879C-18.3161 86.3138 -17.9486 86.6396 -17.5617 86.9559Z" fill="#A1D2CB"/>
<path d="M-12.9966 90.3009L46.2508 31.5897C45.98 31.168 45.6996 30.7559 45.4094 30.3438L-14.2539 89.4767C-13.838 89.7546 -13.4222 90.0325 -12.9966 90.3009Z" fill="#A1D2CB"/>
<path d="M-7.86152 93.0898L49.0551 36.6883C48.8327 36.2187 48.6102 35.7491 48.3684 35.2891L-9.2832 92.4189C-8.8093 92.649 -8.33543 92.8694 -7.86152 93.0898Z" fill="#A1D2CB"/>
<path d="M-2.08772 95.2463L51.2408 42.4004C51.0861 41.8733 50.912 41.3461 50.7379 40.8286L-3.67383 94.7479C-3.15157 94.93 -2.61965 95.0929 -2.08772 95.2463Z" fill="#A1D2CB"/>
<path d="M4.47056 96.6265L52.6345 48.8985C52.5571 48.2947 52.4604 47.6909 52.354 47.0967L2.65234 96.3486C3.25198 96.454 3.86125 96.5498 4.47056 96.6265Z" fill="#A1D2CB"/>
<path d="M10.1176 96.9999C10.7849 96.9999 11.4425 96.9808 12.0905 96.952L52.9525 56.4598C52.9815 55.8081 53.0009 55.1564 53.0009 54.5047C53.0009 54.4472 53.0009 54.3993 53.0009 54.3418L9.95312 96.9999C10.0015 96.9903 10.0595 96.9999 10.1176 96.9999Z" fill="#A1D2CB"/>
<path d="M21.5298 95.4665L51.463 65.8042C51.7145 64.9033 51.9369 63.9928 52.1304 63.0728L18.7734 96.1278C19.7019 95.9361 20.6207 95.7157 21.5298 95.4665Z" fill="#A1D2CB"/>
<path d="M47.2173 75.8101L31.6172 91.269C38.0777 87.5504 43.4647 82.2121 47.2173 75.8101Z" fill="#A1D2CB"/>
</g>
<defs>
<clipPath id="clip0_196_2981">
<rect width="43" height="43" fill="white" transform="translate(81)"/>
</clipPath>
<clipPath id="clip1_196_2981">
<rect width="53" height="85" fill="white" transform="translate(0 12)"/>
</clipPath>
</defs>
</svg>
