<svg width="1440" height="328" viewBox="0 0 1440 328" fill="none" xmlns="http://www.w3.org/2000/svg">
<g clip-path="url(#clip0_63_1732)">
<rect width="1694" height="51" transform="translate(-173 277.57) rotate(-9.43073)" fill="#FFC263"/>
<path d="M6.85153 278.681C6.73217 279.271 6.51909 279.796 6.21288 280.256C5.90666 280.715 5.51937 281.092 5.05045 281.385C4.58162 281.68 4.0549 281.875 3.4716 281.972C2.88718 282.069 2.32622 282.054 1.78743 281.927C1.24873 281.801 0.76051 281.57 0.322205 281.234C-0.116101 280.898 -0.487451 280.47 -0.790726 279.95C-1.09512 279.43 -1.30309 278.833 -1.4153 278.157C-1.5299 277.467 -1.52685 276.831 -1.40578 276.247C-1.28563 275.665 -1.07199 275.143 -0.765772 274.684C-0.459556 274.225 -0.0722658 273.848 0.396564 273.554C0.865584 273.261 1.39165 273.065 1.97607 272.968C2.55937 272.871 3.12098 272.886 3.65958 273.012C4.19838 273.139 4.6866 273.37 5.1249 273.706C5.56321 274.041 5.93398 274.466 6.23648 274.978C6.53861 275.491 6.74772 276.092 6.86232 276.782C6.97453 277.458 6.97034 278.09 6.85153 278.681ZM10.054 272.898C9.45846 271.979 8.71946 271.212 7.837 270.595C6.95453 269.978 5.96525 269.553 4.86841 269.318C3.77233 269.084 2.60333 269.07 1.36284 269.276C0.136335 269.48 -0.961262 269.871 -1.9308 270.447C-2.90015 271.025 -3.70612 271.749 -4.34908 272.619C-4.99204 273.489 -5.44316 274.455 -5.70187 275.515C-5.96114 276.576 -5.99134 277.7 -5.79454 278.884C-5.59756 280.07 -5.20587 281.123 -4.61762 282.043C-4.02983 282.963 -3.29083 283.731 -2.40108 284.347C-1.51143 284.962 -0.514784 285.386 0.589236 285.619C1.69325 285.852 2.85824 285.867 4.08474 285.663C5.32523 285.457 6.42684 285.066 7.38845 284.49C8.35062 283.914 9.14988 283.195 9.78681 282.334C10.4238 281.473 10.8749 280.507 11.1402 279.437C11.4043 278.368 11.4391 277.241 11.2421 276.055C11.0453 274.87 10.6484 273.817 10.054 272.898Z" fill="white"/>
<path d="M49.8123 266.273C50.1191 265.813 50.5175 265.434 51.0083 265.137C51.499 264.839 52.0581 264.638 52.6868 264.534C53.4167 264.413 54.1035 264.461 54.7474 264.677C55.3915 264.894 56.0113 265.263 56.608 265.78L58.942 262.755C58.0378 261.917 56.9842 261.337 55.782 261.011C54.58 260.687 53.2707 260.642 51.8539 260.877C50.6414 261.079 49.5538 261.464 48.5903 262.033C47.627 262.602 46.83 263.317 46.2002 264.176C45.5696 265.037 45.1264 266.002 44.8684 267.07C44.6105 268.14 44.5816 269.274 44.7811 270.475C44.9805 271.676 45.3748 272.741 45.9644 273.669C46.5541 274.597 47.2852 275.366 48.1603 275.977C49.0343 276.588 50.0197 277.006 51.1152 277.233C52.2107 277.46 53.3644 277.473 54.5769 277.271C55.9938 277.036 57.2176 276.567 58.2489 275.863C59.2801 275.159 60.0901 274.273 60.6775 273.203L57.4908 271.095C57.0934 271.778 56.6259 272.326 56.0866 272.739C55.5473 273.153 54.9129 273.42 54.183 273.542C53.5543 273.646 52.9603 273.637 52.3997 273.514C51.8392 273.391 51.3398 273.162 50.9008 272.826C50.4625 272.49 50.0911 272.062 49.7872 271.541C49.4828 271.021 49.2747 270.423 49.1625 269.747C49.0503 269.072 49.0539 268.439 49.1738 267.848C49.2931 267.258 49.5061 266.732 49.8123 266.273Z" fill="white"/>
<path d="M68.1328 268.17L69.2638 262.802L72.0687 267.516L68.1328 268.17ZM66.4339 258.779L62.2832 275.667L66.7083 274.932L67.3954 271.671L73.8985 270.591L75.6029 273.455L80.1153 272.705L70.7062 258.07L66.4339 258.779Z" fill="white"/>
<path d="M85.6269 265.102L84.0896 255.847L79.8173 256.556L82.4355 272.32L86.5327 271.639L91.3085 261.358L92.8421 270.591L97.1138 269.882L94.4955 254.118L90.4208 254.795L85.6269 265.102Z" fill="white"/>
<path d="M110.123 255.155L109.558 251.616L98.3192 253.483L100.938 269.246L105.209 268.536L103.178 256.309L110.123 255.155Z" fill="white"/>
<path d="M117.027 260.048L118.158 254.681L120.963 259.395L117.027 260.048ZM115.328 250.658L111.178 267.546L115.603 266.811L116.29 263.549L122.793 262.469L124.497 265.333L129.01 264.584L119.6 249.948L115.328 250.658Z" fill="white"/>
<path d="M141.06 262.582L145.945 261.771L139.752 254.434L143.283 246.014L138.726 246.771L136.093 253.503L134.004 253.85L132.986 247.725L128.671 248.441L131.289 264.205L135.604 263.488L134.602 257.453L136.584 257.124L141.06 262.582Z" fill="white"/>
<path d="M169.785 251.617C169.666 252.208 169.453 252.733 169.146 253.192C168.841 253.652 168.453 254.028 167.984 254.322C167.515 254.616 166.988 254.811 166.405 254.908C165.821 255.005 165.26 254.991 164.721 254.864C164.183 254.738 163.694 254.507 163.256 254.171C162.817 253.835 162.446 253.407 162.143 252.887C161.838 252.367 161.631 251.769 161.519 251.094C161.404 250.404 161.407 249.768 161.528 249.184C161.648 248.602 161.862 248.08 162.168 247.621C162.474 247.161 162.862 246.785 163.33 246.49C163.799 246.197 164.325 246.002 164.91 245.905C165.493 245.808 166.055 245.823 166.593 245.948C167.132 246.075 167.621 246.306 168.058 246.642C168.497 246.978 168.868 247.402 169.17 247.915C169.473 248.428 169.681 249.029 169.796 249.719C169.908 250.394 169.904 251.027 169.785 251.617ZM170.771 243.531C169.888 242.915 168.899 242.489 167.803 242.255C166.706 242.021 165.537 242.007 164.296 242.213C163.07 242.416 161.972 242.807 161.003 243.384C160.034 243.962 159.227 244.685 158.585 245.556C157.942 246.426 157.49 247.391 157.232 248.452C156.972 249.512 156.942 250.636 157.139 251.821C157.336 253.007 157.728 254.06 158.316 254.979C158.904 255.9 159.643 256.668 160.533 257.283C161.422 257.898 162.419 258.323 163.523 258.556C164.627 258.789 165.792 258.803 167.018 258.6C168.259 258.394 169.36 258.003 170.323 257.426C171.284 256.85 172.083 256.132 172.72 255.27C173.357 254.409 173.809 253.444 174.074 252.374C174.338 251.305 174.373 250.177 174.176 248.991C173.979 247.806 173.583 246.754 172.988 245.835C172.392 244.916 171.653 244.148 170.771 243.531Z" fill="white"/>
<path d="M185.601 246.724C185.223 247.203 184.581 247.517 183.676 247.668L181.268 248.068L180.501 243.453L182.91 243.053C183.815 242.903 184.524 242.994 185.036 243.325C185.549 243.656 185.866 244.189 185.988 244.924C186.108 245.645 185.979 246.245 185.601 246.724ZM186.329 239.594C185.237 239.298 183.991 239.265 182.589 239.498L175.582 240.662L178.199 256.419L182.535 255.699L181.851 251.58L184.523 251.136C185.924 250.903 187.092 250.466 188.029 249.825C188.965 249.184 189.638 248.382 190.048 247.419C190.458 246.457 190.565 245.383 190.368 244.197C190.169 242.997 189.719 242.003 189.018 241.218C188.317 240.432 187.422 239.891 186.329 239.594Z" fill="white"/>
<path d="M204.673 235.83L191.009 238.099L191.596 241.634L205.26 239.364L204.673 235.83Z" fill="white"/>
<path d="M219.932 243.288C219.812 243.879 219.599 244.404 219.293 244.863C218.987 245.323 218.599 245.699 218.131 245.993C217.662 246.287 217.135 246.482 216.552 246.579C215.967 246.676 215.406 246.662 214.868 246.535C214.329 246.408 213.841 246.177 213.402 245.842C212.964 245.506 212.593 245.078 212.289 244.558C211.985 244.038 211.777 243.44 211.665 242.764C211.55 242.074 211.553 241.438 211.674 240.855C211.794 240.272 212.008 239.751 212.314 239.291C212.621 238.832 213.008 238.455 213.477 238.161C213.946 237.868 214.472 237.672 215.056 237.575C215.639 237.478 216.201 237.493 216.74 237.619C217.278 237.746 217.767 237.977 218.205 238.313C218.643 238.649 219.014 239.073 219.317 239.585C219.619 240.099 219.828 240.7 219.942 241.389C220.055 242.065 220.05 242.698 219.932 243.288ZM223.134 237.505C222.539 236.587 221.8 235.819 220.917 235.202C220.035 234.585 219.045 234.16 217.948 233.925C216.852 233.692 215.683 233.677 214.443 233.883C213.216 234.087 212.119 234.478 211.149 235.055C210.18 235.633 209.374 236.356 208.731 237.226C208.088 238.096 207.637 239.062 207.378 240.123C207.119 241.183 207.089 242.307 207.286 243.492C207.483 244.678 207.874 245.73 208.462 246.65C209.05 247.571 209.789 248.339 210.679 248.954C211.569 249.569 212.565 249.994 213.669 250.227C214.773 250.46 215.938 250.474 217.165 250.27C218.405 250.064 219.507 249.673 220.469 249.097C221.431 248.521 222.23 247.802 222.867 246.941C223.504 246.08 223.955 245.115 224.22 244.045C224.484 242.975 224.519 241.848 224.322 240.662C224.125 239.477 223.728 238.424 223.134 237.505Z" fill="white"/>
<path d="M200.959 244.762L197.042 243.642C197.111 243.381 197.161 243.058 197.063 242.469L201.063 241.804C201.241 242.878 201.208 243.817 200.959 244.762Z" fill="white"/>
<path d="M196.93 249.541C196.739 249.061 196.6 248.547 196.504 247.97C196.408 247.389 196.373 246.856 196.399 246.337L200.451 246.59C200.441 246.798 200.458 247.032 200.503 247.306C200.549 247.578 200.608 247.804 200.685 247.997L196.93 249.541Z" fill="white"/>
<path d="M202.811 252.331L198.812 252.995C198.714 252.406 198.563 252.116 198.413 251.892L201.758 249.566C202.298 250.379 202.633 251.258 202.811 252.331Z" fill="white"/>
<path d="M82.9763 250.91C83.3488 250.871 83.7779 250.832 84.2045 250.924C84.3548 250.957 84.5072 251.002 84.6447 251.071C84.9197 251.209 85.0641 251.452 85.0987 251.761C85.1167 251.925 85.0666 251.994 84.9059 252.003C84.788 252.01 84.6671 251.995 84.5489 251.98C84.4307 251.964 84.3138 251.933 84.196 251.913C84.016 251.882 83.8767 251.943 83.7914 252.112C83.7464 252.201 83.709 252.294 83.6641 252.385C83.5973 252.519 83.5364 252.658 83.4574 252.785C83.0281 253.477 81.9307 253.533 81.4834 252.717C81.3941 252.554 81.3207 252.378 81.2637 252.201C81.2039 252.015 81.2496 251.922 81.4183 251.826C81.5408 251.757 81.6698 251.699 81.7964 251.637C82.053 251.512 82.2855 251.361 82.4535 251.115C82.5521 250.971 82.6001 250.962 82.9763 250.91Z" fill="white"/>
<path d="M84.4559 250.798C83.9758 250.844 83.5627 250.795 83.1699 250.64C82.9464 250.552 82.748 250.569 82.5359 250.646C82.4112 250.692 82.2784 250.724 82.147 250.739C81.9722 250.761 81.8507 250.66 81.853 250.479C81.8568 250.249 81.8811 250.018 81.9152 249.791C81.9367 249.647 82.0334 249.581 82.2178 249.583C82.4427 249.586 82.6709 249.593 82.8913 249.635C83.2365 249.7 83.5448 249.628 83.846 249.464C84.1372 249.305 84.4346 249.16 84.7309 249.011C84.8064 248.974 84.8849 248.941 84.9656 248.918C85.1456 248.865 85.2287 248.922 85.2588 249.117C85.2694 249.188 85.2736 249.262 85.2682 249.333C85.2489 249.577 85.2272 249.821 85.2003 250.064C85.1727 250.31 85.0471 250.499 84.8437 250.622C84.7061 250.704 84.5513 250.756 84.4559 250.798Z" fill="white"/>
<path d="M91.8132 250.995C91.8576 251.342 91.7414 251.633 91.5291 251.893C91.4559 251.982 91.3658 252.004 91.2653 251.953C91.1071 251.873 90.9421 251.801 90.7976 251.7C90.3521 251.386 89.861 251.242 89.3287 251.206C89.0775 251.19 88.8265 251.144 88.5805 251.086C88.3484 251.033 88.2716 250.902 88.2795 250.659C88.2885 250.391 88.3722 250.147 88.5359 249.941C88.6086 249.849 88.7066 249.771 88.8079 249.712C88.9611 249.624 89.0513 249.647 89.1466 249.805C89.3116 250.078 89.5547 250.24 89.8296 250.367C90.3776 250.622 90.9484 250.762 91.5491 250.77C91.7566 250.772 91.7888 250.804 91.8132 250.995Z" fill="white"/>
<path d="M87.2957 251.39C87.2761 251.39 87.2318 251.397 87.192 251.385C87.0021 251.334 86.8095 251.289 86.6248 251.22C86.4173 251.141 86.3721 251.011 86.4796 250.809C86.644 250.5 86.8223 250.199 86.9913 249.893C87.0727 249.746 87.187 249.634 87.319 249.535C87.3973 249.477 87.4693 249.447 87.57 249.471C87.7201 249.509 87.875 249.524 88.0258 249.559C88.3586 249.637 88.4123 249.767 88.2392 250.061C88.167 250.184 88.0871 250.302 88.0136 250.424C87.8595 250.681 87.7048 250.937 87.5546 251.196C87.4983 251.294 87.4344 251.373 87.2957 251.39Z" fill="white"/>
<path d="M87.9551 251.247C88.7083 251.663 89.4975 251.725 90.2837 251.801C90.3187 251.804 90.3539 251.801 90.389 251.804C90.5575 251.821 90.5997 251.858 90.6207 252.001C90.6448 252.171 90.5935 252.291 90.4468 252.322C90.2901 252.355 90.1257 252.373 89.9658 252.363C89.3971 252.326 88.8289 252.278 88.2604 252.225C88.1214 252.213 87.9799 252.182 87.8493 252.133C87.6465 252.058 87.5658 251.874 87.661 251.678C87.7342 251.527 87.8498 251.398 87.9551 251.247Z" fill="white"/>
<path d="M85.8807 250.906C85.5799 250.958 85.4076 250.829 85.389 250.547C85.359 250.093 85.5115 249.699 85.7886 249.354C85.9179 249.194 86.0954 249.207 86.2734 249.253C86.4401 249.298 86.5682 249.386 86.6136 249.57C86.7271 250.028 86.4128 250.685 85.9891 250.87C85.9446 250.889 85.897 250.9 85.8807 250.906Z" fill="white"/>
<path d="M85.0262 251.054C84.9992 250.898 85.0493 250.843 85.1977 250.878C85.327 250.908 85.4553 250.95 85.5801 250.998C85.9171 251.126 86.2494 251.267 86.5882 251.388C86.7526 251.446 86.9274 251.473 87.0979 251.513C87.1524 251.526 87.2094 251.529 87.2627 251.546C87.4088 251.591 87.4715 251.674 87.4517 251.79C87.4309 251.918 87.3124 252.028 87.1846 252.011C86.9208 251.974 86.6514 251.948 86.3988 251.869C86.0364 251.754 85.6886 251.593 85.3323 251.456C85.1431 251.384 85.0706 251.228 85.0262 251.054Z" fill="white"/>
<path d="M262.892 230.88C263.199 230.42 263.598 230.042 264.088 229.744C264.579 229.447 265.138 229.246 265.767 229.141C266.497 229.02 267.184 229.068 267.828 229.285C268.472 229.502 269.091 229.87 269.688 230.388L272.022 227.362C271.118 226.525 270.064 225.944 268.862 225.619C267.66 225.294 266.351 225.249 264.934 225.485C263.721 225.686 262.634 226.071 261.67 226.64C260.707 227.209 259.91 227.924 259.28 228.784C258.65 229.645 258.206 230.609 257.948 231.678C257.691 232.747 257.662 233.882 257.861 235.083C258.061 236.284 258.455 237.348 259.044 238.276C259.634 239.205 260.365 239.974 261.24 240.584C262.114 241.195 263.1 241.614 264.195 241.841C265.291 242.067 266.445 242.08 267.657 241.879C269.074 241.643 270.298 241.174 271.329 240.471C272.36 239.766 273.17 238.88 273.758 237.811L270.571 235.702C270.173 236.385 269.706 236.933 269.167 237.347C268.627 237.76 267.993 238.028 267.263 238.149C266.634 238.254 266.04 238.245 265.48 238.121C264.919 237.999 264.42 237.769 263.981 237.433C263.543 237.097 263.171 236.669 262.867 236.149C262.563 235.629 262.355 235.03 262.243 234.355C262.13 233.679 262.134 233.046 262.254 232.455C262.373 231.865 262.586 231.339 262.892 230.88Z" fill="white"/>
<path d="M281.213 232.777L282.344 227.409L285.149 232.123L281.213 232.777ZM279.514 223.387L275.363 240.274L279.788 239.539L280.475 236.278L286.979 235.198L288.683 238.062L293.195 237.312L283.786 222.677L279.514 223.387Z" fill="white"/>
<path d="M298.707 229.709L297.17 220.454L292.897 221.164L295.516 236.927L299.613 236.247L304.389 225.966L305.922 235.199L310.194 234.489L307.576 218.726L303.501 219.403L298.707 229.709Z" fill="white"/>
<path d="M323.203 219.762L322.638 216.223L311.399 218.09L314.018 233.853L318.289 233.144L316.258 220.916L323.203 219.762Z" fill="white"/>
<path d="M330.107 224.656L331.238 219.289L334.043 224.002L330.107 224.656ZM328.409 215.265L324.258 232.153L328.683 231.418L329.37 228.157L335.873 227.077L337.577 229.941L342.09 229.191L332.68 214.556L328.409 215.265Z" fill="white"/>
<path d="M354.14 227.19L359.025 226.378L352.832 219.041L356.363 210.622L351.806 211.378L349.173 218.11L347.084 218.457L346.066 212.332L341.751 213.049L344.369 228.813L348.685 228.096L347.682 222.061L349.664 221.732L354.14 227.19Z" fill="white"/>
<path d="M382.865 216.225C382.746 216.815 382.533 217.34 382.227 217.8C381.921 218.259 381.533 218.636 381.064 218.929C380.595 219.224 380.069 219.419 379.485 219.516C378.901 219.613 378.34 219.598 377.801 219.471C377.263 219.345 376.774 219.114 376.336 218.778C375.898 218.442 375.526 218.014 375.223 217.494C374.919 216.974 374.711 216.377 374.599 215.701C374.484 215.011 374.487 214.375 374.608 213.791C374.728 213.209 374.942 212.688 375.248 212.228C375.554 211.769 375.942 211.392 376.41 211.098C376.879 210.805 377.405 210.609 377.99 210.512C378.573 210.415 379.135 210.43 379.673 210.556C380.212 210.683 380.701 210.914 381.139 211.25C381.577 211.585 381.948 212.01 382.25 212.522C382.553 213.035 382.761 213.636 382.876 214.326C382.988 215.002 382.985 215.634 382.865 216.225ZM383.851 208.139C382.968 207.522 381.979 207.097 380.883 206.862C379.786 206.629 378.617 206.614 377.377 206.82C376.15 207.024 375.052 207.415 374.083 207.991C373.114 208.569 372.308 209.293 371.665 210.163C371.022 211.033 370.571 211.999 370.312 213.059C370.053 214.12 370.022 215.244 370.219 216.428C370.416 217.614 370.808 218.667 371.396 219.587C371.984 220.507 372.723 221.275 373.613 221.891C374.502 222.506 375.499 222.93 376.603 223.163C377.707 223.396 378.872 223.411 380.098 223.207C381.339 223.001 382.441 222.61 383.403 222.034C384.364 221.458 385.164 220.739 385.8 219.878C386.438 219.017 386.889 218.051 387.154 216.981C387.419 215.912 387.453 214.785 387.256 213.599C387.059 212.414 386.663 211.361 386.068 210.442C385.472 209.523 384.733 208.756 383.851 208.139Z" fill="white"/>
<path d="M398.681 211.331C398.303 211.81 397.661 212.125 396.756 212.275L394.348 212.675L393.582 208.061L395.99 207.661C396.895 207.51 397.604 207.601 398.117 207.932C398.629 208.263 398.946 208.796 399.069 209.532C399.188 210.252 399.059 210.852 398.681 211.331ZM399.41 204.201C398.317 203.905 397.071 203.873 395.67 204.105L388.662 205.269L391.279 221.026L395.615 220.306L394.931 216.187L397.603 215.743C399.004 215.511 400.172 215.073 401.109 214.432C402.045 213.791 402.718 212.989 403.128 212.026C403.538 211.064 403.645 209.99 403.448 208.804C403.249 207.604 402.799 206.611 402.098 205.825C401.398 205.04 400.502 204.498 399.41 204.201Z" fill="white"/>
<path d="M417.753 200.437L404.089 202.707L404.676 206.241L418.34 203.971L417.753 200.437Z" fill="white"/>
<path d="M433.012 207.896C432.892 208.486 432.679 209.011 432.373 209.47C432.067 209.93 431.68 210.306 431.211 210.6C430.742 210.894 430.215 211.09 429.632 211.186C429.047 211.284 428.486 211.269 427.948 211.142C427.409 211.016 426.921 210.785 426.482 210.449C426.044 210.113 425.673 209.685 425.369 209.165C425.065 208.645 424.857 208.047 424.745 207.372C424.63 206.682 424.633 206.046 424.754 205.462C424.875 204.88 425.088 204.358 425.394 203.899C425.701 203.439 426.088 203.063 426.557 202.769C427.026 202.475 427.552 202.28 428.136 202.183C428.72 202.086 429.281 202.101 429.82 202.227C430.359 202.353 430.847 202.585 431.285 202.92C431.723 203.256 432.094 203.681 432.397 204.193C432.699 204.706 432.908 205.307 433.022 205.997C433.135 206.672 433.13 207.305 433.012 207.896ZM436.214 202.113C435.619 201.194 434.88 200.426 433.997 199.81C433.115 199.193 432.125 198.768 431.029 198.533C429.932 198.299 428.763 198.285 427.523 198.491C426.296 198.694 425.199 199.086 424.229 199.662C423.26 200.24 422.454 200.964 421.811 201.834C421.168 202.704 420.717 203.669 420.458 204.73C420.199 205.791 420.169 206.914 420.366 208.099C420.563 209.285 420.954 210.338 421.543 211.258C422.13 212.178 422.869 212.946 423.759 213.562C424.649 214.177 425.645 214.601 426.749 214.834C427.853 215.067 429.018 215.082 430.245 214.878C431.485 214.672 432.587 214.281 433.549 213.705C434.511 213.129 435.31 212.41 435.947 211.548C436.584 210.687 437.035 209.722 437.3 208.652C437.564 207.583 437.599 206.455 437.402 205.269C437.205 204.085 436.809 203.032 436.214 202.113Z" fill="white"/>
<path d="M414.04 209.369L410.122 208.249C410.191 207.988 410.241 207.665 410.143 207.076L414.143 206.412C414.321 207.485 414.288 208.425 414.04 209.369Z" fill="white"/>
<path d="M410.01 214.148C409.82 213.669 409.68 213.155 409.584 212.578C409.488 211.996 409.453 211.463 409.479 210.945L413.531 211.198C413.521 211.405 413.538 211.639 413.583 211.913C413.629 212.186 413.688 212.412 413.765 212.605L410.01 214.148Z" fill="white"/>
<path d="M415.891 216.938L411.892 217.602C411.794 217.014 411.643 216.724 411.493 216.499L414.838 214.173C415.378 214.986 415.713 215.865 415.891 216.938Z" fill="white"/>
<path d="M296.056 215.517C296.429 215.478 296.858 215.44 297.285 215.532C297.435 215.564 297.587 215.609 297.725 215.678C298 215.817 298.144 216.059 298.179 216.368C298.197 216.532 298.147 216.601 297.986 216.61C297.868 216.617 297.747 216.603 297.629 216.587C297.511 216.571 297.394 216.54 297.276 216.52C297.096 216.489 296.957 216.551 296.871 216.719C296.826 216.809 296.789 216.902 296.744 216.992C296.677 217.127 296.617 217.266 296.537 217.392C296.108 218.084 295.011 218.14 294.563 217.324C294.474 217.161 294.401 216.986 294.344 216.808C294.284 216.622 294.33 216.53 294.498 216.434C294.621 216.364 294.75 216.306 294.876 216.244C295.133 216.12 295.366 215.968 295.534 215.723C295.632 215.578 295.68 215.57 296.056 215.517Z" fill="white"/>
<path d="M297.536 215.405C297.056 215.452 296.643 215.402 296.25 215.247C296.026 215.159 295.828 215.177 295.616 215.254C295.491 215.299 295.359 215.331 295.227 215.347C295.052 215.368 294.931 215.267 294.933 215.087C294.937 214.857 294.961 214.626 294.995 214.398C295.017 214.254 295.113 214.188 295.298 214.191C295.523 214.194 295.751 214.2 295.971 214.242C296.317 214.308 296.625 214.235 296.926 214.071C297.217 213.913 297.515 213.767 297.811 213.618C297.886 213.581 297.965 213.548 298.046 213.525C298.226 213.473 298.309 213.53 298.339 213.725C298.349 213.796 298.354 213.869 298.348 213.941C298.329 214.185 298.307 214.428 298.28 214.672C298.253 214.917 298.127 215.107 297.924 215.229C297.786 215.312 297.631 215.363 297.536 215.405Z" fill="white"/>
<path d="M304.893 215.603C304.938 215.95 304.822 216.241 304.609 216.5C304.536 216.589 304.446 216.611 304.345 216.561C304.187 216.48 304.022 216.408 303.878 216.307C303.432 215.994 302.941 215.85 302.409 215.814C302.158 215.798 301.907 215.751 301.661 215.694C301.429 215.64 301.352 215.51 301.36 215.267C301.369 214.998 301.452 214.755 301.616 214.549C301.689 214.457 301.787 214.379 301.888 214.32C302.041 214.231 302.131 214.254 302.227 214.412C302.392 214.685 302.635 214.847 302.91 214.975C303.458 215.23 304.028 215.369 304.629 215.377C304.837 215.38 304.869 215.411 304.893 215.603Z" fill="white"/>
<path d="M300.376 215.998C300.356 215.997 300.312 216.004 300.272 215.993C300.082 215.941 299.89 215.896 299.705 215.827C299.497 215.748 299.452 215.618 299.56 215.416C299.724 215.108 299.902 214.807 300.071 214.501C300.153 214.353 300.267 214.242 300.399 214.143C300.477 214.084 300.549 214.054 300.65 214.079C300.8 214.116 300.955 214.131 301.106 214.166C301.439 214.245 301.492 214.374 301.319 214.668C301.247 214.791 301.167 214.909 301.094 215.032C300.94 215.288 300.785 215.545 300.635 215.804C300.578 215.901 300.514 215.98 300.376 215.998Z" fill="white"/>
<path d="M301.035 215.854C301.788 216.271 302.578 216.333 303.364 216.408C303.399 216.411 303.434 216.408 303.469 216.412C303.638 216.429 303.68 216.465 303.701 216.609C303.725 216.778 303.674 216.898 303.527 216.93C303.37 216.963 303.206 216.981 303.046 216.971C302.477 216.934 301.909 216.886 301.34 216.833C301.201 216.82 301.06 216.789 300.929 216.741C300.727 216.666 300.646 216.482 300.741 216.285C300.814 216.134 300.93 216.006 301.035 215.854Z" fill="white"/>
<path d="M298.961 215.514C298.66 215.566 298.488 215.436 298.469 215.154C298.439 214.7 298.592 214.306 298.869 213.962C298.998 213.801 299.175 213.814 299.353 213.861C299.52 213.905 299.648 213.994 299.694 214.177C299.807 214.636 299.493 215.292 299.069 215.477C299.025 215.496 298.977 215.508 298.961 215.514Z" fill="white"/>
<path d="M298.106 215.661C298.079 215.506 298.129 215.451 298.278 215.485C298.407 215.516 298.535 215.558 298.66 215.606C298.997 215.733 299.329 215.874 299.668 215.995C299.833 216.054 300.007 216.081 300.178 216.12C300.232 216.133 300.289 216.137 300.343 216.153C300.489 216.198 300.552 216.281 300.532 216.397C300.511 216.525 300.392 216.636 300.265 216.618C300.001 216.581 299.731 216.556 299.479 216.476C299.117 216.362 298.769 216.2 298.412 216.064C298.223 215.991 298.151 215.835 298.106 215.661Z" fill="white"/>
<path d="M475.972 195.487C476.279 195.028 476.678 194.649 477.168 194.352C477.659 194.054 478.218 193.853 478.847 193.749C479.577 193.627 480.264 193.675 480.908 193.892C481.552 194.109 482.171 194.477 482.768 194.995L485.102 191.969C484.198 191.132 483.144 190.551 481.942 190.226C480.74 189.902 479.431 189.857 478.014 190.092C476.802 190.293 475.714 190.679 474.751 191.247C473.787 191.816 472.99 192.531 472.36 193.391C471.73 194.252 471.287 195.217 471.029 196.285C470.771 197.354 470.742 198.489 470.941 199.69C471.141 200.891 471.535 201.955 472.125 202.883C472.714 203.812 473.445 204.581 474.32 205.191C475.194 205.802 476.18 206.221 477.275 206.448C478.371 206.674 479.525 206.687 480.737 206.486C482.154 206.251 483.378 205.781 484.409 205.078C485.44 204.374 486.25 203.488 486.838 202.418L483.651 200.31C483.254 200.992 482.786 201.541 482.247 201.954C481.707 202.368 481.073 202.635 480.343 202.756C479.714 202.861 479.12 202.852 478.56 202.729C477.999 202.606 477.5 202.377 477.061 202.04C476.623 201.705 476.251 201.277 475.947 200.756C475.643 200.236 475.435 199.638 475.323 198.962C475.21 198.287 475.214 197.653 475.334 197.063C475.453 196.472 475.666 195.947 475.972 195.487Z" fill="white"/>
<path d="M494.293 197.384L495.424 192.017L498.229 196.731L494.293 197.384ZM492.594 187.994L488.443 204.882L492.869 204.147L493.556 200.886L500.059 199.805L501.763 202.669L506.275 201.92L496.866 187.284L492.594 187.994Z" fill="white"/>
<path d="M511.787 194.317L510.25 185.062L505.977 185.771L508.596 201.535L512.693 200.854L517.469 190.573L519.002 199.806L523.274 199.096L520.656 183.333L516.581 184.01L511.787 194.317Z" fill="white"/>
<path d="M536.283 184.37L535.718 180.831L524.479 182.697L527.098 198.461L531.369 197.751L529.338 185.523L536.283 184.37Z" fill="white"/>
<path d="M543.188 189.263L544.318 183.896L547.123 188.609L543.188 189.263ZM541.489 179.873L537.338 196.76L541.763 196.025L542.45 192.764L548.953 191.684L550.657 194.548L555.17 193.798L545.76 179.163L541.489 179.873Z" fill="white"/>
<path d="M567.22 191.797L572.105 190.986L565.912 183.648L569.443 175.229L564.886 175.986L562.253 182.718L560.164 183.065L559.146 176.939L554.831 177.656L557.449 193.42L561.765 192.703L560.762 186.668L562.744 186.339L567.22 191.797Z" fill="white"/>
<path d="M595.945 180.832C595.826 181.423 595.613 181.948 595.307 182.407C595.001 182.866 594.613 183.243 594.144 183.537C593.675 183.831 593.149 184.026 592.565 184.123C591.981 184.22 591.42 184.206 590.881 184.079C590.343 183.952 589.854 183.721 589.416 183.386C588.978 183.05 588.606 182.622 588.303 182.102C587.999 181.582 587.791 180.984 587.679 180.308C587.564 179.618 587.567 178.982 587.688 178.399C587.808 177.816 588.022 177.295 588.328 176.835C588.634 176.376 589.022 175.999 589.49 175.705C589.959 175.412 590.485 175.216 591.07 175.119C591.653 175.022 592.215 175.037 592.753 175.163C593.292 175.29 593.781 175.521 594.219 175.857C594.657 176.193 595.028 176.617 595.33 177.129C595.633 177.643 595.841 178.244 595.956 178.934C596.068 179.609 596.065 180.242 595.945 180.832ZM596.931 172.746C596.048 172.129 595.059 171.704 593.963 171.469C592.866 171.236 591.697 171.221 590.457 171.427C589.23 171.631 588.132 172.022 587.163 172.599C586.194 173.177 585.388 173.9 584.745 174.77C584.102 175.64 583.651 176.606 583.392 177.667C583.133 178.727 583.102 179.851 583.299 181.036C583.496 182.222 583.888 183.274 584.476 184.194C585.064 185.115 585.803 185.883 586.693 186.498C587.582 187.113 588.58 187.538 589.683 187.771C590.787 188.004 591.952 188.018 593.178 187.814C594.419 187.608 595.521 187.217 596.483 186.641C597.444 186.065 598.244 185.346 598.881 184.485C599.518 183.624 599.969 182.659 600.234 181.589C600.499 180.519 600.533 179.392 600.336 178.206C600.139 177.021 599.743 175.968 599.148 175.049C598.552 174.131 597.813 173.363 596.931 172.746Z" fill="white"/>
<path d="M611.761 175.938C611.383 176.418 610.741 176.732 609.836 176.883L607.428 177.283L606.662 172.668L609.07 172.268C609.975 172.118 610.684 172.208 611.197 172.539C611.709 172.871 612.026 173.404 612.149 174.139C612.268 174.86 612.139 175.459 611.761 175.938ZM612.49 168.809C611.397 168.512 610.151 168.48 608.75 168.713L601.742 169.877L604.359 185.634L608.696 184.913L608.011 180.794L610.683 180.351C612.084 180.118 613.253 179.681 614.189 179.04C615.125 178.398 615.798 177.596 616.208 176.634C616.618 175.672 616.725 174.598 616.528 173.412C616.329 172.211 615.879 171.218 615.178 170.432C614.478 169.647 613.582 169.106 612.49 168.809Z" fill="white"/>
<path d="M630.833 165.044L617.169 167.314L617.756 170.848L631.42 168.579L630.833 165.044Z" fill="white"/>
<path d="M646.092 172.503C645.972 173.093 645.759 173.618 645.453 174.078C645.147 174.537 644.76 174.914 644.291 175.208C643.822 175.502 643.295 175.697 642.712 175.794C642.127 175.891 641.566 175.876 641.028 175.75C640.489 175.623 640.001 175.392 639.562 175.056C639.124 174.72 638.753 174.293 638.45 173.772C638.145 173.252 637.937 172.655 637.825 171.979C637.71 171.289 637.713 170.653 637.834 170.069C637.955 169.487 638.168 168.966 638.474 168.506C638.781 168.047 639.168 167.67 639.637 167.376C640.106 167.083 640.632 166.887 641.216 166.79C641.8 166.693 642.361 166.708 642.9 166.834C643.439 166.961 643.927 167.192 644.365 167.528C644.803 167.864 645.174 168.288 645.477 168.8C645.779 169.313 645.988 169.914 646.103 170.604C646.215 171.28 646.211 171.913 646.092 172.503ZM649.294 166.72C648.699 165.802 647.96 165.034 647.077 164.417C646.195 163.8 645.205 163.375 644.109 163.14C643.013 162.907 641.844 162.892 640.603 163.098C639.377 163.302 638.279 163.693 637.309 164.27C636.34 164.847 635.534 165.571 634.891 166.441C634.248 167.311 633.797 168.277 633.538 169.337C633.279 170.398 633.249 171.522 633.446 172.707C633.643 173.893 634.034 174.945 634.623 175.865C635.21 176.786 635.949 177.553 636.839 178.169C637.729 178.784 638.725 179.209 639.829 179.441C640.933 179.674 642.098 179.689 643.325 179.485C644.565 179.279 645.667 178.888 646.629 178.312C647.591 177.736 648.39 177.017 649.027 176.156C649.664 175.295 650.115 174.329 650.38 173.259C650.645 172.19 650.679 171.063 650.482 169.877C650.286 168.692 649.889 167.639 649.294 166.72Z" fill="white"/>
<path d="M627.12 173.976L623.202 172.857C623.271 172.596 623.321 172.273 623.224 171.683L627.223 171.019C627.401 172.092 627.368 173.032 627.12 173.976Z" fill="white"/>
<path d="M623.09 178.756C622.9 178.276 622.76 177.762 622.664 177.185C622.568 176.604 622.533 176.07 622.559 175.552L626.611 175.805C626.601 176.013 626.618 176.247 626.664 176.521C626.709 176.793 626.768 177.019 626.845 177.212L623.09 178.756Z" fill="white"/>
<path d="M628.971 181.546L624.972 182.21C624.874 181.621 624.723 181.331 624.573 181.107L627.918 178.781C628.458 179.594 628.793 180.472 628.971 181.546Z" fill="white"/>
<path d="M509.136 180.125C509.509 180.085 509.938 180.047 510.365 180.139C510.515 180.171 510.667 180.216 510.805 180.286C511.08 180.424 511.224 180.667 511.259 180.976C511.277 181.139 511.227 181.209 511.066 181.218C510.948 181.225 510.827 181.21 510.709 181.195C510.591 181.179 510.474 181.147 510.356 181.127C510.176 181.096 510.037 181.158 509.952 181.326C509.907 181.416 509.869 181.509 509.824 181.599C509.757 181.734 509.697 181.873 509.618 182C509.188 182.691 508.091 182.748 507.644 181.931C507.554 181.768 507.481 181.593 507.424 181.416C507.364 181.229 507.41 181.137 507.578 181.041C507.701 180.972 507.83 180.914 507.957 180.852C508.213 180.727 508.446 180.575 508.614 180.33C508.712 180.186 508.76 180.177 509.136 180.125Z" fill="white"/>
<path d="M510.616 180.013C510.136 180.059 509.723 180.01 509.33 179.855C509.107 179.766 508.908 179.784 508.696 179.861C508.571 179.907 508.439 179.939 508.307 179.954C508.132 179.975 508.011 179.874 508.013 179.694C508.017 179.464 508.041 179.233 508.075 179.006C508.097 178.861 508.194 178.796 508.378 178.798C508.603 178.801 508.831 178.807 509.051 178.849C509.397 178.915 509.705 178.843 510.006 178.678C510.297 178.52 510.595 178.374 510.891 178.226C510.967 178.188 511.045 178.156 511.126 178.132C511.306 178.08 511.389 178.137 511.419 178.332C511.43 178.403 511.434 178.477 511.428 178.548C511.409 178.792 511.387 179.036 511.361 179.279C511.333 179.525 511.207 179.714 511.004 179.837C510.866 179.919 510.711 179.97 510.616 180.013Z" fill="white"/>
<path d="M517.973 180.21C518.018 180.557 517.902 180.848 517.689 181.108C517.616 181.197 517.526 181.219 517.425 181.168C517.267 181.088 517.102 181.016 516.958 180.915C516.512 180.601 516.021 180.457 515.489 180.421C515.238 180.405 514.987 180.358 514.741 180.301C514.509 180.247 514.432 180.117 514.44 179.874C514.449 179.606 514.532 179.362 514.696 179.156C514.769 179.064 514.867 178.986 514.968 178.927C515.121 178.838 515.211 178.862 515.307 179.02C515.472 179.293 515.715 179.455 515.99 179.582C516.538 179.837 517.109 179.976 517.709 179.984C517.917 179.987 517.949 180.018 517.973 180.21Z" fill="white"/>
<path d="M513.456 180.605C513.436 180.605 513.392 180.611 513.352 180.6C513.162 180.548 512.97 180.504 512.785 180.434C512.578 180.356 512.532 180.226 512.64 180.024C512.804 179.715 512.982 179.414 513.151 179.108C513.233 178.961 513.347 178.849 513.479 178.75C513.557 178.692 513.629 178.661 513.73 178.686C513.88 178.724 514.035 178.738 514.186 178.774C514.519 178.852 514.572 178.981 514.399 179.276C514.327 179.399 514.247 179.517 514.174 179.639C514.02 179.896 513.865 180.152 513.715 180.411C513.658 180.509 513.595 180.588 513.456 180.605Z" fill="white"/>
<path d="M514.115 180.461C514.868 180.878 515.658 180.94 516.444 181.015C516.479 181.018 516.514 181.016 516.549 181.019C516.718 181.036 516.76 181.072 516.781 181.216C516.805 181.385 516.754 181.506 516.607 181.537C516.45 181.57 516.286 181.588 516.126 181.578C515.557 181.541 514.989 181.493 514.421 181.44C514.282 181.428 514.14 181.397 514.009 181.348C513.807 181.273 513.726 181.089 513.821 180.893C513.894 180.742 514.01 180.613 514.115 180.461Z" fill="white"/>
<path d="M512.041 180.121C511.74 180.173 511.568 180.043 511.549 179.761C511.519 179.308 511.672 178.913 511.949 178.569C512.078 178.409 512.256 178.421 512.434 178.468C512.6 178.512 512.728 178.601 512.774 178.785C512.887 179.243 512.573 179.899 512.149 180.085C512.105 180.104 512.057 180.115 512.041 180.121Z" fill="white"/>
<path d="M511.186 180.269C511.159 180.113 511.209 180.058 511.358 180.093C511.487 180.123 511.616 180.165 511.74 180.213C512.077 180.341 512.41 180.481 512.748 180.602C512.913 180.661 513.088 180.688 513.258 180.728C513.313 180.741 513.37 180.744 513.423 180.761C513.569 180.806 513.632 180.889 513.612 181.005C513.591 181.132 513.473 181.243 513.345 181.225C513.081 181.189 512.812 181.163 512.559 181.083C512.197 180.969 511.849 180.807 511.492 180.671C511.303 180.599 511.231 180.442 511.186 180.269Z" fill="white"/>
<path d="M689.053 160.095C689.359 159.635 689.758 159.256 690.248 158.959C690.739 158.662 691.298 158.46 691.927 158.356C692.657 158.235 693.344 158.283 693.988 158.499C694.632 158.716 695.251 159.085 695.848 159.602L698.182 156.577C697.278 155.739 696.224 155.159 695.022 154.833C693.82 154.509 692.511 154.464 691.094 154.699C689.882 154.901 688.794 155.286 687.831 155.855C686.867 156.424 686.07 157.139 685.44 157.998C684.81 158.859 684.367 159.824 684.109 160.892C683.851 161.962 683.822 163.096 684.021 164.297C684.221 165.498 684.615 166.563 685.205 167.491C685.794 168.419 686.525 169.188 687.401 169.799C688.275 170.41 689.26 170.829 690.355 171.055C691.451 171.282 692.605 171.295 693.817 171.093C695.234 170.858 696.458 170.389 697.489 169.685C698.52 168.981 699.33 168.095 699.918 167.025L696.731 164.917C696.334 165.6 695.866 166.148 695.327 166.562C694.788 166.975 694.153 167.243 693.423 167.364C692.795 167.468 692.201 167.459 691.64 167.336C691.079 167.213 690.58 166.984 690.141 166.648C689.703 166.312 689.331 165.884 689.027 165.363C688.723 164.843 688.515 164.245 688.403 163.57C688.291 162.894 688.294 162.261 688.414 161.67C688.533 161.08 688.746 160.554 689.053 160.095Z" fill="white"/>
<path d="M707.373 161.992L708.504 156.624L711.309 161.338L707.373 161.992ZM705.674 152.601L701.523 169.489L705.949 168.754L706.636 165.493L713.139 164.413L714.843 167.277L719.356 166.527L709.946 151.892L705.674 152.601Z" fill="white"/>
<path d="M724.867 158.924L723.33 149.669L719.057 150.379L721.676 166.142L725.773 165.461L730.549 155.181L732.082 164.413L736.354 163.704L733.736 147.94L729.661 148.617L724.867 158.924Z" fill="white"/>
<path d="M749.363 148.977L748.798 145.438L737.559 147.305L740.178 163.068L744.449 162.359L742.418 150.131L749.363 148.977Z" fill="white"/>
<path d="M756.268 153.87L757.398 148.503L760.203 153.217L756.268 153.87ZM754.569 144.48L750.418 161.368L754.843 160.633L755.53 157.372L762.033 156.291L763.737 159.155L768.25 158.406L758.84 143.77L754.569 144.48Z" fill="white"/>
<path d="M780.3 156.404L785.185 155.593L778.992 148.256L782.523 139.836L777.966 140.593L775.333 147.325L773.244 147.672L772.226 141.547L767.911 142.263L770.529 158.027L774.845 157.311L773.842 151.275L775.824 150.946L780.3 156.404Z" fill="white"/>
<path d="M809.025 145.44C808.906 146.03 808.693 146.555 808.387 147.014C808.081 147.474 807.693 147.85 807.224 148.144C806.755 148.438 806.229 148.634 805.645 148.73C805.061 148.828 804.5 148.813 803.961 148.686C803.423 148.56 802.934 148.329 802.496 147.993C802.058 147.657 801.686 147.229 801.383 146.709C801.079 146.189 800.871 145.591 800.759 144.916C800.644 144.226 800.647 143.59 800.768 143.006C800.888 142.424 801.102 141.902 801.408 141.443C801.714 140.983 802.102 140.607 802.57 140.312C803.039 140.019 803.565 139.824 804.15 139.727C804.733 139.63 805.295 139.645 805.833 139.771C806.372 139.897 806.861 140.128 807.299 140.464C807.737 140.8 808.108 141.225 808.41 141.737C808.713 142.25 808.922 142.851 809.036 143.541C809.148 144.216 809.145 144.849 809.025 145.44ZM810.011 137.354C809.128 136.737 808.139 136.312 807.043 136.077C805.946 135.843 804.777 135.829 803.537 136.035C802.31 136.238 801.213 136.629 800.243 137.206C799.274 137.784 798.468 138.508 797.825 139.378C797.182 140.248 796.731 141.213 796.472 142.274C796.213 143.335 796.182 144.458 796.379 145.643C796.576 146.829 796.968 147.882 797.556 148.802C798.144 149.722 798.883 150.49 799.773 151.106C800.662 151.721 801.66 152.145 802.763 152.378C803.867 152.611 805.032 152.626 806.259 152.422C807.499 152.216 808.601 151.825 809.563 151.249C810.524 150.673 811.324 149.954 811.961 149.092C812.598 148.231 813.049 147.266 813.314 146.196C813.579 145.127 813.613 143.999 813.416 142.813C813.219 141.629 812.823 140.576 812.228 139.657C811.632 138.738 810.893 137.97 810.011 137.354Z" fill="white"/>
<path d="M824.841 140.546C824.463 141.025 823.822 141.34 822.916 141.49L820.508 141.89L819.742 137.276L822.15 136.876C823.055 136.725 823.764 136.816 824.277 137.147C824.789 137.478 825.107 138.011 825.229 138.747C825.348 139.467 825.219 140.067 824.841 140.546ZM825.57 133.416C824.478 133.12 823.231 133.087 821.83 133.32L814.822 134.484L817.439 150.241L821.776 149.521L821.091 145.402L823.763 144.958C825.164 144.725 826.333 144.288 827.269 143.647C828.205 143.006 828.878 142.204 829.288 141.241C829.699 140.279 829.805 139.205 829.608 138.019C829.409 136.819 828.959 135.826 828.258 135.04C827.558 134.254 826.662 133.713 825.57 133.416Z" fill="white"/>
<path d="M843.913 129.652L830.249 131.922L830.836 135.456L844.5 133.186L843.913 129.652Z" fill="white"/>
<path d="M859.172 137.11C859.052 137.701 858.839 138.226 858.533 138.685C858.227 139.145 857.84 139.521 857.371 139.815C856.902 140.109 856.375 140.304 855.792 140.401C855.207 140.498 854.647 140.484 854.108 140.357C853.569 140.231 853.081 139.999 852.643 139.664C852.204 139.328 851.833 138.9 851.53 138.38C851.225 137.86 851.017 137.262 850.905 136.587C850.79 135.897 850.793 135.26 850.915 134.677C851.035 134.095 851.248 133.573 851.555 133.114C851.861 132.654 852.248 132.278 852.717 131.983C853.186 131.69 853.712 131.495 854.296 131.397C854.88 131.301 855.441 131.315 855.98 131.441C856.519 131.568 857.007 131.799 857.445 132.135C857.884 132.471 858.254 132.895 858.557 133.407C858.859 133.921 859.068 134.522 859.183 135.212C859.295 135.887 859.291 136.52 859.172 137.11ZM862.374 131.328C861.779 130.409 861.04 129.641 860.157 129.024C859.275 128.408 858.286 127.982 857.189 127.748C856.093 127.514 854.924 127.499 853.683 127.705C852.457 127.909 851.359 128.3 850.39 128.877C849.42 129.455 848.614 130.178 847.971 131.048C847.328 131.919 846.877 132.884 846.618 133.945C846.359 135.005 846.329 136.129 846.526 137.314C846.723 138.5 847.114 139.552 847.703 140.472C848.29 141.393 849.029 142.161 849.919 142.776C850.809 143.391 851.806 143.816 852.91 144.049C854.014 144.282 855.179 144.296 856.405 144.093C857.646 143.887 858.747 143.495 859.709 142.919C860.671 142.343 861.47 141.625 862.107 140.763C862.744 139.902 863.195 138.937 863.46 137.867C863.725 136.798 863.759 135.67 863.562 134.484C863.366 133.299 862.969 132.247 862.374 131.328Z" fill="white"/>
<path d="M840.2 138.584L836.282 137.464C836.351 137.203 836.401 136.88 836.304 136.291L840.303 135.627C840.481 136.7 840.448 137.639 840.2 138.584Z" fill="white"/>
<path d="M836.17 143.363C835.98 142.883 835.84 142.37 835.744 141.792C835.648 141.211 835.613 140.678 835.639 140.159L839.691 140.412C839.681 140.62 839.698 140.854 839.744 141.128C839.789 141.4 839.848 141.626 839.925 141.819L836.17 143.363Z" fill="white"/>
<path d="M842.051 146.153L838.052 146.817C837.955 146.229 837.803 145.939 837.653 145.714L840.998 143.388C841.539 144.201 841.873 145.08 842.051 146.153Z" fill="white"/>
<path d="M722.217 144.732C722.589 144.693 723.018 144.655 723.445 144.746C723.595 144.779 723.747 144.824 723.885 144.893C724.16 145.031 724.304 145.274 724.339 145.583C724.357 145.747 724.307 145.816 724.146 145.825C724.028 145.832 723.907 145.817 723.789 145.802C723.671 145.786 723.554 145.755 723.436 145.735C723.256 145.704 723.117 145.765 723.032 145.934C722.987 146.023 722.949 146.117 722.904 146.207C722.838 146.341 722.777 146.48 722.698 146.607C722.268 147.299 721.171 147.355 720.724 146.539C720.634 146.376 720.561 146.2 720.504 146.023C720.444 145.837 720.49 145.745 720.659 145.649C720.781 145.579 720.91 145.521 721.037 145.459C721.293 145.334 721.526 145.183 721.694 144.937C721.792 144.793 721.84 144.785 722.217 144.732Z" fill="white"/>
<path d="M723.696 144.62C723.216 144.666 722.803 144.617 722.41 144.462C722.187 144.374 721.988 144.391 721.776 144.468C721.651 144.514 721.519 144.546 721.387 144.561C721.212 144.583 721.091 144.482 721.093 144.302C721.097 144.072 721.121 143.84 721.155 143.613C721.177 143.469 721.274 143.403 721.458 143.406C721.683 143.408 721.911 143.415 722.132 143.457C722.477 143.523 722.785 143.45 723.086 143.286C723.377 143.127 723.675 142.982 723.971 142.833C724.047 142.796 724.125 142.763 724.206 142.74C724.386 142.687 724.469 142.745 724.499 142.939C724.51 143.01 724.514 143.084 724.508 143.155C724.489 143.399 724.467 143.643 724.441 143.886C724.413 144.132 724.287 144.322 724.084 144.444C723.946 144.527 723.792 144.578 723.696 144.62Z" fill="white"/>
<path d="M731.053 144.817C731.098 145.164 730.982 145.456 730.769 145.715C730.696 145.804 730.606 145.826 730.506 145.775C730.347 145.695 730.182 145.623 730.038 145.522C729.592 145.209 729.101 145.064 728.569 145.028C728.318 145.012 728.067 144.966 727.821 144.909C727.589 144.855 727.512 144.725 727.52 144.481C727.529 144.213 727.612 143.969 727.776 143.764C727.849 143.672 727.947 143.593 728.048 143.534C728.201 143.446 728.292 143.469 728.387 143.627C728.552 143.9 728.795 144.062 729.07 144.19C729.618 144.445 730.189 144.584 730.789 144.592C730.997 144.594 731.029 144.626 731.053 144.817Z" fill="white"/>
<path d="M726.536 145.212C726.516 145.212 726.472 145.219 726.432 145.208C726.242 145.156 726.05 145.111 725.865 145.042C725.658 144.963 725.612 144.833 725.72 144.631C725.884 144.322 726.063 144.021 726.231 143.715C726.313 143.568 726.427 143.456 726.559 143.358C726.637 143.299 726.71 143.269 726.81 143.293C726.96 143.331 727.115 143.346 727.266 143.381C727.599 143.459 727.653 143.589 727.479 143.883C727.407 144.006 727.327 144.124 727.254 144.246C727.1 144.503 726.945 144.759 726.795 145.019C726.739 145.116 726.675 145.195 726.536 145.212Z" fill="white"/>
<path d="M727.195 145.069C727.949 145.485 728.738 145.548 729.524 145.623C729.559 145.626 729.594 145.623 729.629 145.627C729.798 145.644 729.84 145.68 729.861 145.823C729.885 145.993 729.834 146.113 729.687 146.144C729.53 146.178 729.366 146.195 729.206 146.185C728.637 146.148 728.069 146.1 727.501 146.048C727.362 146.035 727.22 146.004 727.09 145.956C726.887 145.88 726.806 145.696 726.901 145.5C726.974 145.349 727.09 145.221 727.195 145.069Z" fill="white"/>
<path d="M725.121 144.728C724.82 144.781 724.648 144.651 724.629 144.369C724.599 143.915 724.752 143.521 725.029 143.177C725.158 143.016 725.336 143.029 725.514 143.075C725.68 143.12 725.808 143.209 725.854 143.392C725.967 143.85 725.653 144.507 725.229 144.692C725.185 144.711 725.137 144.723 725.121 144.728Z" fill="white"/>
<path d="M724.266 144.876C724.239 144.72 724.29 144.665 724.438 144.7C724.567 144.73 724.696 144.772 724.82 144.82C725.157 144.948 725.49 145.089 725.828 145.21C725.993 145.268 726.168 145.295 726.338 145.335C726.393 145.348 726.45 145.351 726.503 145.368C726.649 145.413 726.712 145.496 726.692 145.612C726.671 145.74 726.553 145.851 726.425 145.833C726.161 145.796 725.892 145.771 725.639 145.691C725.277 145.576 724.929 145.415 724.573 145.278C724.383 145.206 724.311 145.05 724.266 144.876Z" fill="white"/>
<path d="M902.133 124.702C902.439 124.243 902.838 123.864 903.329 123.566C903.819 123.269 904.378 123.068 905.007 122.963C905.737 122.842 906.424 122.89 907.068 123.107C907.712 123.324 908.332 123.692 908.928 124.21L911.262 121.184C910.358 120.347 909.305 119.766 908.102 119.441C906.9 119.117 905.591 119.071 904.174 119.307C902.962 119.508 901.874 119.893 900.911 120.462C899.947 121.031 899.15 121.746 898.521 122.606C897.89 123.467 897.447 124.431 897.189 125.5C896.931 126.569 896.902 127.704 897.101 128.905C897.301 130.106 897.695 131.17 898.285 132.098C898.874 133.027 899.606 133.796 900.481 134.406C901.355 135.017 902.34 135.436 903.435 135.663C904.531 135.889 905.685 135.902 906.897 135.701C908.314 135.465 909.538 134.996 910.569 134.293C911.6 133.589 912.41 132.702 912.998 131.633L909.811 129.524C909.414 130.207 908.946 130.755 908.407 131.169C907.868 131.583 907.233 131.85 906.503 131.971C905.875 132.076 905.281 132.067 904.72 131.943C904.159 131.821 903.66 131.591 903.221 131.255C902.783 130.919 902.411 130.491 902.108 129.971C901.803 129.451 901.595 128.853 901.483 128.177C901.371 127.501 901.374 126.868 901.494 126.278C901.613 125.687 901.826 125.162 902.133 124.702Z" fill="white"/>
<path d="M920.453 126.599L921.584 121.231L924.389 125.945L920.453 126.599ZM918.754 117.209L914.604 134.096L919.029 133.361L919.716 130.1L926.219 129.02L927.923 131.884L932.436 131.135L923.027 116.499L918.754 117.209Z" fill="white"/>
<path d="M937.947 123.532L936.41 114.276L932.138 114.986L934.756 130.749L938.853 130.069L943.629 119.788L945.162 129.021L949.434 128.311L946.816 112.548L942.741 113.225L937.947 123.532Z" fill="white"/>
<path d="M962.443 113.585L961.878 110.046L950.64 111.912L953.258 127.676L957.53 126.966L955.499 114.738L962.443 113.585Z" fill="white"/>
<path d="M969.348 118.478L970.478 113.111L973.283 117.824L969.348 118.478ZM967.649 109.087L963.498 125.975L967.923 125.24L968.61 121.979L975.113 120.899L976.817 123.763L981.33 123.013L971.92 108.378L967.649 109.087Z" fill="white"/>
<path d="M993.38 121.012L998.265 120.2L992.072 112.863L995.603 104.444L991.047 105.201L988.414 111.932L986.324 112.28L985.306 106.154L980.991 106.871L983.609 122.635L987.925 121.918L986.922 115.883L988.904 115.554L993.38 121.012Z" fill="white"/>
<path d="M1022.11 110.047C1021.99 110.637 1021.77 111.162 1021.47 111.622C1021.16 112.081 1020.77 112.458 1020.3 112.752C1019.84 113.046 1019.31 113.241 1018.73 113.338C1018.14 113.435 1017.58 113.42 1017.04 113.294C1016.5 113.167 1016.01 112.936 1015.58 112.6C1015.14 112.264 1014.77 111.837 1014.46 111.316C1014.16 110.796 1013.95 110.199 1013.84 109.523C1013.72 108.833 1013.73 108.197 1013.85 107.613C1013.97 107.031 1014.18 106.51 1014.49 106.05C1014.79 105.591 1015.18 105.214 1015.65 104.92C1016.12 104.627 1016.65 104.431 1017.23 104.334C1017.81 104.237 1018.37 104.252 1018.91 104.378C1019.45 104.505 1019.94 104.736 1020.38 105.072C1020.82 105.408 1021.19 105.832 1021.49 106.344C1021.79 106.857 1022 107.458 1022.12 108.148C1022.23 108.824 1022.22 109.457 1022.11 110.047ZM1023.09 101.961C1022.21 101.344 1021.22 100.919 1020.12 100.684C1019.03 100.451 1017.86 100.436 1016.62 100.642C1015.39 100.846 1014.29 101.237 1013.32 101.814C1012.35 102.391 1011.55 103.115 1010.9 103.985C1010.26 104.855 1009.81 105.821 1009.55 106.881C1009.29 107.942 1009.26 109.066 1009.46 110.251C1009.66 111.437 1010.05 112.489 1010.64 113.409C1011.22 114.33 1011.96 115.097 1012.85 115.713C1013.74 116.328 1014.74 116.752 1015.84 116.985C1016.95 117.218 1018.11 117.233 1019.34 117.029C1020.58 116.823 1021.68 116.432 1022.64 115.856C1023.6 115.28 1024.4 114.561 1025.04 113.7C1025.68 112.839 1026.13 111.873 1026.39 110.803C1026.66 109.734 1026.69 108.607 1026.5 107.421C1026.3 106.236 1025.9 105.183 1025.31 104.264C1024.71 103.346 1023.97 102.578 1023.09 101.961Z" fill="white"/>
<path d="M1037.92 105.153C1037.54 105.632 1036.9 105.947 1036 106.097L1033.59 106.497L1032.82 101.883L1035.23 101.483C1036.14 101.333 1036.84 101.423 1037.36 101.754C1037.87 102.085 1038.19 102.619 1038.31 103.354C1038.43 104.074 1038.3 104.674 1037.92 105.153ZM1038.65 98.0234C1037.56 97.7271 1036.31 97.6947 1034.91 97.9274L1027.9 99.0913L1030.52 114.848L1034.86 114.128L1034.17 110.009L1036.84 109.565C1038.24 109.333 1039.41 108.896 1040.35 108.255C1041.29 107.613 1041.96 106.811 1042.37 105.848C1042.78 104.886 1042.89 103.812 1042.69 102.626C1042.49 101.426 1042.04 100.433 1041.34 99.647C1040.64 98.8616 1039.74 98.3204 1038.65 98.0234Z" fill="white"/>
<path d="M1056.99 94.2592L1043.33 96.5289L1043.92 100.063L1057.58 97.7935L1056.99 94.2592Z" fill="white"/>
<path d="M1072.25 101.718C1072.13 102.308 1071.92 102.833 1071.61 103.293C1071.31 103.752 1070.92 104.129 1070.45 104.422C1069.98 104.717 1069.46 104.912 1068.87 105.009C1068.29 105.106 1067.73 105.091 1067.19 104.964C1066.65 104.838 1066.16 104.607 1065.72 104.271C1065.28 103.935 1064.91 103.507 1064.61 102.987C1064.31 102.467 1064.1 101.869 1063.99 101.194C1063.87 100.504 1063.87 99.8678 1063.99 99.2842C1064.11 98.7019 1064.33 98.1804 1064.63 97.7209C1064.94 97.2615 1065.33 96.8849 1065.8 96.5906C1066.27 96.2975 1066.79 96.1019 1067.38 96.0048C1067.96 95.9079 1068.52 95.9229 1069.06 96.0486C1069.6 96.1756 1070.09 96.4067 1070.53 96.7425C1070.96 97.0783 1071.33 97.5027 1071.64 98.0148C1071.94 98.5282 1072.15 99.1291 1072.26 99.819C1072.37 100.495 1072.37 101.127 1072.25 101.718ZM1075.45 95.935C1074.86 95.0163 1074.12 94.2485 1073.24 93.6317C1072.35 93.0149 1071.37 92.5897 1070.27 92.355C1069.17 92.1214 1068 92.1068 1066.76 92.3129C1065.54 92.5166 1064.44 92.9076 1063.47 93.4844C1062.5 94.0622 1061.69 94.7856 1061.05 95.6558C1060.41 96.526 1059.96 97.4914 1059.7 98.552C1059.44 99.6127 1059.41 100.737 1059.61 101.921C1059.8 103.107 1060.19 104.16 1060.78 105.08C1061.37 106 1062.11 106.768 1063 107.384C1063.89 107.999 1064.89 108.423 1065.99 108.656C1067.09 108.889 1068.26 108.904 1069.49 108.7C1070.73 108.494 1071.83 108.103 1072.79 107.527C1073.75 106.951 1074.55 106.232 1075.19 105.371C1075.82 104.51 1076.28 103.544 1076.54 102.474C1076.8 101.405 1076.84 100.277 1076.64 99.0915C1076.45 97.9067 1076.05 96.8539 1075.45 95.935Z" fill="white"/>
<path d="M1053.28 103.191L1049.36 102.071C1049.43 101.81 1049.48 101.487 1049.38 100.898L1053.38 100.234C1053.56 101.307 1053.53 102.247 1053.28 103.191Z" fill="white"/>
<path d="M1049.25 107.971C1049.06 107.491 1048.92 106.977 1048.82 106.4C1048.73 105.819 1048.69 105.285 1048.72 104.767L1052.77 105.02C1052.76 105.227 1052.78 105.462 1052.82 105.736C1052.87 106.008 1052.93 106.234 1053.01 106.427L1049.25 107.971Z" fill="white"/>
<path d="M1055.13 110.76L1051.13 111.425C1051.03 110.836 1050.88 110.546 1050.73 110.321L1054.08 107.995C1054.62 108.808 1054.95 109.687 1055.13 110.76Z" fill="white"/>
<path d="M935.297 109.34C935.669 109.3 936.098 109.262 936.525 109.354C936.675 109.386 936.828 109.431 936.965 109.501C937.24 109.639 937.384 109.882 937.419 110.19C937.437 110.354 937.387 110.423 937.226 110.432C937.108 110.439 936.987 110.425 936.869 110.409C936.751 110.394 936.634 110.362 936.516 110.342C936.336 110.311 936.197 110.373 936.112 110.541C936.067 110.631 936.029 110.724 935.984 110.814C935.918 110.949 935.857 111.088 935.778 111.215C935.348 111.906 934.251 111.962 933.804 111.146C933.714 110.983 933.641 110.808 933.584 110.63C933.524 110.444 933.57 110.352 933.739 110.256C933.861 110.186 933.99 110.128 934.117 110.067C934.373 109.942 934.606 109.79 934.774 109.545C934.872 109.401 934.92 109.392 935.297 109.34Z" fill="white"/>
<path d="M936.776 109.228C936.296 109.274 935.883 109.225 935.49 109.069C935.267 108.981 935.068 108.999 934.856 109.076C934.731 109.121 934.599 109.153 934.467 109.169C934.292 109.19 934.171 109.089 934.173 108.909C934.177 108.679 934.201 108.448 934.236 108.22C934.257 108.076 934.354 108.01 934.538 108.013C934.763 108.016 934.991 108.022 935.212 108.064C935.557 108.13 935.865 108.057 936.166 107.893C936.458 107.735 936.755 107.589 937.051 107.441C937.127 107.403 937.205 107.371 937.286 107.347C937.466 107.295 937.549 107.352 937.579 107.547C937.59 107.618 937.594 107.692 937.589 107.763C937.569 108.007 937.548 108.25 937.521 108.494C937.493 108.74 937.367 108.929 937.164 109.051C937.026 109.134 936.872 109.185 936.776 109.228Z" fill="white"/>
<path d="M944.134 109.425C944.178 109.772 944.062 110.063 943.849 110.322C943.776 110.411 943.686 110.433 943.586 110.383C943.427 110.303 943.262 110.231 943.118 110.129C942.672 109.816 942.181 109.672 941.649 109.636C941.398 109.62 941.147 109.573 940.901 109.516C940.669 109.462 940.592 109.332 940.6 109.089C940.609 108.821 940.693 108.577 940.856 108.371C940.929 108.279 941.027 108.201 941.128 108.142C941.281 108.053 941.372 108.077 941.467 108.235C941.632 108.508 941.875 108.669 942.15 108.797C942.698 109.052 943.269 109.191 943.869 109.199C944.077 109.202 944.109 109.233 944.134 109.425Z" fill="white"/>
<path d="M939.616 109.82C939.596 109.819 939.552 109.826 939.512 109.815C939.322 109.763 939.13 109.718 938.945 109.649C938.738 109.571 938.692 109.44 938.8 109.239C938.964 108.93 939.143 108.629 939.312 108.323C939.393 108.176 939.507 108.064 939.639 107.965C939.718 107.906 939.79 107.876 939.89 107.901C940.04 107.939 940.195 107.953 940.346 107.988C940.679 108.067 940.733 108.196 940.559 108.49C940.487 108.614 940.407 108.731 940.334 108.854C940.18 109.11 940.025 109.367 939.875 109.626C939.819 109.723 939.755 109.803 939.616 109.82Z" fill="white"/>
<path d="M940.275 109.676C941.029 110.093 941.818 110.155 942.604 110.23C942.639 110.233 942.674 110.23 942.709 110.234C942.878 110.251 942.92 110.287 942.941 110.431C942.965 110.6 942.914 110.72 942.767 110.752C942.61 110.785 942.446 110.803 942.286 110.793C941.717 110.756 941.149 110.708 940.581 110.655C940.442 110.643 940.3 110.612 940.17 110.563C939.967 110.488 939.886 110.304 939.981 110.108C940.055 109.956 940.17 109.828 940.275 109.676Z" fill="white"/>
<path d="M938.201 109.336C937.9 109.388 937.728 109.258 937.709 108.976C937.679 108.522 937.832 108.128 938.109 107.784C938.238 107.624 938.416 107.636 938.594 107.683C938.76 107.727 938.888 107.816 938.934 107.999C939.047 108.458 938.733 109.114 938.309 109.299C938.265 109.319 938.217 109.33 938.201 109.336Z" fill="white"/>
<path d="M937.347 109.484C937.319 109.328 937.37 109.273 937.518 109.307C937.647 109.338 937.776 109.38 937.9 109.428C938.237 109.556 938.57 109.696 938.908 109.817C939.073 109.876 939.248 109.903 939.418 109.942C939.473 109.955 939.53 109.959 939.583 109.975C939.729 110.02 939.792 110.103 939.772 110.22C939.751 110.347 939.633 110.458 939.505 110.44C939.241 110.404 938.972 110.378 938.719 110.298C938.357 110.184 938.009 110.022 937.653 109.886C937.463 109.814 937.391 109.657 937.347 109.484Z" fill="white"/>
<path d="M1115.21 89.3095C1115.52 88.85 1115.92 88.471 1116.41 88.1737C1116.9 87.8763 1117.46 87.6753 1118.09 87.5708C1118.82 87.4496 1119.5 87.4975 1120.15 87.714C1120.79 87.9311 1121.41 88.2994 1122.01 88.817L1124.34 85.7915C1123.44 84.9542 1122.38 84.3735 1121.18 84.0481C1119.98 83.7239 1118.67 83.6788 1117.25 83.9142C1116.04 84.1156 1114.95 84.5008 1113.99 85.0694C1113.03 85.6386 1112.23 86.3534 1111.6 87.2131C1110.97 88.0742 1110.53 89.0389 1110.27 90.1071C1110.01 91.1764 1109.98 92.3112 1110.18 93.5121C1110.38 94.7131 1110.78 95.7776 1111.36 96.7055C1111.95 97.6341 1112.69 98.4032 1113.56 99.0135C1114.43 99.6246 1115.42 100.043 1116.52 100.27C1117.61 100.497 1118.76 100.51 1119.98 100.308C1121.39 100.073 1122.62 99.6035 1123.65 98.9C1124.68 98.196 1125.49 97.3099 1126.08 96.2402L1122.89 94.1317C1122.49 94.8144 1122.03 95.3628 1121.49 95.7764C1120.95 96.19 1120.31 96.4574 1119.58 96.5786C1118.95 96.683 1118.36 96.6741 1117.8 96.5508C1117.24 96.4281 1116.74 96.1988 1116.3 95.8625C1115.86 95.5267 1115.49 95.0988 1115.19 94.5781C1114.88 94.0581 1114.68 93.4599 1114.56 92.7844C1114.45 92.1088 1114.45 91.4755 1114.57 90.885C1114.69 90.2946 1114.91 89.769 1115.21 89.3095Z" fill="white"/>
<path d="M1133.53 91.2066L1134.66 85.8389L1137.47 90.5528L1133.53 91.2066ZM1131.83 81.8162L1127.68 98.7039L1132.11 97.9688L1132.8 94.7078L1139.3 93.6276L1141 96.4915L1145.52 95.7419L1136.11 81.1065L1131.83 81.8162Z" fill="white"/>
<path d="M1151.03 88.1389L1149.49 78.8837L1145.22 79.5933L1147.84 95.3567L1151.93 94.6761L1156.71 84.3954L1158.24 93.6281L1162.51 92.9186L1159.9 77.1552L1155.82 77.8321L1151.03 88.1389Z" fill="white"/>
<path d="M1175.52 78.192L1174.96 74.6529L1163.72 76.5196L1166.34 92.2829L1170.61 91.5734L1168.58 79.3455L1175.52 78.192Z" fill="white"/>
<path d="M1182.43 83.0852L1183.56 77.7181L1186.36 82.4315L1182.43 83.0852ZM1180.73 73.6948L1176.58 90.5825L1181 89.8474L1181.69 86.5864L1188.19 85.5062L1189.9 88.3702L1194.41 87.6205L1185 72.9852L1180.73 73.6948Z" fill="white"/>
<path d="M1206.46 85.6193L1211.35 84.8078L1205.15 77.4706L1208.68 69.0511L1204.13 69.808L1201.49 76.5398L1199.4 76.8869L1198.39 70.7614L1194.07 71.4782L1196.69 87.2422L1201 86.5254L1200 80.4902L1201.98 80.1611L1206.46 85.6193Z" fill="white"/>
<path d="M1235.19 74.6544C1235.07 75.2448 1234.85 75.7698 1234.55 76.2292C1234.24 76.6886 1233.85 77.0652 1233.38 77.3589C1232.92 77.6532 1232.39 77.8483 1231.81 77.9452C1231.22 78.0423 1230.66 78.0279 1230.12 77.9009C1229.58 77.7745 1229.09 77.5435 1228.66 77.2077C1228.22 76.8719 1227.85 76.444 1227.54 75.9237C1227.24 75.4037 1227.03 74.806 1226.92 74.1305C1226.8 73.4405 1226.81 72.8045 1226.93 72.2208C1227.05 71.6385 1227.26 71.117 1227.57 70.6575C1227.87 70.1981 1228.26 69.8215 1228.73 69.5273C1229.2 69.2341 1229.73 69.0385 1230.31 68.9415C1230.89 68.8446 1231.45 68.8595 1231.99 68.9853C1232.53 69.1122 1233.02 69.3432 1233.46 69.6791C1233.9 70.0149 1234.27 70.4394 1234.57 70.9515C1234.87 71.4647 1235.08 72.0657 1235.2 72.7556C1235.31 73.4312 1235.3 74.0639 1235.19 74.6544ZM1236.17 66.5683C1235.29 65.9515 1234.3 65.5263 1233.2 65.2916C1232.11 65.058 1230.94 65.0435 1229.7 65.2495C1228.47 65.4532 1227.37 65.8443 1226.4 66.421C1225.43 66.9988 1224.63 67.7223 1223.98 68.5924C1223.34 69.4626 1222.89 70.4281 1222.63 71.4887C1222.37 72.5494 1222.34 73.6731 1222.54 74.858C1222.74 76.0439 1223.13 77.0964 1223.72 78.0164C1224.3 78.937 1225.04 79.7047 1225.93 80.3203C1226.82 80.9353 1227.82 81.3598 1228.92 81.5928C1230.03 81.8257 1231.19 81.8403 1232.42 81.6366C1233.66 81.4306 1234.76 81.0395 1235.72 80.4634C1236.68 79.8874 1237.48 79.1686 1238.12 78.3071C1238.76 77.4462 1239.21 76.4808 1239.47 75.4108C1239.74 74.3415 1239.77 73.2141 1239.58 72.0282C1239.38 70.8434 1238.98 69.7904 1238.39 68.8716C1237.79 67.9529 1237.05 67.1851 1236.17 66.5683Z" fill="white"/>
<path d="M1251 69.7606C1250.62 70.2397 1249.98 70.5544 1249.08 70.7047L1246.67 71.1047L1245.9 66.4903L1248.31 66.0903C1249.22 65.94 1249.92 66.0304 1250.44 66.3615C1250.95 66.6927 1251.27 67.2259 1251.39 67.9613C1251.51 68.6818 1251.38 69.2815 1251 69.7606ZM1251.73 62.6308C1250.64 62.3345 1249.39 62.3021 1247.99 62.5348L1240.98 63.6987L1243.6 79.4557L1247.94 78.7355L1247.25 74.6166L1249.92 74.1729C1251.32 73.9401 1252.49 73.503 1253.43 72.862C1254.37 72.2204 1255.04 71.4186 1255.45 70.4558C1255.86 69.4936 1255.97 68.4198 1255.77 67.2338C1255.57 66.0335 1255.12 65.0404 1254.42 64.2544C1253.72 63.469 1252.82 62.9278 1251.73 62.6308Z" fill="white"/>
<path d="M1270.07 58.8666L1256.41 61.1363L1257 64.6706L1270.66 62.4009L1270.07 58.8666Z" fill="white"/>
<path d="M1285.33 66.3251C1285.21 66.9156 1285 67.4405 1284.69 67.9C1284.39 68.3595 1284 68.736 1283.53 69.0297C1283.06 69.324 1282.54 69.5191 1281.95 69.616C1281.37 69.7131 1280.81 69.6986 1280.27 69.5717C1279.73 69.4453 1279.24 69.2142 1278.8 68.8784C1278.36 68.5426 1277.99 68.1147 1277.69 67.5945C1277.39 67.0744 1277.18 66.4769 1277.07 65.8013C1276.95 65.1114 1276.95 64.4752 1277.07 63.8916C1277.19 63.3093 1277.41 62.7878 1277.71 62.3283C1278.02 61.8689 1278.41 61.4923 1278.88 61.198C1279.35 60.9049 1279.87 60.7093 1280.46 60.6122C1281.04 60.5153 1281.6 60.5303 1282.14 60.656C1282.68 60.783 1283.17 61.0141 1283.61 61.3499C1284.04 61.6857 1284.41 62.1101 1284.72 62.6222C1285.02 63.1355 1285.23 63.7365 1285.34 64.4264C1285.45 65.102 1285.45 65.7348 1285.33 66.3251ZM1288.53 60.5424C1287.94 59.6237 1287.2 58.8559 1286.32 58.2391C1285.43 57.6223 1284.45 57.1971 1283.35 56.9624C1282.25 56.7288 1281.08 56.7142 1279.84 56.9203C1278.62 57.124 1277.52 57.515 1276.55 58.0918C1275.58 58.6696 1274.77 59.393 1274.13 60.2632C1273.49 61.1334 1273.04 62.0988 1272.78 63.1594C1272.52 64.2201 1272.49 65.3439 1272.69 66.5287C1272.88 67.7147 1273.27 68.7672 1273.86 69.6871C1274.45 70.6077 1275.19 71.3755 1276.08 71.9911C1276.97 72.6061 1277.97 73.0307 1279.07 73.2636C1280.17 73.4965 1281.34 73.5111 1282.57 73.3074C1283.81 73.1013 1284.91 72.7102 1285.87 72.1342C1286.83 71.5581 1287.63 70.8394 1288.27 69.9779C1288.9 69.117 1289.36 68.1515 1289.62 67.0816C1289.88 66.0124 1289.92 64.8849 1289.72 63.6989C1289.53 62.5141 1289.13 61.4613 1288.53 60.5424Z" fill="white"/>
<path d="M1266.36 67.7985L1262.44 66.6788C1262.51 66.4178 1262.56 66.0949 1262.46 65.5056L1266.46 64.8414C1266.64 65.9146 1266.61 66.8542 1266.36 67.7985Z" fill="white"/>
<path d="M1262.33 72.578C1262.14 72.0981 1262 71.5843 1261.9 71.0072C1261.81 70.426 1261.77 69.8924 1261.8 69.3743L1265.85 69.6272C1265.84 69.8347 1265.86 70.069 1265.9 70.3429C1265.95 70.6151 1266.01 70.8411 1266.09 71.0341L1262.33 72.578Z" fill="white"/>
<path d="M1268.21 75.3677L1264.21 76.032C1264.11 75.4433 1263.96 75.1534 1263.81 74.9288L1267.16 72.6027C1267.7 73.4159 1268.03 74.2946 1268.21 75.3677Z" fill="white"/>
<path d="M1148.38 73.947C1148.75 73.9076 1149.18 73.8694 1149.6 73.9612C1149.76 73.9936 1149.91 74.0386 1150.05 74.108C1150.32 74.2462 1150.46 74.4889 1150.5 74.7978C1150.52 74.9615 1150.47 75.0307 1150.31 75.0397C1150.19 75.0468 1150.07 75.0321 1149.95 75.0168C1149.83 75.001 1149.71 74.9695 1149.6 74.9495C1149.42 74.9185 1149.28 74.98 1149.19 75.1485C1149.15 75.2382 1149.11 75.3313 1149.06 75.4216C1149 75.5562 1148.94 75.6953 1148.86 75.8219C1148.43 76.5135 1147.33 76.5698 1146.88 75.7536C1146.79 75.5905 1146.72 75.4152 1146.66 75.2378C1146.6 75.0515 1146.65 74.9593 1146.82 74.8633C1146.94 74.7939 1147.07 74.7358 1147.2 74.6739C1147.45 74.5491 1147.69 74.3976 1147.85 74.1521C1147.95 74.008 1148 73.9994 1148.38 73.947Z" fill="white"/>
<path d="M1149.86 73.835C1149.38 73.881 1148.96 73.832 1148.57 73.6767C1148.35 73.5884 1148.15 73.606 1147.94 73.6832C1147.81 73.7288 1147.68 73.7609 1147.55 73.7762C1147.37 73.7976 1147.25 73.6965 1147.25 73.5164C1147.26 73.2863 1147.28 73.0552 1147.32 72.8278C1147.34 72.6835 1147.43 72.6178 1147.62 72.6203C1147.84 72.6231 1148.07 72.6296 1148.29 72.6716C1148.64 72.7373 1148.95 72.6648 1149.25 72.5006C1149.54 72.3423 1149.83 72.1965 1150.13 72.0479C1150.21 72.0106 1150.29 71.978 1150.37 71.9545C1150.55 71.9022 1150.63 71.9593 1150.66 72.1542C1150.67 72.2252 1150.67 72.299 1150.67 72.3702C1150.65 72.6141 1150.63 72.8578 1150.6 73.1011C1150.57 73.347 1150.45 73.5363 1150.24 73.6588C1150.11 73.7414 1149.95 73.7926 1149.86 73.835Z" fill="white"/>
<path d="M1157.21 74.0322C1157.26 74.379 1157.14 74.6703 1156.93 74.9297C1156.86 75.0187 1156.77 75.0408 1156.67 74.9901C1156.51 74.9099 1156.34 74.838 1156.2 74.7366C1155.75 74.4233 1155.26 74.279 1154.73 74.2433C1154.48 74.227 1154.23 74.1806 1153.98 74.1233C1153.75 74.0696 1153.67 73.9393 1153.68 73.6961C1153.69 73.428 1153.77 73.184 1153.94 72.9783C1154.01 72.8864 1154.11 72.808 1154.21 72.7492C1154.36 72.6605 1154.45 72.6839 1154.55 72.842C1154.71 73.1149 1154.96 73.2768 1155.23 73.4044C1155.78 73.6593 1156.35 73.7986 1156.95 73.8065C1157.16 73.8092 1157.19 73.8405 1157.21 74.0322Z" fill="white"/>
<path d="M1152.7 74.4271C1152.68 74.4268 1152.63 74.4335 1152.59 74.4224C1152.4 74.3706 1152.21 74.3257 1152.03 74.2564C1151.82 74.178 1151.77 74.0477 1151.88 73.8459C1152.04 73.5372 1152.22 73.2361 1152.39 72.9302C1152.47 72.783 1152.59 72.6712 1152.72 72.5724C1152.8 72.5139 1152.87 72.4836 1152.97 72.5082C1153.12 72.546 1153.28 72.5605 1153.43 72.5957C1153.76 72.6741 1153.81 72.8035 1153.64 73.0978C1153.57 73.2209 1153.49 73.3389 1153.41 73.4611C1153.26 73.7178 1153.11 73.9742 1152.95 74.2333C1152.9 74.3307 1152.83 74.4099 1152.7 74.4271Z" fill="white"/>
<path d="M1153.36 74.2835C1154.11 74.7001 1154.9 74.7624 1155.68 74.8375C1155.72 74.8406 1155.75 74.8377 1155.79 74.8413C1155.96 74.8583 1156 74.8944 1156.02 75.0382C1156.05 75.2074 1155.99 75.3277 1155.85 75.3592C1155.69 75.3923 1155.53 75.4102 1155.37 75.4C1154.8 75.3632 1154.23 75.3151 1153.66 75.2623C1153.52 75.2499 1153.38 75.219 1153.25 75.1703C1153.05 75.0952 1152.97 74.9111 1153.06 74.715C1153.13 74.5639 1153.25 74.4353 1153.36 74.2835Z" fill="white"/>
<path d="M1151.28 73.9431C1150.98 73.9954 1150.81 73.8655 1150.79 73.5836C1150.76 73.1297 1150.91 72.7354 1151.19 72.3914C1151.32 72.231 1151.5 72.2435 1151.67 72.2902C1151.84 72.3346 1151.97 72.4233 1152.01 72.6068C1152.13 73.0651 1151.81 73.7216 1151.39 73.9067C1151.34 73.9259 1151.3 73.9374 1151.28 73.9431Z" fill="white"/>
<path d="M1150.43 74.091C1150.4 73.9352 1150.45 73.8802 1150.6 73.9147C1150.73 73.9452 1150.86 73.9872 1150.98 74.035C1151.32 74.163 1151.65 74.3035 1151.99 74.4246C1152.15 74.483 1152.33 74.5102 1152.5 74.5499C1152.55 74.5627 1152.61 74.5662 1152.66 74.5828C1152.81 74.6277 1152.87 74.7107 1152.85 74.827C1152.83 74.9546 1152.71 75.0653 1152.58 75.0475C1152.32 75.0109 1152.05 74.9853 1151.8 74.9055C1151.44 74.7912 1151.09 74.6296 1150.73 74.4931C1150.54 74.421 1150.47 74.2645 1150.43 74.091Z" fill="white"/>
<path d="M1328.29 53.9169C1328.6 53.4574 1329 53.0784 1329.49 52.781C1329.98 52.4837 1330.54 52.2826 1331.17 52.1782C1331.9 52.057 1332.58 52.1049 1333.23 52.3214C1333.87 52.5384 1334.49 52.9068 1335.09 53.4244L1337.42 50.3989C1336.52 49.5616 1335.46 48.9809 1334.26 48.6555C1333.06 48.3313 1331.75 48.2862 1330.33 48.5215C1329.12 48.7229 1328.03 49.1082 1327.07 49.6768C1326.11 50.246 1325.31 50.9608 1324.68 51.8205C1324.05 52.6816 1323.61 53.6463 1323.35 54.7144C1323.09 55.7838 1323.06 56.9186 1323.26 58.1195C1323.46 59.3204 1323.86 60.3849 1324.44 61.3129C1325.03 62.2415 1325.77 63.0105 1326.64 63.6209C1327.51 64.232 1328.5 64.6508 1329.6 64.8774C1330.69 65.104 1331.84 65.117 1333.06 64.9156C1334.47 64.6802 1335.7 64.2109 1336.73 63.5074C1337.76 62.8033 1338.57 61.9172 1339.16 60.8476L1335.97 58.7391C1335.57 59.4218 1335.11 59.9701 1334.57 60.3838C1334.03 60.7974 1333.39 61.0648 1332.66 61.186C1332.03 61.2904 1331.44 61.2815 1330.88 61.1582C1330.32 61.0354 1329.82 60.8062 1329.38 60.4699C1328.94 60.1341 1328.57 59.7062 1328.27 59.1855C1327.96 58.6654 1327.76 58.0673 1327.64 57.3917C1327.53 56.7162 1327.53 56.0829 1327.65 55.4924C1327.77 54.9019 1327.99 54.3764 1328.29 53.9169Z" fill="white"/>
<path d="M1346.61 55.8139L1347.74 50.4463L1350.55 55.1602L1346.61 55.8139ZM1344.91 46.4236L1340.76 63.3112L1345.19 62.5762L1345.88 59.3152L1352.38 58.235L1354.08 61.0988L1358.6 60.3493L1349.19 45.7139L1344.91 46.4236Z" fill="white"/>
<path d="M1364.11 52.7463L1362.57 43.4911L1358.3 44.2007L1360.92 59.964L1365.01 59.2835L1369.79 49.0027L1371.32 58.2355L1375.59 57.526L1372.98 41.7626L1368.9 42.4394L1364.11 52.7463Z" fill="white"/>
<path d="M1388.6 42.7994L1388.04 39.2603L1376.8 41.127L1379.42 56.8903L1383.69 56.1808L1381.66 43.9529L1388.6 42.7994Z" fill="white"/>
<path d="M1395.51 47.6926L1396.64 42.3255L1399.44 47.0389L1395.51 47.6926ZM1393.81 38.3022L1389.66 55.1898L1394.08 54.4548L1394.77 51.1938L1401.27 50.1136L1402.98 52.9775L1407.49 52.2279L1398.08 37.5926L1393.81 38.3022Z" fill="white"/>
<path d="M1419.54 50.2266L1424.43 49.4152L1418.23 42.078L1421.76 33.6585L1417.21 34.4154L1414.57 41.1472L1412.48 41.4943L1411.47 35.3688L1407.15 36.0856L1409.77 51.8495L1414.08 51.1327L1413.08 45.0976L1415.06 44.7685L1419.54 50.2266Z" fill="white"/>
<path d="M1448.27 39.2617C1448.15 39.8522 1447.93 40.3772 1447.63 40.8366C1447.32 41.296 1446.93 41.6726 1446.46 41.9663C1446 42.2606 1445.47 42.4557 1444.89 42.5526C1444.3 42.6497 1443.74 42.6352 1443.2 42.5083C1442.66 42.3819 1442.17 42.1508 1441.74 41.8151C1441.3 41.4793 1440.93 41.0513 1440.62 40.5311C1440.32 40.0111 1440.11 39.4134 1440 38.7378C1439.88 38.0479 1439.89 37.4118 1440.01 36.8282C1440.13 36.2459 1440.34 35.7244 1440.65 35.2649C1440.95 34.8055 1441.34 34.4288 1441.81 34.1346C1442.28 33.8415 1442.81 33.6459 1443.39 33.5488C1443.97 33.452 1444.54 33.4669 1445.07 33.5927C1445.61 33.7196 1446.1 33.9506 1446.54 34.2865C1446.98 34.6223 1447.35 35.0467 1447.65 35.5588C1447.95 36.0721 1448.16 36.6731 1448.28 37.363C1448.39 38.0386 1448.38 38.6713 1448.27 39.2617ZM1449.25 31.1757C1448.37 30.5589 1447.38 30.1337 1446.28 29.8989C1445.19 29.6654 1444.02 29.6508 1442.78 29.8569C1441.55 30.0606 1440.45 30.4516 1439.48 31.0284C1438.51 31.6062 1437.71 32.3297 1437.06 33.1998C1436.42 34.07 1435.97 35.0354 1435.71 36.096C1435.45 37.1567 1435.42 38.2805 1435.62 39.4653C1435.82 40.6513 1436.21 41.7038 1436.8 42.6237C1437.38 43.5443 1438.12 44.3121 1439.01 44.9277C1439.9 45.5427 1440.9 45.9672 1442 46.2002C1443.11 46.4331 1444.27 46.4477 1445.5 46.244C1446.74 46.0379 1447.84 45.6468 1448.8 45.0707C1449.76 44.4947 1450.56 43.776 1451.2 42.9145C1451.84 42.0536 1452.29 41.0882 1452.55 40.0182C1452.82 38.9489 1452.85 37.8215 1452.66 36.6355C1452.46 35.4507 1452.06 34.3978 1451.47 33.479C1450.87 32.5603 1450.13 31.7925 1449.25 31.1757Z" fill="white"/>
<path d="M1361.46 38.5544C1361.83 38.5149 1362.26 38.4768 1362.68 38.5685C1362.84 38.6009 1362.99 38.646 1363.13 38.7154C1363.4 38.8536 1363.54 39.0963 1363.58 39.4051C1363.6 39.5689 1363.55 39.6381 1363.39 39.6471C1363.27 39.6542 1363.15 39.6394 1363.03 39.6242C1362.91 39.6083 1362.79 39.5769 1362.68 39.5568C1362.5 39.5258 1362.36 39.5874 1362.27 39.7559C1362.23 39.8456 1362.19 39.9387 1362.14 40.0289C1362.08 40.1636 1362.02 40.3026 1361.94 40.4293C1361.51 41.1209 1360.41 41.1772 1359.96 40.361C1359.87 40.1978 1359.8 40.0226 1359.74 39.8452C1359.68 39.6588 1359.73 39.5667 1359.9 39.4707C1360.02 39.4012 1360.15 39.3432 1360.28 39.2813C1360.53 39.1565 1360.77 39.005 1360.93 38.7594C1361.03 38.6153 1361.08 38.6068 1361.46 38.5544Z" fill="white"/>
<path d="M1362.94 38.4424C1362.46 38.4884 1362.04 38.4394 1361.65 38.2841C1361.43 38.1958 1361.23 38.2134 1361.02 38.2906C1360.89 38.3362 1360.76 38.3683 1360.63 38.3836C1360.45 38.4049 1360.33 38.3039 1360.33 38.1238C1360.34 37.8937 1360.36 37.6626 1360.4 37.4352C1360.42 37.2909 1360.51 37.2252 1360.7 37.2276C1360.92 37.2305 1361.15 37.2369 1361.37 37.279C1361.72 37.3447 1362.03 37.2721 1362.33 37.108C1362.62 36.9496 1362.92 36.8039 1363.21 36.6553C1363.29 36.6179 1363.37 36.5854 1363.45 36.5619C1363.63 36.5096 1363.71 36.5667 1363.74 36.7616C1363.75 36.8325 1363.75 36.9063 1363.75 36.9776C1363.73 37.2215 1363.71 37.4652 1363.68 37.7085C1363.65 37.9543 1363.53 38.1437 1363.32 38.2662C1363.19 38.3488 1363.03 38.3999 1362.94 38.4424Z" fill="white"/>
<path d="M1370.29 38.6396C1370.34 38.9864 1370.22 39.2777 1370.01 39.5371C1369.94 39.6261 1369.85 39.6482 1369.75 39.5975C1369.59 39.5173 1369.42 39.4454 1369.28 39.344C1368.83 39.0307 1368.34 38.8864 1367.81 38.8506C1367.56 38.8344 1367.31 38.788 1367.06 38.7307C1366.83 38.677 1366.75 38.5467 1366.76 38.3035C1366.77 38.0354 1366.85 37.7914 1367.02 37.5857C1367.09 37.4938 1367.19 37.4154 1367.29 37.3566C1367.44 37.2679 1367.53 37.2913 1367.63 37.4493C1367.79 37.7223 1368.04 37.8842 1368.31 38.0117C1368.86 38.2666 1369.43 38.406 1370.03 38.4138C1370.24 38.4166 1370.27 38.4479 1370.29 38.6396Z" fill="white"/>
<path d="M1365.78 39.0344C1365.76 39.0341 1365.71 39.0409 1365.67 39.0298C1365.48 38.9779 1365.29 38.9331 1365.11 38.8638C1364.9 38.7853 1364.85 38.6551 1364.96 38.4533C1365.12 38.1446 1365.3 37.8435 1365.47 37.5375C1365.55 37.3904 1365.67 37.2786 1365.8 37.1798C1365.88 37.1212 1365.95 37.0909 1366.05 37.1156C1366.2 37.1533 1366.36 37.1678 1366.51 37.2031C1366.84 37.2815 1366.89 37.4109 1366.72 37.7052C1366.65 37.8283 1366.57 37.9462 1366.49 38.0684C1366.34 38.3252 1366.19 38.5815 1366.04 38.8406C1365.98 38.9381 1365.91 39.0173 1365.78 39.0344Z" fill="white"/>
<path d="M1366.44 38.8909C1367.19 39.3075 1367.98 39.3697 1368.76 39.4449C1368.8 39.448 1368.83 39.4451 1368.87 39.4487C1369.04 39.4657 1369.08 39.5018 1369.1 39.6456C1369.13 39.8148 1369.07 39.9351 1368.93 39.9666C1368.77 39.9997 1368.61 40.0175 1368.45 40.0074C1367.88 39.9706 1367.31 39.9225 1366.74 39.8697C1366.6 39.8573 1366.46 39.8264 1366.33 39.7777C1366.13 39.7026 1366.05 39.5185 1366.14 39.3224C1366.21 39.1712 1366.33 39.0427 1366.44 38.8909Z" fill="white"/>
<path d="M1364.36 38.5504C1364.06 38.6028 1363.89 38.4729 1363.87 38.191C1363.84 37.7371 1363.99 37.3428 1364.27 36.9988C1364.4 36.8383 1364.58 36.8508 1364.75 36.8976C1364.92 36.942 1365.05 37.0307 1365.09 37.2142C1365.21 37.6725 1364.89 38.329 1364.47 38.5141C1364.43 38.5333 1364.38 38.5448 1364.36 38.5504Z" fill="white"/>
<path d="M1363.51 38.6983C1363.48 38.5426 1363.53 38.4876 1363.68 38.522C1363.81 38.5526 1363.94 38.5945 1364.06 38.6424C1364.4 38.7703 1364.73 38.9109 1365.07 39.032C1365.23 39.0904 1365.41 39.1176 1365.58 39.1572C1365.63 39.1701 1365.69 39.1736 1365.74 39.1902C1365.89 39.2351 1365.95 39.3181 1365.93 39.4343C1365.91 39.562 1365.79 39.6727 1365.67 39.6549C1365.4 39.6183 1365.13 39.5927 1364.88 39.5128C1364.52 39.3986 1364.17 39.237 1363.81 39.1004C1363.62 39.0284 1363.55 38.8719 1363.51 38.6983Z" fill="white"/>
</g>
<defs>
<clipPath id="clip0_63_1732">
<rect width="1694" height="51" fill="white" transform="translate(-173 277.57) rotate(-9.43073)"/>
</clipPath>
</defs>
</svg>
