<svg width="1440" height="278" viewBox="0 0 1440 278" fill="none" xmlns="http://www.w3.org/2000/svg">
<g clip-path="url(#clip0_63_2161)">
<rect width="1694" height="51" transform="translate(-143.172 0.00012207) rotate(7.69533)" fill="#00A5A5"/>
<path d="M-5.44248 47.1973C-5.9451 47.5438 -6.65078 47.6556 -7.5601 47.5327L-9.97933 47.2059L-9.35298 42.5704L-6.93375 42.8973C-6.02443 43.0201 -5.37373 43.3153 -4.98109 43.7827C-4.58901 44.2501 -4.4426 44.8532 -4.54242 45.5919C-4.64022 46.3157 -4.94042 46.8508 -5.44248 47.1973ZM-2.64684 40.5982C-3.60327 39.9934 -4.78518 39.5953 -6.19274 39.4051L-13.2322 38.4539L-15.3711 54.2829L-11.0151 54.8715L-10.456 50.7338L-7.7725 51.0964C-6.36494 51.2866 -5.11928 51.213 -4.03562 50.8761C-2.95187 50.5387 -2.07287 49.9706 -1.3974 49.1713C-0.722012 48.3726 -0.303584 47.3778 -0.142601 46.1864C0.0203339 44.9806 -0.117526 43.8989 -0.55562 42.9415C-0.993792 41.9847 -1.69049 41.2036 -2.64684 40.5982Z" fill="white"/>
<path d="M15.9919 42.4029L2.2649 40.548L1.78516 44.0985L15.5121 45.9533L15.9919 42.4029Z" fill="white"/>
<path d="M28.3766 54.0234C28.0887 54.5525 27.7305 54.9915 27.3025 55.3404C26.8746 55.6893 26.3936 55.9351 25.859 56.0777C25.3243 56.2209 24.7634 56.2523 24.1775 56.1731C23.5904 56.0938 23.0586 55.9148 22.581 55.6348C22.1034 55.3554 21.7049 54.9908 21.3849 54.5408C21.0649 54.0908 20.8361 53.5725 20.6994 52.9861C20.5617 52.3994 20.5389 51.7671 20.6306 51.0885C20.7242 50.3954 20.9145 49.7883 21.2021 49.2662C21.4884 48.7452 21.8461 48.3097 22.274 47.9607C22.702 47.6118 23.183 47.366 23.7177 47.2229C24.2522 47.0808 24.8126 47.0488 25.3997 47.1282C25.9856 47.2073 26.5179 47.387 26.9956 47.6658C27.4731 47.9457 27.8717 48.3104 28.1916 48.7603C28.5116 49.2103 28.741 49.7251 28.8793 50.3036C29.0168 50.8831 29.0397 51.519 28.9461 52.2121C28.8544 52.8907 28.664 53.4942 28.3766 54.0234ZM33.14 49.4402C32.8414 48.3868 32.3612 47.4355 31.6995 46.5862C31.0378 45.7368 30.2176 45.0392 29.2385 44.4919C28.2598 43.9459 27.147 43.5877 25.9008 43.4193C24.6687 43.2528 23.5046 43.3033 22.4082 43.569C21.3117 43.8358 20.3284 44.2898 19.4577 44.932C18.587 45.5743 17.8716 46.3641 17.3121 47.3015C16.7519 48.2388 16.3922 49.3038 16.2313 50.4941C16.0704 51.6854 16.1347 52.8066 16.426 53.859C16.7166 54.9119 17.1968 55.8632 17.8658 56.7135C18.5349 57.5632 19.3623 58.2625 20.3488 58.8101C21.3353 59.3578 22.4443 59.7149 23.6764 59.8813C24.9226 60.0497 26.0905 60.0004 27.1791 59.7331C28.2683 59.4658 29.2437 59.0143 30.1061 58.3786C30.9684 57.7435 31.6838 56.9537 32.2523 56.0092C32.8197 55.0652 33.1849 53.998 33.3459 52.8066C33.5067 51.6164 33.4374 50.4934 33.14 49.4402Z" fill="white"/>
<path d="M9.81202 49.8449L6.39792 47.6213C6.54054 47.3921 6.68388 47.0984 6.76386 46.5064L10.7813 47.0493C10.6356 48.1274 10.3278 49.0158 9.81202 49.8449Z" fill="white"/>
<path d="M4.55341 53.2259C4.513 52.7113 4.53107 52.1793 4.60941 51.5995C4.6883 51.0156 4.8124 50.4956 4.98993 50.0081L8.78775 51.443C8.7167 51.6382 8.66401 51.8672 8.62683 52.1423C8.58989 52.4157 8.58009 52.6493 8.59677 52.8564L4.55341 53.2259Z" fill="white"/>
<path d="M9.35387 57.6238L5.33644 57.0809C5.41635 56.4896 5.35676 56.1678 5.2795 55.9089L9.16132 54.6711C9.4385 55.6074 9.49954 56.5457 9.35387 57.6238Z" fill="white"/>
<path d="M73.0862 54.8164C73.5146 54.4675 74.007 54.2227 74.5635 54.083C75.1201 53.9434 75.7136 53.9159 76.3451 54.0012C77.0784 54.1003 77.7206 54.3483 78.2723 54.7449C78.8239 55.142 79.3077 55.6765 79.7256 56.3468L82.8469 54.1428C82.2295 53.0764 81.3935 52.2112 80.3404 51.5462C79.2872 50.8824 78.0493 50.4537 76.626 50.2614C75.4079 50.0968 74.2551 50.1447 73.1669 50.4044C72.0787 50.6647 71.1065 51.1131 70.2516 51.7493C69.3953 52.3864 68.6877 53.1778 68.1265 54.1227C67.5652 55.0687 67.2034 56.1446 67.0404 57.351C66.8774 58.5574 66.9407 59.6908 67.2309 60.7513C67.521 61.8123 67.9932 62.7626 68.6498 63.6036C69.3051 64.445 70.1234 65.1353 71.1036 65.6745C72.0838 66.2137 73.1826 66.5658 74.4007 66.7304C75.824 66.9227 77.1317 66.8345 78.3245 66.466C79.5173 66.0968 80.5523 65.4885 81.4286 64.6392L79.0041 61.6858C78.4233 62.2213 77.8151 62.6076 77.1779 62.8441C76.5407 63.0805 75.8557 63.1493 75.1224 63.0502C74.4909 62.9648 73.9259 62.7814 73.4264 62.4985C72.9269 62.2161 72.5171 61.85 72.1966 61.3993C71.8767 60.9494 71.6478 60.4311 71.5107 59.8439C71.3729 59.2573 71.3502 58.6244 71.4419 57.9458C71.5336 57.2671 71.7235 56.663 72.012 56.1339C72.2999 55.6048 72.6582 55.1653 73.0862 54.8164Z" fill="white"/>
<path d="M90.0383 62.0245L92.6997 57.2279L93.9921 62.5588L90.0383 62.0245ZM91.1799 52.5502L82.2402 67.4668L86.6856 68.0675L88.3025 65.1533L94.8353 66.0361L95.6208 69.2748L100.154 69.8873L95.4717 53.1301L91.1799 52.5502Z" fill="white"/>
<path d="M107.658 64.2442L108.914 54.9467L104.622 54.3668L102.482 70.2022L106.598 70.7583L114.19 62.3398L112.936 71.6148L117.228 72.1946L119.368 56.3592L115.274 55.8061L107.658 64.2442Z" fill="white"/>
<path d="M133.998 61.9523L134.5 58.4036L123.21 56.8781L121.07 72.7135L125.362 73.2934L127.021 61.0096L133.998 61.9523Z" fill="white"/>
<path d="M139.155 68.6615L141.816 63.8653L143.109 69.1957L139.155 68.6615ZM140.297 59.1872L131.357 74.1038L135.803 74.7044L137.42 71.7903L143.952 72.673L144.737 75.9117L149.271 76.5243L144.588 59.767L140.297 59.1872Z" fill="white"/>
<path d="M161.376 78.1598L166.283 78.8229L162.526 69.9875L168.379 62.981L163.802 62.3625L159.303 68.0204L157.204 67.7368L158.035 61.5833L153.7 60.9975L151.561 76.8335L155.896 77.4193L156.715 71.3566L158.706 71.6256L161.376 78.1598Z" fill="white"/>
<path d="M192.056 76.1401C191.768 76.6693 191.41 77.1082 190.982 77.4571C190.555 77.8061 190.073 78.0518 189.539 78.1944C189.004 78.3376 188.443 78.369 187.857 78.2898C187.27 78.2105 186.738 78.0315 186.261 77.7515C185.784 77.4722 185.385 77.1075 185.065 76.6575C184.745 76.2076 184.516 75.6893 184.379 75.1028C184.241 74.5162 184.219 73.8839 184.311 73.2053C184.404 72.5122 184.594 71.9051 184.882 71.383C185.168 70.8619 185.526 70.4264 185.954 70.0775C186.382 69.7285 186.863 69.4828 187.397 69.3396C187.932 69.1975 188.492 69.1655 189.079 69.2449C189.665 69.324 190.198 69.5037 190.675 69.7825C191.153 70.0625 191.552 70.4272 191.871 70.8771C192.191 71.327 192.421 71.8419 192.559 72.4203C192.697 72.9999 192.719 73.6357 192.626 74.3288C192.534 75.0075 192.344 75.611 192.056 76.1401ZM195.379 68.7029C194.718 67.8536 193.897 67.1559 192.919 66.6087C191.94 66.0626 190.827 65.7044 189.58 65.536C188.348 65.3695 187.184 65.42 186.088 65.6857C184.992 65.9526 184.008 66.4065 183.137 67.0487C182.267 67.691 181.551 68.4808 180.992 69.4182C180.432 70.3555 180.072 71.4205 179.911 72.6108C179.75 73.8021 179.814 74.9233 180.106 75.9757C180.396 77.0286 180.876 77.9799 181.545 78.8302C182.215 79.6799 183.043 80.3792 184.028 80.9268C185.015 81.4745 186.124 81.8316 187.356 81.9981C188.602 82.1664 189.77 82.1171 190.859 81.8498C191.948 81.5826 192.923 81.131 193.786 80.4953C194.648 79.8602 195.363 79.0704 195.932 78.126C196.5 77.182 196.865 76.1147 197.026 74.9233C197.186 73.7331 197.118 72.6101 196.82 71.5569C196.521 70.5035 196.041 69.5522 195.379 68.7029Z" fill="white"/>
<path d="M208.612 76.1208C208.11 76.4673 207.404 76.5791 206.495 76.4563L204.075 76.1294L204.702 71.4939L207.121 71.8208C208.03 71.9437 208.681 72.2388 209.074 72.7062C209.466 73.1736 209.612 73.7767 209.512 74.5155C209.414 75.2392 209.114 75.7743 208.612 76.1208ZM211.408 69.5217C210.451 68.9169 209.27 68.5188 207.862 68.3286L200.822 67.3774L198.684 83.2065L203.04 83.7951L203.599 79.6573L206.282 80.0199C207.69 80.2101 208.935 80.1365 210.019 79.7997C211.103 79.4623 211.982 78.8941 212.657 78.0948C213.333 77.2961 213.751 76.3014 213.912 75.11C214.075 73.9041 213.937 72.8225 213.499 71.865C213.061 70.9082 212.364 70.1271 211.408 69.5217Z" fill="white"/>
<path d="M230.047 71.3264L216.32 69.4716L215.84 73.022L229.567 74.8768L230.047 71.3264Z" fill="white"/>
<path d="M242.431 82.947C242.143 83.4761 241.785 83.915 241.357 84.2639C240.929 84.6128 240.448 84.8586 239.914 85.0012C239.379 85.1444 238.818 85.1758 238.232 85.0966C237.645 85.0173 237.113 84.8383 236.636 84.5583C236.158 84.2789 235.76 83.9143 235.44 83.4643C235.12 83.0144 234.891 82.4961 234.754 81.9096C234.616 81.323 234.594 80.6907 234.685 80.012C234.779 79.3189 234.969 78.7119 235.257 78.1898C235.543 77.6687 235.901 77.2332 236.329 76.8843C236.757 76.5354 237.238 76.2896 237.772 76.1464C238.307 76.0044 238.867 75.9723 239.454 76.0517C240.04 76.1309 240.573 76.3105 241.05 76.5893C241.528 76.8693 241.926 77.2339 242.246 77.6839C242.566 78.1338 242.796 78.6487 242.934 79.2271C243.072 79.8067 243.094 80.4425 243.001 81.1356C242.909 81.8143 242.719 82.4178 242.431 82.947ZM247.195 78.3637C246.896 77.3103 246.416 76.359 245.754 75.5097C245.093 74.6604 244.272 73.9627 243.293 73.4154C242.315 72.8694 241.202 72.5112 239.955 72.3428C238.723 72.1764 237.559 72.2268 236.463 72.4925C235.366 72.7593 234.383 73.2133 233.512 73.8555C232.642 74.4978 231.926 75.2876 231.367 76.225C230.807 77.1623 230.447 78.2273 230.286 79.4176C230.125 80.609 230.189 81.7301 230.481 82.7825C230.771 83.8354 231.251 84.7867 231.92 85.637C232.59 86.4867 233.417 87.186 234.403 87.7337C235.39 88.2813 236.499 88.6384 237.731 88.8049C238.977 88.9733 240.145 88.9239 241.234 88.6566C242.323 88.3894 243.298 87.9379 244.161 87.3021C245.023 86.667 245.738 85.8772 246.307 84.9328C246.874 83.9888 247.24 82.9215 247.401 81.7301C247.561 80.5399 247.492 79.4169 247.195 78.3637Z" fill="white"/>
<path d="M223.867 78.7684L220.453 76.5448C220.595 76.3157 220.739 76.0219 220.819 75.4299L224.836 75.9728C224.69 77.0509 224.382 77.9393 223.867 78.7684Z" fill="white"/>
<path d="M218.608 82.1494C218.568 81.6348 218.586 81.1028 218.664 80.523C218.743 79.9391 218.867 79.4191 219.045 78.9316L222.842 80.3665C222.771 80.5618 222.719 80.7907 222.682 81.0658C222.645 81.3393 222.635 81.5728 222.651 81.7799L218.608 82.1494Z" fill="white"/>
<path d="M223.409 86.5473L219.391 86.0044C219.471 85.4131 219.411 85.0913 219.334 84.8325L223.216 83.5947C223.493 84.5309 223.554 85.4692 223.409 86.5473Z" fill="white"/>
<path d="M109.305 49.9011C109.673 49.9731 110.094 50.063 110.475 50.2763C110.609 50.3515 110.741 50.4395 110.852 50.5463C111.074 50.7593 111.141 51.0338 111.083 51.3391C111.052 51.5009 110.984 51.5523 110.827 51.5136C110.713 51.4857 110.601 51.4359 110.493 51.3865C110.385 51.3366 110.282 51.2721 110.176 51.2183C110.013 51.1356 109.861 51.1535 109.73 51.2894C109.661 51.3618 109.598 51.4398 109.528 51.5128C109.425 51.6219 109.326 51.7368 109.213 51.8346C108.599 52.3691 107.534 52.0997 107.346 51.188C107.309 51.0058 107.291 50.8167 107.288 50.6304C107.286 50.4347 107.357 50.36 107.546 50.318C107.684 50.2877 107.824 50.2702 107.963 50.2484C108.245 50.2046 108.512 50.1283 108.745 49.9431C108.882 49.8344 108.93 49.8404 109.305 49.9011Z" fill="white"/>
<path d="M110.751 50.2297C110.278 50.1323 109.898 49.9638 109.568 49.6997C109.381 49.5496 109.186 49.5079 108.96 49.5193C108.828 49.5261 108.691 49.5177 108.561 49.4936C108.388 49.4625 108.302 49.3302 108.357 49.1587C108.428 48.94 108.519 48.7263 108.619 48.519C108.682 48.3874 108.794 48.3531 108.969 48.4098C109.183 48.4787 109.4 48.5521 109.598 48.6572C109.908 48.8216 110.224 48.8431 110.561 48.7749C110.886 48.7093 111.213 48.6576 111.54 48.6029C111.623 48.5894 111.707 48.5814 111.791 48.5827C111.979 48.5857 112.041 48.6648 112.013 48.8599C112.002 48.9308 111.984 49.0026 111.958 49.0691C111.868 49.2965 111.775 49.5229 111.678 49.7476C111.579 49.9744 111.403 50.1184 111.173 50.1756C111.017 50.214 110.854 50.2172 110.751 50.2297Z" fill="white"/>
<path d="M117.724 52.5847C117.664 52.9292 117.467 53.1734 117.188 53.3587C117.092 53.4222 116.999 53.4168 116.918 53.3387C116.791 53.2155 116.654 53.0982 116.546 52.9588C116.212 52.5282 115.786 52.2457 115.287 52.0547C115.052 51.9653 114.826 51.847 114.608 51.7198C114.402 51.6002 114.367 51.453 114.446 51.2229C114.533 50.9693 114.685 50.7608 114.902 50.6124C114.999 50.546 115.116 50.5 115.23 50.4736C115.402 50.4339 115.481 50.4829 115.526 50.6619C115.603 50.9714 115.788 51.1977 116.013 51.4006C116.462 51.8055 116.966 52.1068 117.538 52.2912C117.735 52.3549 117.757 52.3943 117.724 52.5847Z" fill="white"/>
<path d="M113.292 51.632C113.273 51.626 113.229 51.6194 113.194 51.597C113.028 51.4916 112.857 51.392 112.701 51.2714C112.526 51.1353 112.521 50.9975 112.683 50.8363C112.931 50.5897 113.19 50.3545 113.441 50.1119C113.563 49.9952 113.705 49.922 113.86 49.8664C113.952 49.8336 114.03 49.8258 114.119 49.8791C114.251 49.9593 114.395 50.0188 114.529 50.0969C114.824 50.2698 114.837 50.4093 114.585 50.6395C114.479 50.736 114.368 50.8251 114.262 50.9203C114.039 51.1203 113.816 51.3197 113.596 51.5231C113.514 51.5996 113.429 51.6565 113.292 51.632Z" fill="white"/>
<path d="M113.964 51.689C114.561 52.3089 115.297 52.6008 116.026 52.9041C116.058 52.9174 116.093 52.925 116.125 52.9388C116.281 53.0046 116.311 53.0516 116.289 53.1951C116.262 53.364 116.177 53.4638 116.028 53.4507C115.869 53.4362 115.706 53.4048 115.556 53.3481C115.024 53.1454 114.495 52.9321 113.967 52.7143C113.838 52.6615 113.712 52.5903 113.601 52.5053C113.43 52.3738 113.407 52.1741 113.555 52.0147C113.67 51.8918 113.818 51.803 113.964 51.689Z" fill="white"/>
<path d="M112.082 50.7528C111.779 50.7142 111.653 50.5394 111.718 50.2645C111.823 49.8219 112.085 49.49 112.451 49.2428C112.622 49.1276 112.788 49.1918 112.944 49.2889C113.09 49.3804 113.186 49.5029 113.176 49.6916C113.149 50.163 112.656 50.6979 112.196 50.75C112.148 50.7553 112.099 50.7522 112.082 50.7528Z" fill="white"/>
<path d="M111.222 50.6423C111.242 50.4855 111.306 50.4477 111.438 50.5243C111.552 50.5916 111.662 50.6695 111.768 50.752C112.052 50.9734 112.328 51.2056 112.616 51.4211C112.756 51.5254 112.915 51.6028 113.067 51.6909C113.115 51.7192 113.168 51.7394 113.214 51.7709C113.341 51.8569 113.376 51.9547 113.323 52.0599C113.266 52.1757 113.12 52.2467 113.003 52.192C112.762 52.0794 112.512 51.9756 112.294 51.8249C111.981 51.609 111.696 51.3521 111.396 51.1167C111.236 50.9921 111.213 50.8212 111.222 50.6423Z" fill="white"/>
<path d="M287.141 83.7399C287.569 83.391 288.062 83.1462 288.618 83.0065C289.175 82.8669 289.768 82.8394 290.4 82.9247C291.133 83.0238 291.775 83.2719 292.327 83.6684C292.879 84.0655 293.362 84.6 293.78 85.2704L296.902 83.0663C296.284 81.9999 295.448 81.1347 294.395 80.4697C293.342 79.8059 292.104 79.3773 290.681 79.1849C289.463 79.0203 288.31 79.0682 287.222 79.3279C286.133 79.5882 285.161 80.0366 284.306 80.6728C283.45 81.3099 282.742 82.1013 282.181 83.0462C281.62 83.9922 281.258 85.0681 281.095 86.2745C280.932 87.4809 280.995 88.6143 281.286 89.6748C281.576 90.7358 282.048 91.6861 282.704 92.5271C283.36 93.3685 284.178 94.0588 285.158 94.598C286.138 95.1372 287.237 95.4893 288.455 95.6539C289.879 95.8462 291.186 95.758 292.379 95.3895C293.572 95.0203 294.607 94.412 295.483 93.5627L293.059 90.6093C292.478 91.1448 291.87 91.5311 291.233 91.7676C290.595 92.004 289.91 92.0728 289.177 91.9737C288.546 91.8884 287.981 91.7049 287.481 91.422C286.982 91.1396 286.572 90.7735 286.251 90.3228C285.931 89.8729 285.702 89.3546 285.565 88.7674C285.428 88.1808 285.405 87.5479 285.497 86.8693C285.588 86.1906 285.778 85.5865 286.067 85.0574C286.355 84.5283 286.713 84.0888 287.141 83.7399Z" fill="white"/>
<path d="M304.093 90.948L306.754 86.1514L308.047 91.4823L304.093 90.948ZM305.235 81.4737L296.295 96.3903L300.74 96.991L302.357 94.0769L308.89 94.9596L309.675 98.1983L314.209 98.8109L309.526 82.0537L305.235 81.4737Z" fill="white"/>
<path d="M321.712 93.1678L322.969 83.8702L318.677 83.2903L316.537 99.1257L320.653 99.6818L328.244 91.2633L326.991 100.538L331.282 101.118L333.422 85.2827L329.329 84.7296L321.712 93.1678Z" fill="white"/>
<path d="M348.053 90.8758L348.554 87.3271L337.265 85.8016L335.125 101.637L339.416 102.217L341.076 89.9331L348.053 90.8758Z" fill="white"/>
<path d="M353.21 97.585L355.871 92.7888L357.163 98.1192L353.21 97.585ZM354.352 88.1107L345.412 103.027L349.857 103.628L351.474 100.714L358.007 101.597L358.792 104.835L363.326 105.448L358.643 88.6905L354.352 88.1107Z" fill="white"/>
<path d="M375.43 107.083L380.338 107.746L376.581 98.911L382.434 91.9045L377.857 91.286L373.358 96.9439L371.259 96.6603L372.09 90.5068L367.755 89.921L365.615 105.757L369.95 106.343L370.77 100.28L372.76 100.549L375.43 107.083Z" fill="white"/>
<path d="M406.111 105.064C405.823 105.593 405.465 106.032 405.037 106.381C404.61 106.73 404.128 106.975 403.593 107.118C403.059 107.261 402.498 107.292 401.912 107.213C401.325 107.134 400.793 106.955 400.315 106.675C399.838 106.396 399.439 106.031 399.119 105.581C398.799 105.131 398.57 104.613 398.434 104.026C398.296 103.44 398.274 102.807 398.366 102.129C398.459 101.436 398.649 100.829 398.936 100.306C399.223 99.7854 399.58 99.3499 400.008 99.001C400.436 98.6521 400.918 98.4063 401.452 98.2631C401.987 98.1211 402.547 98.089 403.134 98.1684C403.72 98.2476 404.252 98.4272 404.73 98.706C405.208 98.986 405.607 99.3507 405.926 99.8006C406.246 100.251 406.475 100.765 406.614 101.344C406.752 101.923 406.774 102.559 406.68 103.252C406.589 103.931 406.399 104.535 406.111 105.064ZM409.434 97.6264C408.772 96.7771 407.952 96.0794 406.973 95.5322C405.994 94.9861 404.881 94.6279 403.635 94.4595C402.403 94.2931 401.239 94.3435 400.143 94.6092C399.047 94.8761 398.063 95.33 397.192 95.9722C396.321 96.6145 395.606 97.4043 395.046 98.3417C394.486 99.279 394.127 100.344 393.966 101.534C393.805 102.726 393.869 103.847 394.16 104.899C394.451 105.952 394.931 106.903 395.6 107.754C396.269 108.603 397.097 109.303 398.083 109.85C399.07 110.398 400.179 110.755 401.411 110.922C402.657 111.09 403.825 111.041 404.914 110.773C406.003 110.506 406.978 110.055 407.84 109.419C408.703 108.784 409.418 107.994 409.987 107.049C410.555 106.106 410.919 105.038 411.08 103.847C411.241 102.657 411.172 101.534 410.874 100.48C410.576 99.427 410.096 98.4757 409.434 97.6264Z" fill="white"/>
<path d="M422.667 105.044C422.164 105.391 421.459 105.503 420.549 105.38L418.13 105.053L418.756 100.417L421.176 100.744C422.085 100.867 422.736 101.162 423.128 101.63C423.52 102.097 423.667 102.7 423.567 103.439C423.469 104.163 423.169 104.698 422.667 105.044ZM425.463 98.4452C424.506 97.8404 423.324 97.4423 421.917 97.2521L414.877 96.3009L412.738 112.13L417.094 112.719L417.653 108.581L420.337 108.943C421.744 109.134 422.99 109.06 424.074 108.723C425.158 108.386 426.037 107.818 426.712 107.018C427.387 106.22 427.806 105.225 427.967 104.033C428.13 102.828 427.992 101.746 427.554 100.789C427.116 99.8317 426.419 99.0506 425.463 98.4452Z" fill="white"/>
<path d="M444.101 100.25L430.374 98.3951L429.895 101.946L443.621 103.8L444.101 100.25Z" fill="white"/>
<path d="M456.486 111.87C456.198 112.4 455.84 112.839 455.412 113.187C454.984 113.536 454.503 113.782 453.968 113.925C453.434 114.068 452.873 114.099 452.287 114.02C451.7 113.941 451.168 113.762 450.69 113.482C450.213 113.202 449.814 112.838 449.494 112.388C449.174 111.938 448.945 111.42 448.809 110.833C448.671 110.246 448.648 109.614 448.74 108.936C448.834 108.242 449.024 107.635 449.311 107.113C449.598 106.592 449.955 106.157 450.383 105.808C450.811 105.459 451.292 105.213 451.827 105.07C452.362 104.928 452.922 104.896 453.509 104.975C454.095 105.054 454.627 105.234 455.105 105.513C455.583 105.793 455.981 106.157 456.301 106.607C456.621 107.057 456.85 107.572 456.989 108.151C457.126 108.73 457.149 109.366 457.055 110.059C456.964 110.738 456.773 111.341 456.486 111.87ZM461.249 107.287C460.951 106.234 460.471 105.283 459.809 104.433C459.147 103.584 458.327 102.886 457.348 102.339C456.369 101.793 455.256 101.435 454.01 101.266C452.778 101.1 451.614 101.15 450.518 101.416C449.421 101.683 448.438 102.137 447.567 102.779C446.696 103.421 445.981 104.211 445.421 105.148C444.861 106.086 444.502 107.151 444.341 108.341C444.18 109.532 444.244 110.654 444.535 111.706C444.826 112.759 445.306 113.71 445.975 114.561C446.644 115.41 447.472 116.109 448.458 116.657C449.445 117.205 450.554 117.562 451.786 117.728C453.032 117.897 454.2 117.847 455.288 117.58C456.378 117.313 457.353 116.861 458.215 116.226C459.078 115.59 459.793 114.801 460.362 113.856C460.929 112.912 461.294 111.845 461.455 110.654C461.616 109.463 461.547 108.34 461.249 107.287Z" fill="white"/>
<path d="M437.921 107.692L434.507 105.468C434.65 105.239 434.793 104.945 434.873 104.353L438.891 104.896C438.745 105.974 438.437 106.863 437.921 107.692Z" fill="white"/>
<path d="M432.663 111.073C432.622 110.558 432.64 110.026 432.719 109.446C432.798 108.863 432.922 108.343 433.099 107.855L436.897 109.29C436.826 109.485 436.773 109.714 436.736 109.989C436.699 110.263 436.689 110.496 436.706 110.703L432.663 111.073Z" fill="white"/>
<path d="M437.463 115.471L433.446 114.928C433.526 114.337 433.466 114.015 433.389 113.756L437.271 112.518C437.548 113.454 437.609 114.393 437.463 115.471Z" fill="white"/>
<path d="M323.36 78.8246C323.727 78.8966 324.149 78.9865 324.529 79.1998C324.663 79.275 324.796 79.363 324.907 79.4698C325.129 79.6828 325.195 79.9573 325.138 80.2626C325.107 80.4244 325.038 80.4758 324.882 80.4371C324.767 80.4092 324.656 80.3594 324.548 80.3101C324.439 80.2601 324.337 80.1956 324.23 80.1418C324.067 80.0592 323.916 80.077 323.785 80.2129C323.716 80.2853 323.652 80.3633 323.583 80.4363C323.479 80.5454 323.38 80.6603 323.267 80.7581C322.654 81.2926 321.588 81.0232 321.401 80.1115C321.364 79.9293 321.345 79.7402 321.343 79.5539C321.341 79.3582 321.412 79.2836 321.601 79.2415C321.739 79.2112 321.879 79.1937 322.018 79.1719C322.3 79.1281 322.567 79.0518 322.8 78.8666C322.936 78.758 322.985 78.7639 323.36 78.8246Z" fill="white"/>
<path d="M324.805 79.1532C324.333 79.0558 323.952 78.8873 323.623 78.6232C323.435 78.4731 323.24 78.4315 323.015 78.4428C322.882 78.4496 322.746 78.4412 322.616 78.4171C322.443 78.386 322.356 78.2537 322.412 78.0822C322.483 77.8635 322.574 77.6498 322.674 77.4425C322.737 77.311 322.848 77.2766 323.024 77.3333C323.238 77.4022 323.454 77.4756 323.653 77.5807C323.963 77.7451 324.279 77.7666 324.615 77.6984C324.94 77.6328 325.267 77.5811 325.594 77.5264C325.677 77.5129 325.762 77.5049 325.846 77.5062C326.033 77.5092 326.096 77.5883 326.067 77.7834C326.057 77.8543 326.039 77.9261 326.013 77.9926C325.923 78.22 325.83 78.4465 325.733 78.6711C325.634 78.8979 325.458 79.0419 325.228 79.0991C325.072 79.1375 324.909 79.1407 324.805 79.1532Z" fill="white"/>
<path d="M331.779 81.5082C331.719 81.8527 331.522 82.0969 331.243 82.2822C331.147 82.3458 331.054 82.3403 330.973 82.2622C330.845 82.139 330.709 82.0217 330.601 81.8823C330.267 81.4517 329.84 81.1692 329.342 80.9783C329.107 80.8888 328.881 80.7705 328.662 80.6433C328.456 80.5237 328.421 80.3765 328.501 80.1464C328.588 79.8928 328.74 79.6843 328.957 79.5359C329.054 79.4695 329.17 79.4235 329.284 79.3971C329.457 79.3574 329.536 79.4064 329.581 79.5855C329.658 79.8949 329.843 80.1212 330.068 80.3241C330.516 80.729 331.021 81.0303 331.593 81.2147C331.79 81.2784 331.812 81.3178 331.779 81.5082Z" fill="white"/>
<path d="M327.346 80.5555C327.328 80.5495 327.283 80.5429 327.249 80.5205C327.082 80.4151 326.911 80.3155 326.755 80.1949C326.58 80.0588 326.575 79.921 326.737 79.7599C326.986 79.5132 327.245 79.278 327.496 79.0354C327.617 78.9187 327.759 78.8455 327.915 78.79C328.007 78.7571 328.084 78.7493 328.174 78.8026C328.306 78.8828 328.45 78.9423 328.583 79.0204C328.878 79.1933 328.891 79.3328 328.639 79.563C328.534 79.6595 328.423 79.7486 328.317 79.8438C328.094 80.0438 327.871 80.2432 327.651 80.4466C327.568 80.5231 327.484 80.58 327.346 80.5555Z" fill="white"/>
<path d="M328.018 80.6125C328.615 81.2324 329.351 81.5243 330.08 81.8276C330.113 81.8409 330.147 81.8485 330.18 81.8623C330.336 81.9281 330.366 81.9751 330.343 82.1186C330.317 82.2875 330.232 82.3873 330.083 82.3742C329.923 82.3597 329.761 82.3283 329.611 82.2716C329.078 82.069 328.549 81.8556 328.022 81.6378C327.893 81.585 327.767 81.5138 327.656 81.4288C327.484 81.2973 327.461 81.0976 327.61 80.9382C327.725 80.8153 327.873 80.7265 328.018 80.6125Z" fill="white"/>
<path d="M326.137 79.6763C325.834 79.6377 325.707 79.4629 325.772 79.188C325.878 78.7454 326.139 78.4135 326.505 78.1663C326.676 78.0511 326.842 78.1153 326.999 78.2124C327.145 78.3039 327.241 78.4264 327.23 78.6151C327.204 79.0865 326.71 79.6214 326.251 79.6735C326.203 79.6788 326.154 79.6757 326.137 79.6763Z" fill="white"/>
<path d="M325.277 79.5658C325.297 79.409 325.361 79.3712 325.492 79.4478C325.607 79.5151 325.717 79.593 325.822 79.6755C326.107 79.897 326.383 80.1291 326.671 80.3446C326.811 80.4489 326.97 80.5263 327.121 80.6144C327.17 80.6427 327.223 80.6629 327.269 80.6944C327.395 80.7804 327.431 80.8782 327.378 80.9834C327.32 81.0993 327.174 81.1702 327.058 81.1155C326.816 81.0029 326.566 80.8991 326.348 80.7484C326.036 80.5325 325.751 80.2756 325.451 80.0402C325.291 79.9157 325.268 79.7447 325.277 79.5658Z" fill="white"/>
<path d="M501.196 112.663C501.624 112.315 502.116 112.07 502.673 111.93C503.229 111.79 503.823 111.763 504.454 111.848C505.188 111.947 505.83 112.195 506.382 112.592C506.933 112.989 507.417 113.523 507.835 114.194L510.956 111.99C510.339 110.923 509.503 110.058 508.45 109.393C507.397 108.729 506.159 108.301 504.735 108.108C503.517 107.944 502.364 107.992 501.276 108.251C500.188 108.512 499.216 108.96 498.361 109.596C497.505 110.233 496.797 111.025 496.236 111.97C495.675 112.916 495.313 113.992 495.15 115.198C494.987 116.404 495.05 117.538 495.34 118.598C495.63 119.659 496.103 120.61 496.759 121.451C497.414 122.292 498.233 122.982 499.213 123.522C500.193 124.061 501.292 124.413 502.51 124.577C503.933 124.77 505.241 124.682 506.434 124.313C507.627 123.944 508.662 123.336 509.538 122.486L507.114 119.533C506.533 120.068 505.924 120.455 505.287 120.691C504.65 120.928 503.965 120.996 503.232 120.897C502.6 120.812 502.035 120.628 501.536 120.345C501.036 120.063 500.626 119.697 500.306 119.246C499.986 118.796 499.757 118.278 499.62 117.691C499.482 117.104 499.46 116.471 499.551 115.793C499.643 115.114 499.833 114.51 500.121 113.981C500.409 113.452 500.768 113.012 501.196 112.663Z" fill="white"/>
<path d="M518.148 119.872L520.809 115.075L522.102 120.406L518.148 119.872ZM519.289 110.397L510.35 125.314L514.795 125.915L516.412 123L522.945 123.883L523.73 127.122L528.263 127.734L523.581 110.977L519.289 110.397Z" fill="white"/>
<path d="M535.767 122.091L537.023 112.794L532.732 112.214L530.592 128.049L534.708 128.605L542.299 120.187L541.046 129.462L545.337 130.042L547.477 114.206L543.384 113.653L535.767 122.091Z" fill="white"/>
<path d="M562.107 119.799L562.609 116.251L551.319 114.725L549.18 130.561L553.471 131.14L555.131 118.857L562.107 119.799Z" fill="white"/>
<path d="M567.265 126.509L569.926 121.712L571.218 127.043L567.265 126.509ZM568.406 117.034L559.467 131.951L563.912 132.551L565.529 129.637L572.062 130.52L572.847 133.759L577.38 134.371L572.698 117.614L568.406 117.034Z" fill="white"/>
<path d="M589.485 136.007L594.393 136.67L590.635 127.834L596.489 120.828L591.911 120.209L587.413 125.867L585.313 125.584L586.145 119.43L581.81 118.845L579.67 134.681L584.005 135.266L584.824 129.204L586.815 129.473L589.485 136.007Z" fill="white"/>
<path d="M620.166 133.987C619.878 134.516 619.52 134.955 619.092 135.304C618.664 135.653 618.183 135.899 617.648 136.041C617.113 136.185 616.553 136.216 615.967 136.137C615.379 136.057 614.848 135.879 614.37 135.599C613.893 135.319 613.494 134.955 613.174 134.505C612.854 134.055 612.625 133.536 612.488 132.95C612.351 132.363 612.329 131.731 612.42 131.052C612.514 130.359 612.704 129.752 612.991 129.23C613.277 128.709 613.635 128.273 614.063 127.924C614.491 127.576 614.973 127.33 615.507 127.187C616.041 127.045 616.602 127.013 617.189 127.092C617.775 127.171 618.307 127.351 618.785 127.63C619.262 127.909 619.661 128.274 619.981 128.724C620.301 129.174 620.53 129.689 620.668 130.267C620.806 130.847 620.829 131.483 620.735 132.176C620.643 132.854 620.454 133.458 620.166 133.987ZM623.489 126.55C622.827 125.701 622.007 125.003 621.028 124.456C620.049 123.91 618.936 123.551 617.69 123.383C616.458 123.217 615.294 123.267 614.197 123.533C613.101 123.8 612.117 124.254 611.247 124.896C610.376 125.538 609.661 126.328 609.101 127.265C608.541 128.203 608.181 129.268 608.02 130.458C607.859 131.649 607.924 132.77 608.215 133.823C608.506 134.876 608.986 135.827 609.655 136.677C610.324 137.527 611.152 138.226 612.138 138.774C613.124 139.322 614.233 139.679 615.465 139.845C616.712 140.013 617.88 139.964 618.969 139.697C620.057 139.43 621.033 138.978 621.895 138.342C622.757 137.707 623.473 136.917 624.041 135.973C624.609 135.029 624.974 133.962 625.135 132.77C625.296 131.58 625.227 130.457 624.929 129.404C624.63 128.351 624.15 127.399 623.489 126.55Z" fill="white"/>
<path d="M636.722 133.968C636.219 134.314 635.513 134.426 634.604 134.303L632.185 133.976L632.811 129.341L635.23 129.668C636.14 129.791 636.79 130.086 637.183 130.553C637.575 131.021 637.721 131.624 637.622 132.362C637.524 133.086 637.224 133.621 636.722 133.968ZM639.517 127.369C638.561 126.764 637.379 126.366 635.971 126.176L628.932 125.224L626.793 141.053L631.149 141.642L631.708 137.504L634.392 137.867C635.799 138.057 637.045 137.984 638.128 137.647C639.212 137.309 640.091 136.741 640.767 135.942C641.442 135.143 641.86 134.148 642.021 132.957C642.184 131.751 642.047 130.669 641.608 129.712C641.17 128.755 640.474 127.974 639.517 127.369Z" fill="white"/>
<path d="M658.156 129.173L644.429 127.319L643.949 130.869L657.676 132.724L658.156 129.173Z" fill="white"/>
<path d="M670.541 140.794C670.253 141.323 669.895 141.762 669.467 142.111C669.039 142.46 668.558 142.706 668.023 142.848C667.488 142.991 666.928 143.023 666.342 142.944C665.754 142.864 665.223 142.685 664.745 142.405C664.267 142.126 663.869 141.761 663.549 141.311C663.229 140.861 663 140.343 662.863 139.757C662.726 139.17 662.703 138.538 662.795 137.859C662.888 137.166 663.079 136.559 663.366 136.037C663.652 135.516 664.01 135.08 664.438 134.731C664.866 134.382 665.347 134.137 665.882 133.993C666.416 133.851 666.977 133.819 667.564 133.899C668.15 133.978 668.682 134.158 669.16 134.436C669.637 134.716 670.036 135.081 670.356 135.531C670.676 135.981 670.905 136.496 671.043 137.074C671.181 137.654 671.204 138.29 671.11 138.983C671.018 139.661 670.828 140.265 670.541 140.794ZM675.304 136.211C675.005 135.157 674.525 134.206 673.864 133.357C673.202 132.507 672.382 131.81 671.403 131.262C670.424 130.716 669.311 130.358 668.065 130.19C666.833 130.023 665.669 130.074 664.572 130.34C663.476 130.606 662.492 131.06 661.622 131.703C660.751 132.345 660.036 133.135 659.476 134.072C658.916 135.009 658.556 136.074 658.395 137.265C658.234 138.456 658.299 139.577 658.59 140.63C658.881 141.682 659.361 142.634 660.03 143.484C660.699 144.334 661.526 145.033 662.513 145.581C663.499 146.128 664.608 146.485 665.84 146.652C667.087 146.82 668.255 146.771 669.343 146.504C670.432 146.236 671.408 145.785 672.27 145.149C673.132 144.514 673.848 143.724 674.416 142.78C674.984 141.836 675.349 140.769 675.51 139.577C675.671 138.387 675.601 137.264 675.304 136.211Z" fill="white"/>
<path d="M651.976 136.615L648.562 134.392C648.705 134.163 648.848 133.869 648.928 133.277L652.945 133.82C652.8 134.898 652.492 135.786 651.976 136.615Z" fill="white"/>
<path d="M646.717 139.996C646.677 139.482 646.695 138.95 646.773 138.37C646.852 137.786 646.976 137.266 647.154 136.779L650.952 138.214C650.881 138.409 650.828 138.638 650.791 138.913C650.754 139.186 650.744 139.42 650.761 139.627L646.717 139.996Z" fill="white"/>
<path d="M651.518 144.394L647.501 143.851C647.58 143.26 647.521 142.938 647.444 142.679L651.325 141.442C651.603 142.378 651.664 143.316 651.518 144.394Z" fill="white"/>
<path d="M537.414 107.748C537.782 107.82 538.203 107.91 538.584 108.123C538.718 108.199 538.851 108.286 538.962 108.393C539.184 108.606 539.25 108.881 539.192 109.186C539.161 109.348 539.093 109.399 538.937 109.361C538.822 109.333 538.711 109.283 538.602 109.234C538.494 109.184 538.392 109.119 538.285 109.065C538.122 108.983 537.971 109 537.84 109.136C537.77 109.209 537.707 109.287 537.638 109.36C537.534 109.469 537.435 109.584 537.322 109.682C536.708 110.216 535.643 109.947 535.456 109.035C535.419 108.853 535.4 108.664 535.398 108.477C535.395 108.282 535.466 108.207 535.656 108.165C535.793 108.135 535.934 108.117 536.073 108.095C536.355 108.052 536.622 107.975 536.855 107.79C536.991 107.681 537.04 107.687 537.414 107.748Z" fill="white"/>
<path d="M538.86 108.077C538.387 107.979 538.007 107.811 537.677 107.547C537.49 107.397 537.295 107.355 537.07 107.366C536.937 107.373 536.801 107.365 536.671 107.341C536.497 107.31 536.411 107.177 536.466 107.006C536.538 106.787 536.629 106.573 536.728 106.366C536.791 106.234 536.903 106.2 537.079 106.257C537.293 106.326 537.509 106.399 537.707 106.504C538.018 106.669 538.334 106.69 538.67 106.622C538.995 106.556 539.322 106.505 539.649 106.45C539.732 106.436 539.817 106.428 539.901 106.43C540.088 106.433 540.151 106.512 540.122 106.707C540.111 106.778 540.094 106.85 540.067 106.916C539.977 107.143 539.885 107.37 539.787 107.595C539.689 107.821 539.513 107.965 539.282 108.023C539.127 108.061 538.963 108.064 538.86 108.077Z" fill="white"/>
<path d="M545.833 110.432C545.774 110.776 545.577 111.02 545.297 111.206C545.201 111.269 545.109 111.264 545.028 111.186C544.9 111.063 544.764 110.945 544.655 110.806C544.322 110.375 543.895 110.093 543.397 109.902C543.162 109.812 542.935 109.694 542.717 109.567C542.511 109.447 542.476 109.3 542.555 109.07C542.643 108.816 542.795 108.608 543.012 108.459C543.108 108.393 543.225 108.347 543.339 108.321C543.512 108.281 543.591 108.33 543.635 108.509C543.713 108.818 543.897 109.045 544.123 109.248C544.571 109.653 545.076 109.954 545.647 110.138C545.845 110.202 545.866 110.241 545.833 110.432Z" fill="white"/>
<path d="M541.401 109.479C541.382 109.473 541.338 109.466 541.303 109.444C541.137 109.339 540.966 109.239 540.81 109.118C540.635 108.982 540.63 108.845 540.792 108.683C541.04 108.437 541.299 108.202 541.551 107.959C541.672 107.842 541.814 107.769 541.969 107.713C542.061 107.681 542.139 107.673 542.228 107.726C542.36 107.806 542.504 107.866 542.638 107.944C542.933 108.117 542.946 108.256 542.694 108.487C542.589 108.583 542.478 108.672 542.372 108.767C542.149 108.967 541.925 109.167 541.705 109.37C541.623 109.447 541.539 109.504 541.401 109.479Z" fill="white"/>
<path d="M542.073 109.536C542.67 110.156 543.406 110.448 544.135 110.751C544.168 110.764 544.202 110.772 544.235 110.786C544.391 110.852 544.42 110.899 544.398 111.042C544.371 111.211 544.287 111.311 544.137 111.298C543.978 111.283 543.816 111.252 543.666 111.195C543.133 110.992 542.604 110.779 542.076 110.561C541.947 110.509 541.821 110.437 541.711 110.352C541.539 110.221 541.516 110.021 541.665 109.862C541.779 109.739 541.928 109.65 542.073 109.536Z" fill="white"/>
<path d="M540.191 108.6C539.888 108.561 539.762 108.386 539.827 108.112C539.932 107.669 540.194 107.337 540.56 107.09C540.731 106.975 540.897 107.039 541.053 107.136C541.2 107.227 541.296 107.35 541.285 107.539C541.259 108.01 540.765 108.545 540.306 108.597C540.257 108.602 540.208 108.599 540.191 108.6Z" fill="white"/>
<path d="M539.331 108.489C539.351 108.333 539.415 108.295 539.547 108.371C539.662 108.439 539.772 108.517 539.877 108.599C540.161 108.82 540.438 109.053 540.726 109.268C540.866 109.372 541.025 109.45 541.176 109.538C541.224 109.566 541.278 109.586 541.324 109.618C541.45 109.704 541.486 109.802 541.432 109.907C541.375 110.023 541.229 110.094 541.112 110.039C540.871 109.926 540.621 109.823 540.403 109.672C540.09 109.456 539.806 109.199 539.505 108.964C539.346 108.839 539.322 108.668 539.331 108.489Z" fill="white"/>
<path d="M715.25 141.587C715.679 141.238 716.171 140.993 716.728 140.854C717.284 140.714 717.878 140.686 718.509 140.772C719.242 140.871 719.885 141.119 720.436 141.515C720.988 141.912 721.472 142.447 721.89 143.117L725.011 140.913C724.394 139.847 723.558 138.982 722.505 138.317C721.451 137.653 720.213 137.224 718.79 137.032C717.572 136.867 716.419 136.915 715.331 137.175C714.243 137.435 713.271 137.884 712.416 138.52C711.559 139.157 710.852 139.948 710.291 140.893C709.729 141.839 709.367 142.915 709.204 144.122C709.041 145.328 709.105 146.461 709.395 147.522C709.685 148.583 710.157 149.533 710.814 150.374C711.469 151.215 712.287 151.906 713.268 152.445C714.248 152.984 715.347 153.336 716.565 153.501C717.988 153.693 719.296 153.605 720.489 153.236C721.681 152.867 722.716 152.259 723.593 151.41L721.168 148.456C720.587 148.992 719.979 149.378 719.342 149.615C718.705 149.851 718.02 149.92 717.286 149.821C716.655 149.735 716.09 149.552 715.59 149.269C715.091 148.987 714.681 148.62 714.361 148.17C714.041 147.72 713.812 147.202 713.675 146.614C713.537 146.028 713.514 145.395 713.606 144.716C713.698 144.038 713.888 143.433 714.176 142.904C714.464 142.375 714.822 141.936 715.25 141.587Z" fill="white"/>
<path d="M732.202 148.795L734.864 143.998L736.156 149.329L732.202 148.795ZM733.344 139.321L724.404 154.237L728.85 154.838L730.467 151.924L736.999 152.807L737.785 156.045L742.318 156.658L737.636 139.901L733.344 139.321Z" fill="white"/>
<path d="M749.822 151.015L751.078 141.717L746.786 141.137L744.646 156.973L748.762 157.529L756.354 149.11L755.101 158.385L759.392 158.965L761.532 143.13L757.438 142.577L749.822 151.015Z" fill="white"/>
<path d="M776.162 148.723L776.664 145.174L765.374 143.649L763.234 159.484L767.526 160.064L769.185 147.78L776.162 148.723Z" fill="white"/>
<path d="M781.32 155.432L783.98 150.636L785.273 155.966L781.32 155.432ZM782.461 145.958L773.521 160.874L777.967 161.475L779.584 158.561L786.117 159.444L786.901 162.682L791.435 163.295L786.752 146.538L782.461 145.958Z" fill="white"/>
<path d="M803.54 164.93L808.447 165.593L804.69 156.758L810.543 149.752L805.966 149.133L801.467 154.791L799.368 154.507L800.2 148.354L795.864 147.768L793.725 163.604L798.06 164.19L798.879 158.127L800.87 158.396L803.54 164.93Z" fill="white"/>
<path d="M834.22 162.911C833.932 163.44 833.574 163.879 833.146 164.228C832.719 164.577 832.237 164.822 831.703 164.965C831.168 165.108 830.607 165.139 830.021 165.06C829.434 164.981 828.902 164.802 828.425 164.522C827.948 164.243 827.549 163.878 827.229 163.428C826.909 162.978 826.68 162.46 826.543 161.873C826.405 161.287 826.383 160.654 826.475 159.976C826.569 159.283 826.758 158.676 827.046 158.153C827.332 157.632 827.69 157.197 828.118 156.848C828.546 156.499 829.027 156.253 829.561 156.11C830.096 155.968 830.656 155.936 831.243 156.015C831.829 156.095 832.362 156.274 832.839 156.553C833.317 156.833 833.716 157.198 834.035 157.648C834.355 158.098 834.585 158.612 834.723 159.191C834.861 159.77 834.883 160.406 834.79 161.099C834.698 161.778 834.508 162.382 834.22 162.911ZM837.543 155.473C836.882 154.624 836.061 153.926 835.083 153.379C834.104 152.833 832.991 152.475 831.745 152.307C830.512 152.14 829.348 152.191 828.252 152.456C827.156 152.723 826.172 153.177 825.301 153.819C824.431 154.462 823.715 155.251 823.156 156.189C822.596 157.126 822.236 158.191 822.075 159.381C821.914 160.573 821.978 161.694 822.27 162.746C822.56 163.799 823.041 164.75 823.71 165.601C824.379 166.45 825.207 167.15 826.193 167.697C827.179 168.245 828.288 168.602 829.52 168.769C830.766 168.937 831.934 168.888 833.023 168.62C834.112 168.353 835.087 167.902 835.95 167.266C836.812 166.631 837.528 165.841 838.096 164.896C838.664 163.953 839.029 162.885 839.19 161.694C839.35 160.504 839.282 159.381 838.984 158.327C838.685 157.274 838.205 156.323 837.543 155.473Z" fill="white"/>
<path d="M850.776 162.891C850.274 163.238 849.568 163.35 848.659 163.227L846.239 162.9L846.866 158.264L849.285 158.591C850.194 158.714 850.845 159.009 851.238 159.477C851.63 159.944 851.776 160.547 851.676 161.286C851.579 162.01 851.278 162.545 850.776 162.891ZM853.572 156.292C852.615 155.687 851.434 155.289 850.026 155.099L842.987 154.148L840.848 169.977L845.204 170.566L845.763 166.428L848.446 166.79C849.854 166.981 851.099 166.907 852.183 166.57C853.267 166.233 854.146 165.665 854.821 164.865C855.497 164.067 855.915 163.072 856.076 161.881C856.239 160.675 856.101 159.593 855.663 158.636C855.225 157.679 854.528 156.898 853.572 156.292Z" fill="white"/>
<path d="M872.211 158.097L858.484 156.242L858.004 159.793L871.731 161.647L872.211 158.097Z" fill="white"/>
<path d="M884.595 169.717C884.307 170.247 883.949 170.686 883.521 171.034C883.093 171.383 882.612 171.629 882.078 171.772C881.543 171.915 880.982 171.946 880.396 171.867C879.809 171.788 879.277 171.609 878.8 171.329C878.322 171.049 877.924 170.685 877.604 170.235C877.284 169.785 877.055 169.267 876.918 168.68C876.78 168.094 876.758 167.461 876.849 166.783C876.943 166.089 877.133 165.482 877.421 164.96C877.707 164.439 878.065 164.004 878.493 163.655C878.921 163.306 879.402 163.06 879.936 162.917C880.471 162.775 881.031 162.743 881.618 162.822C882.204 162.901 882.737 163.081 883.214 163.36C883.692 163.64 884.09 164.004 884.41 164.454C884.73 164.904 884.96 165.419 885.098 165.998C885.236 166.577 885.258 167.213 885.165 167.906C885.073 168.585 884.883 169.188 884.595 169.717ZM889.359 165.134C889.06 164.081 888.58 163.13 887.918 162.28C887.257 161.431 886.436 160.733 885.457 160.186C884.479 159.64 883.366 159.282 882.12 159.113C880.887 158.947 879.723 158.997 878.627 159.263C877.53 159.53 876.547 159.984 875.676 160.626C874.806 161.268 874.09 162.058 873.531 162.996C872.971 163.933 872.611 164.998 872.45 166.188C872.289 167.379 872.353 168.501 872.645 169.553C872.935 170.606 873.416 171.557 874.085 172.408C874.754 173.257 875.581 173.957 876.568 174.504C877.554 175.052 878.663 175.409 879.895 175.575C881.141 175.744 882.309 175.694 883.398 175.427C884.487 175.16 885.462 174.708 886.325 174.073C887.187 173.438 887.903 172.648 888.471 171.703C889.038 170.759 889.404 169.692 889.565 168.501C889.725 167.31 889.656 166.187 889.359 165.134Z" fill="white"/>
<path d="M866.031 165.539L862.617 163.315C862.759 163.086 862.903 162.792 862.983 162.2L867 162.743C866.854 163.821 866.547 164.71 866.031 165.539Z" fill="white"/>
<path d="M860.772 168.92C860.732 168.405 860.75 167.873 860.828 167.294C860.907 166.71 861.031 166.19 861.209 165.702L865.006 167.137C864.935 167.332 864.883 167.561 864.846 167.836C864.809 168.11 864.799 168.343 864.816 168.55L860.772 168.92Z" fill="white"/>
<path d="M865.573 173.318L861.555 172.775C861.635 172.184 861.576 171.862 861.498 171.603L865.38 170.365C865.657 171.301 865.718 172.24 865.573 173.318Z" fill="white"/>
<path d="M751.469 136.672C751.837 136.744 752.258 136.834 752.639 137.047C752.773 137.122 752.905 137.21 753.016 137.317C753.238 137.53 753.305 137.804 753.247 138.11C753.216 138.271 753.148 138.323 752.991 138.284C752.877 138.256 752.765 138.206 752.657 138.157C752.549 138.107 752.446 138.043 752.34 137.989C752.177 137.906 752.025 137.924 751.894 138.06C751.825 138.132 751.762 138.21 751.692 138.283C751.589 138.392 751.49 138.507 751.377 138.605C750.763 139.14 749.698 138.87 749.51 137.959C749.473 137.776 749.455 137.587 749.452 137.401C749.45 137.205 749.521 137.131 749.71 137.089C749.848 137.058 749.988 137.041 750.128 137.019C750.409 136.975 750.676 136.899 750.909 136.714C751.046 136.605 751.094 136.611 751.469 136.672Z" fill="white"/>
<path d="M752.915 137C752.442 136.903 752.062 136.734 751.732 136.47C751.545 136.32 751.35 136.278 751.124 136.29C750.992 136.297 750.855 136.288 750.725 136.264C750.552 136.233 750.466 136.101 750.521 135.929C750.592 135.711 750.684 135.497 750.783 135.29C750.846 135.158 750.958 135.124 751.133 135.18C751.347 135.249 751.564 135.323 751.762 135.428C752.072 135.592 752.388 135.614 752.725 135.545C753.05 135.48 753.377 135.428 753.704 135.373C753.787 135.36 753.871 135.352 753.955 135.353C754.143 135.356 754.205 135.435 754.177 135.63C754.166 135.701 754.148 135.773 754.122 135.84C754.032 136.067 753.939 136.293 753.842 136.518C753.743 136.745 753.568 136.889 753.337 136.946C753.181 136.984 753.018 136.988 752.915 137Z" fill="white"/>
<path d="M759.888 139.355C759.828 139.7 759.631 139.944 759.352 140.129C759.256 140.193 759.163 140.187 759.082 140.109C758.955 139.986 758.818 139.869 758.71 139.729C758.376 139.299 757.95 139.016 757.451 138.825C757.216 138.736 756.99 138.618 756.772 138.49C756.566 138.371 756.531 138.224 756.61 137.993C756.697 137.74 756.849 137.531 757.066 137.383C757.163 137.317 757.28 137.271 757.394 137.244C757.566 137.204 757.646 137.253 757.69 137.433C757.767 137.742 757.952 137.968 758.177 138.171C758.626 138.576 759.13 138.877 759.702 139.062C759.9 139.125 759.921 139.165 759.888 139.355Z" fill="white"/>
<path d="M755.456 138.403C755.437 138.396 755.393 138.39 755.358 138.368C755.192 138.262 755.021 138.162 754.865 138.042C754.69 137.906 754.685 137.768 754.847 137.607C755.095 137.36 755.354 137.125 755.606 136.882C755.727 136.766 755.869 136.693 756.024 136.637C756.116 136.604 756.194 136.596 756.283 136.65C756.415 136.73 756.559 136.789 756.693 136.867C756.988 137.04 757.001 137.18 756.749 137.41C756.644 137.506 756.532 137.596 756.426 137.691C756.203 137.891 755.98 138.09 755.76 138.294C755.678 138.37 755.593 138.427 755.456 138.403Z" fill="white"/>
<path d="M756.128 138.46C756.725 139.079 757.461 139.371 758.19 139.675C758.222 139.688 758.257 139.695 758.289 139.709C758.445 139.775 758.475 139.822 758.453 139.966C758.426 140.134 758.342 140.234 758.192 140.221C758.033 140.207 757.87 140.175 757.72 140.119C757.188 139.916 756.659 139.703 756.131 139.485C756.002 139.432 755.876 139.361 755.765 139.276C755.594 139.144 755.571 138.945 755.719 138.785C755.834 138.662 755.982 138.573 756.128 138.46Z" fill="white"/>
<path d="M754.246 137.523C753.943 137.485 753.817 137.31 753.882 137.035C753.987 136.592 754.249 136.261 754.615 136.013C754.786 135.898 754.952 135.962 755.108 136.059C755.254 136.151 755.35 136.273 755.34 136.462C755.313 136.934 754.82 137.468 754.36 137.521C754.312 137.526 754.263 137.523 754.246 137.523Z" fill="white"/>
<path d="M753.386 137.413C753.406 137.256 753.47 137.218 753.602 137.295C753.716 137.362 753.827 137.44 753.932 137.522C754.216 137.744 754.492 137.976 754.78 138.192C754.92 138.296 755.079 138.373 755.231 138.461C755.279 138.49 755.332 138.51 755.378 138.541C755.505 138.627 755.54 138.725 755.487 138.83C755.43 138.946 755.284 139.017 755.167 138.963C754.926 138.85 754.676 138.746 754.458 138.595C754.145 138.38 753.86 138.123 753.56 137.887C753.4 137.763 753.377 137.592 753.386 137.413Z" fill="white"/>
<path d="M929.303 170.51C929.731 170.162 930.224 169.917 930.78 169.777C931.337 169.637 931.93 169.61 932.562 169.695C933.295 169.794 933.937 170.042 934.489 170.439C935.041 170.836 935.524 171.37 935.942 172.041L939.064 169.837C938.446 168.77 937.61 167.905 936.557 167.24C935.504 166.576 934.266 166.148 932.843 165.955C931.625 165.791 930.472 165.839 929.384 166.098C928.296 166.359 927.323 166.807 926.468 167.443C925.612 168.08 924.904 168.872 924.343 169.817C923.782 170.763 923.42 171.839 923.257 173.045C923.094 174.251 923.157 175.385 923.448 176.445C923.738 177.506 924.21 178.457 924.867 179.298C925.522 180.139 926.34 180.829 927.32 181.369C928.301 181.908 929.399 182.26 930.617 182.424C932.041 182.617 933.349 182.529 934.541 182.16C935.734 181.791 936.769 181.183 937.645 180.333L935.221 177.38C934.64 177.915 934.032 178.302 933.395 178.538C932.757 178.775 932.072 178.843 931.339 178.744C930.708 178.659 930.143 178.475 929.643 178.192C929.144 177.91 928.734 177.544 928.413 177.093C928.093 176.643 927.865 176.125 927.727 175.538C927.59 174.951 927.567 174.318 927.659 173.64C927.75 172.961 927.94 172.357 928.229 171.828C928.517 171.299 928.875 170.859 929.303 170.51Z" fill="white"/>
<path d="M946.255 177.719L948.917 172.922L950.209 178.253L946.255 177.719ZM947.397 168.244L938.457 183.161L942.902 183.762L944.519 180.847L951.052 181.73L951.838 184.969L956.371 185.581L951.689 168.824L947.397 168.244Z" fill="white"/>
<path d="M963.874 179.938L965.131 170.641L960.839 170.061L958.699 185.896L962.815 186.452L970.407 178.034L969.153 187.309L973.445 187.889L975.584 172.053L971.491 171.5L963.874 179.938Z" fill="white"/>
<path d="M990.215 177.646L990.717 174.098L979.427 172.572L977.287 188.408L981.578 188.987L983.238 176.704L990.215 177.646Z" fill="white"/>
<path d="M995.372 184.356L998.033 179.559L999.326 184.89L995.372 184.356ZM996.514 174.881L987.574 189.798L992.02 190.398L993.636 187.484L1000.17 188.367L1000.95 191.606L1005.49 192.218L1000.81 175.461L996.514 174.881Z" fill="white"/>
<path d="M1017.59 193.854L1022.5 194.517L1018.74 185.681L1024.6 178.675L1020.02 178.057L1015.52 183.714L1013.42 183.431L1014.25 177.277L1009.92 176.692L1007.78 192.528L1012.11 193.113L1012.93 187.051L1014.92 187.32L1017.59 193.854Z" fill="white"/>
<path d="M1048.27 191.834C1047.99 192.363 1047.63 192.802 1047.2 193.151C1046.77 193.5 1046.29 193.746 1045.76 193.888C1045.22 194.032 1044.66 194.063 1044.07 193.984C1043.49 193.904 1042.96 193.725 1042.48 193.446C1042 193.166 1041.6 192.802 1041.28 192.352C1040.96 191.902 1040.73 191.383 1040.6 190.797C1040.46 190.21 1040.44 189.578 1040.53 188.899C1040.62 188.206 1040.81 187.599 1041.1 187.077C1041.38 186.556 1041.74 186.12 1042.17 185.771C1042.6 185.423 1043.08 185.177 1043.61 185.034C1044.15 184.892 1044.71 184.86 1045.3 184.939C1045.88 185.018 1046.41 185.198 1046.89 185.477C1047.37 185.756 1047.77 186.121 1048.09 186.571C1048.41 187.021 1048.64 187.536 1048.78 188.114C1048.91 188.694 1048.94 189.33 1048.84 190.023C1048.75 190.701 1048.56 191.305 1048.27 191.834ZM1051.6 184.397C1050.93 183.548 1050.11 182.85 1049.14 182.303C1048.16 181.757 1047.04 181.398 1045.8 181.23C1044.57 181.064 1043.4 181.114 1042.3 181.38C1041.21 181.647 1040.22 182.1 1039.35 182.743C1038.48 183.385 1037.77 184.175 1037.21 185.112C1036.65 186.05 1036.29 187.115 1036.13 188.305C1035.97 189.496 1036.03 190.617 1036.32 191.67C1036.61 192.723 1037.09 193.674 1037.76 194.524C1038.43 195.374 1039.26 196.073 1040.25 196.621C1041.23 197.169 1042.34 197.526 1043.57 197.692C1044.82 197.86 1045.99 197.811 1047.08 197.544C1048.16 197.277 1049.14 196.825 1050 196.189C1050.86 195.554 1051.58 194.764 1052.15 193.82C1052.72 192.876 1053.08 191.809 1053.24 190.617C1053.4 189.427 1053.33 188.304 1053.04 187.251C1052.74 186.198 1052.26 185.246 1051.6 184.397Z" fill="white"/>
<path d="M1064.83 191.815C1064.33 192.161 1063.62 192.273 1062.71 192.15L1060.29 191.823L1060.92 187.188L1063.34 187.515C1064.25 187.638 1064.9 187.933 1065.29 188.4C1065.68 188.868 1065.83 189.471 1065.73 190.209C1065.63 190.933 1065.33 191.468 1064.83 191.815ZM1067.62 185.216C1066.67 184.611 1065.49 184.213 1064.08 184.023L1057.04 183.071L1054.9 198.901L1059.26 199.489L1059.82 195.351L1062.5 195.714C1063.91 195.904 1065.15 195.831 1066.24 195.494C1067.32 195.156 1068.2 194.588 1068.87 193.789C1069.55 192.99 1069.97 191.995 1070.13 190.804C1070.29 189.598 1070.15 188.517 1069.72 187.559C1069.28 186.602 1068.58 185.821 1067.62 185.216Z" fill="white"/>
<path d="M1086.26 187.02L1072.54 185.166L1072.06 188.716L1085.78 190.571L1086.26 187.02Z" fill="white"/>
<path d="M1098.65 198.641C1098.36 199.17 1098 199.609 1097.57 199.958C1097.15 200.307 1096.67 200.553 1096.13 200.695C1095.6 200.838 1095.03 200.87 1094.45 200.791C1093.86 200.711 1093.33 200.532 1092.85 200.252C1092.37 199.973 1091.98 199.608 1091.66 199.158C1091.34 198.708 1091.11 198.19 1090.97 197.604C1090.83 197.017 1090.81 196.385 1090.9 195.706C1091 195.013 1091.19 194.406 1091.47 193.884C1091.76 193.363 1092.12 192.927 1092.55 192.578C1092.97 192.229 1093.45 191.984 1093.99 191.84C1094.52 191.698 1095.08 191.666 1095.67 191.746C1096.26 191.825 1096.79 192.005 1097.27 192.283C1097.74 192.563 1098.14 192.928 1098.46 193.378C1098.78 193.828 1099.01 194.343 1099.15 194.921C1099.29 195.501 1099.31 196.137 1099.22 196.83C1099.13 197.508 1098.94 198.112 1098.65 198.641ZM1103.41 194.058C1103.11 193.004 1102.63 192.053 1101.97 191.204C1101.31 190.354 1100.49 189.657 1099.51 189.109C1098.53 188.563 1097.42 188.205 1096.17 188.037C1094.94 187.87 1093.78 187.921 1092.68 188.187C1091.58 188.453 1090.6 188.907 1089.73 189.55C1088.86 190.192 1088.14 190.982 1087.58 191.919C1087.02 192.856 1086.66 193.921 1086.5 195.112C1086.34 196.303 1086.41 197.424 1086.7 198.477C1086.99 199.529 1087.47 200.481 1088.14 201.331C1088.81 202.181 1089.63 202.88 1090.62 203.428C1091.61 203.975 1092.72 204.332 1093.95 204.499C1095.19 204.667 1096.36 204.618 1097.45 204.351C1098.54 204.083 1099.52 203.632 1100.38 202.996C1101.24 202.361 1101.96 201.571 1102.52 200.627C1103.09 199.683 1103.46 198.616 1103.62 197.424C1103.78 196.234 1103.71 195.111 1103.41 194.058Z" fill="white"/>
<path d="M1080.08 194.462L1076.67 192.239C1076.81 192.01 1076.96 191.716 1077.04 191.124L1081.05 191.667C1080.91 192.745 1080.6 193.633 1080.08 194.462Z" fill="white"/>
<path d="M1074.82 197.843C1074.78 197.329 1074.8 196.797 1074.88 196.217C1074.96 195.633 1075.08 195.113 1075.26 194.626L1079.06 196.061C1078.99 196.256 1078.94 196.485 1078.9 196.76C1078.86 197.033 1078.85 197.267 1078.87 197.474L1074.82 197.843Z" fill="white"/>
<path d="M1079.63 202.241L1075.61 201.698C1075.69 201.107 1075.63 200.785 1075.55 200.526L1079.43 199.289C1079.71 200.225 1079.77 201.163 1079.63 202.241Z" fill="white"/>
<path d="M965.522 165.595C965.89 165.667 966.311 165.757 966.691 165.97C966.826 166.046 966.958 166.133 967.069 166.24C967.291 166.453 967.358 166.728 967.3 167.033C967.269 167.195 967.2 167.246 967.044 167.208C966.929 167.18 966.818 167.13 966.71 167.081C966.601 167.031 966.499 166.966 966.392 166.912C966.229 166.83 966.078 166.847 965.947 166.983C965.878 167.056 965.814 167.134 965.745 167.207C965.642 167.316 965.542 167.431 965.43 167.529C964.816 168.063 963.75 167.794 963.563 166.882C963.526 166.7 963.507 166.511 963.505 166.324C963.503 166.129 963.574 166.054 963.763 166.012C963.901 165.982 964.041 165.964 964.18 165.942C964.462 165.899 964.729 165.822 964.962 165.637C965.099 165.528 965.147 165.534 965.522 165.595Z" fill="white"/>
<path d="M966.967 165.924C966.495 165.826 966.115 165.658 965.785 165.394C965.597 165.244 965.403 165.202 965.177 165.213C965.044 165.22 964.908 165.212 964.778 165.188C964.605 165.157 964.518 165.024 964.574 164.853C964.645 164.634 964.736 164.42 964.836 164.213C964.899 164.081 965.011 164.047 965.186 164.104C965.4 164.173 965.616 164.246 965.815 164.351C966.125 164.516 966.441 164.537 966.777 164.469C967.102 164.403 967.429 164.352 967.756 164.297C967.839 164.283 967.924 164.275 968.008 164.277C968.196 164.28 968.258 164.359 968.229 164.554C968.219 164.625 968.201 164.697 968.175 164.763C968.085 164.99 967.992 165.217 967.895 165.442C967.796 165.668 967.62 165.812 967.39 165.87C967.234 165.908 967.071 165.911 966.967 165.924Z" fill="white"/>
<path d="M973.941 168.279C973.881 168.623 973.684 168.867 973.405 169.053C973.309 169.116 973.216 169.111 973.135 169.033C973.007 168.91 972.871 168.792 972.763 168.653C972.429 168.222 972.002 167.94 971.504 167.749C971.269 167.659 971.043 167.541 970.825 167.414C970.619 167.294 970.583 167.147 970.663 166.917C970.75 166.663 970.902 166.455 971.119 166.306C971.216 166.24 971.332 166.194 971.446 166.168C971.619 166.128 971.698 166.177 971.743 166.356C971.82 166.665 972.005 166.892 972.23 167.095C972.679 167.5 973.183 167.801 973.755 167.985C973.952 168.049 973.974 168.088 973.941 168.279Z" fill="white"/>
<path d="M969.508 167.326C969.49 167.32 969.445 167.313 969.411 167.291C969.244 167.186 969.074 167.086 968.917 166.965C968.742 166.829 968.737 166.692 968.9 166.53C969.148 166.284 969.407 166.049 969.658 165.806C969.779 165.689 969.922 165.616 970.077 165.56C970.169 165.528 970.247 165.52 970.336 165.573C970.468 165.653 970.612 165.713 970.745 165.791C971.04 165.964 971.054 166.103 970.801 166.334C970.696 166.43 970.585 166.519 970.479 166.614C970.256 166.814 970.033 167.014 969.813 167.217C969.73 167.294 969.646 167.351 969.508 167.326Z" fill="white"/>
<path d="M970.18 167.383C970.777 168.003 971.513 168.295 972.243 168.598C972.275 168.611 972.31 168.619 972.342 168.633C972.498 168.699 972.528 168.746 972.506 168.889C972.479 169.058 972.394 169.158 972.245 169.145C972.085 169.13 971.923 169.099 971.773 169.042C971.241 168.839 970.712 168.626 970.184 168.408C970.055 168.355 969.929 168.284 969.818 168.199C969.646 168.068 969.624 167.868 969.772 167.709C969.887 167.586 970.035 167.497 970.18 167.383Z" fill="white"/>
<path d="M968.299 166.447C967.996 166.408 967.869 166.233 967.935 165.959C968.04 165.516 968.301 165.184 968.668 164.937C968.838 164.822 969.004 164.886 969.161 164.983C969.307 165.074 969.403 165.197 969.393 165.386C969.366 165.857 968.872 166.392 968.413 166.444C968.365 166.449 968.316 166.446 968.299 166.447Z" fill="white"/>
<path d="M967.439 166.336C967.459 166.18 967.523 166.142 967.654 166.218C967.769 166.286 967.879 166.363 967.984 166.446C968.269 166.667 968.545 166.9 968.833 167.115C968.973 167.219 969.132 167.297 969.283 167.385C969.332 167.413 969.385 167.433 969.431 167.465C969.558 167.551 969.593 167.649 969.54 167.754C969.482 167.87 969.336 167.941 969.22 167.886C968.978 167.773 968.728 167.67 968.511 167.519C968.198 167.303 967.913 167.046 967.613 166.811C967.453 166.686 967.43 166.515 967.439 166.336Z" fill="white"/>
<path d="M1143.36 199.434C1143.79 199.085 1144.28 198.84 1144.84 198.701C1145.39 198.561 1145.99 198.533 1146.62 198.619C1147.35 198.718 1147.99 198.966 1148.54 199.362C1149.1 199.76 1149.58 200.294 1150 200.964L1153.12 198.76C1152.5 197.694 1151.67 196.829 1150.61 196.164C1149.56 195.5 1148.32 195.071 1146.9 194.879C1145.68 194.714 1144.53 194.762 1143.44 195.022C1142.35 195.282 1141.38 195.731 1140.52 196.367C1139.67 197.004 1138.96 197.795 1138.4 198.74C1137.84 199.686 1137.47 200.762 1137.31 201.969C1137.15 203.175 1137.21 204.308 1137.5 205.369C1137.79 206.43 1138.26 207.38 1138.92 208.221C1139.58 209.063 1140.39 209.753 1141.38 210.292C1142.36 210.831 1143.45 211.183 1144.67 211.348C1146.1 211.54 1147.4 211.452 1148.6 211.084C1149.79 210.714 1150.82 210.106 1151.7 209.257L1149.28 206.303C1148.69 206.839 1148.09 207.225 1147.45 207.462C1146.81 207.698 1146.13 207.767 1145.39 207.668C1144.76 207.582 1144.2 207.399 1143.7 207.116C1143.2 206.834 1142.79 206.468 1142.47 206.017C1142.15 205.567 1141.92 205.049 1141.78 204.461C1141.64 203.875 1141.62 203.242 1141.71 202.563C1141.81 201.885 1141.99 201.281 1142.28 200.751C1142.57 200.222 1142.93 199.783 1143.36 199.434Z" fill="white"/>
<path d="M1160.31 206.642L1162.97 201.845L1164.26 207.176L1160.31 206.642ZM1161.45 197.168L1152.51 212.084L1156.96 212.685L1158.57 209.771L1165.11 210.654L1165.89 213.892L1170.43 214.505L1165.74 197.748L1161.45 197.168Z" fill="white"/>
<path d="M1177.93 208.862L1179.19 199.564L1174.89 198.984L1172.75 214.82L1176.87 215.376L1184.46 206.957L1183.21 216.232L1187.5 216.812L1189.64 200.977L1185.55 200.424L1177.93 208.862Z" fill="white"/>
<path d="M1204.27 206.57L1204.77 203.021L1193.48 201.496L1191.34 217.331L1195.63 217.911L1197.29 205.627L1204.27 206.57Z" fill="white"/>
<path d="M1209.43 213.279L1212.09 208.483L1213.38 213.813L1209.43 213.279ZM1210.57 203.805L1201.63 218.721L1206.07 219.322L1207.69 216.408L1214.22 217.291L1215.01 220.529L1219.54 221.142L1214.86 204.385L1210.57 203.805Z" fill="white"/>
<path d="M1231.65 222.777L1236.55 223.44L1232.8 214.605L1238.65 207.599L1234.07 206.98L1229.57 212.638L1227.48 212.354L1228.31 206.201L1223.97 205.615L1221.83 221.451L1226.17 222.037L1226.99 215.974L1228.98 216.243L1231.65 222.777Z" fill="white"/>
<path d="M1262.33 220.758C1262.04 221.287 1261.68 221.726 1261.25 222.075C1260.83 222.424 1260.34 222.669 1259.81 222.812C1259.28 222.955 1258.71 222.987 1258.13 222.907C1257.54 222.828 1257.01 222.649 1256.53 222.369C1256.06 222.09 1255.66 221.725 1255.34 221.275C1255.02 220.825 1254.79 220.307 1254.65 219.72C1254.51 219.134 1254.49 218.501 1254.58 217.823C1254.68 217.13 1254.87 216.523 1255.15 216C1255.44 215.479 1255.8 215.044 1256.23 214.695C1256.65 214.346 1257.13 214.1 1257.67 213.957C1258.2 213.815 1258.76 213.783 1259.35 213.862C1259.94 213.942 1260.47 214.121 1260.95 214.4C1261.42 214.68 1261.82 215.045 1262.14 215.495C1262.46 215.945 1262.69 216.459 1262.83 217.038C1262.97 217.617 1262.99 218.253 1262.9 218.946C1262.81 219.625 1262.62 220.229 1262.33 220.758ZM1265.65 213.32C1264.99 212.471 1264.17 211.773 1263.19 211.226C1262.21 210.68 1261.1 210.322 1259.85 210.154C1258.62 209.987 1257.46 210.038 1256.36 210.303C1255.26 210.57 1254.28 211.024 1253.41 211.666C1252.54 212.309 1251.82 213.098 1251.26 214.036C1250.7 214.973 1250.34 216.038 1250.18 217.228C1250.02 218.42 1250.09 219.541 1250.38 220.593C1250.67 221.646 1251.15 222.597 1251.82 223.448C1252.49 224.297 1253.31 224.997 1254.3 225.544C1255.29 226.092 1256.4 226.449 1257.63 226.616C1258.87 226.784 1260.04 226.735 1261.13 226.467C1262.22 226.2 1263.19 225.749 1264.06 225.113C1264.92 224.478 1265.63 223.688 1266.2 222.743C1266.77 221.8 1267.14 220.732 1267.3 219.541C1267.46 218.351 1267.39 217.228 1267.09 216.174C1266.79 215.121 1266.31 214.17 1265.65 213.32Z" fill="white"/>
<path d="M1278.88 220.738C1278.38 221.085 1277.68 221.197 1276.77 221.074L1274.35 220.747L1274.97 216.111L1277.39 216.438C1278.3 216.561 1278.95 216.856 1279.35 217.324C1279.74 217.791 1279.88 218.394 1279.78 219.133C1279.69 219.857 1279.39 220.392 1278.88 220.738ZM1281.68 214.139C1280.72 213.534 1279.54 213.136 1278.13 212.946L1271.09 211.995L1268.96 227.824L1273.31 228.413L1273.87 224.275L1276.55 224.637C1277.96 224.828 1279.21 224.754 1280.29 224.417C1281.37 224.08 1282.25 223.512 1282.93 222.712C1283.6 221.914 1284.02 220.919 1284.18 219.728C1284.35 218.522 1284.21 217.44 1283.77 216.483C1283.33 215.526 1282.64 214.745 1281.68 214.139Z" fill="white"/>
<path d="M1300.32 215.944L1286.59 214.089L1286.11 217.64L1299.84 219.494L1300.32 215.944Z" fill="white"/>
<path d="M1312.7 227.565C1312.41 228.094 1312.06 228.533 1311.63 228.881C1311.2 229.23 1310.72 229.476 1310.19 229.619C1309.65 229.762 1309.09 229.793 1308.5 229.714C1307.92 229.635 1307.38 229.456 1306.91 229.176C1306.43 228.897 1306.03 228.532 1305.71 228.082C1305.39 227.632 1305.16 227.114 1305.03 226.527C1304.89 225.941 1304.87 225.308 1304.96 224.63C1305.05 223.936 1305.24 223.329 1305.53 222.807C1305.81 222.286 1306.17 221.851 1306.6 221.502C1307.03 221.153 1307.51 220.907 1308.04 220.764C1308.58 220.622 1309.14 220.59 1309.73 220.669C1310.31 220.748 1310.84 220.928 1311.32 221.207C1311.8 221.487 1312.2 221.851 1312.52 222.301C1312.84 222.751 1313.07 223.266 1313.21 223.845C1313.34 224.424 1313.37 225.06 1313.27 225.753C1313.18 226.432 1312.99 227.035 1312.7 227.565ZM1317.47 222.981C1317.17 221.928 1316.69 220.977 1316.03 220.127C1315.36 219.278 1314.54 218.58 1313.56 218.033C1312.59 217.487 1311.47 217.129 1310.23 216.96C1308.99 216.794 1307.83 216.844 1306.73 217.11C1305.64 217.377 1304.65 217.831 1303.78 218.473C1302.91 219.115 1302.2 219.905 1301.64 220.843C1301.08 221.78 1300.72 222.845 1300.56 224.035C1300.4 225.227 1300.46 226.348 1300.75 227.4C1301.04 228.453 1301.52 229.404 1302.19 230.255C1302.86 231.104 1303.69 231.804 1304.67 232.351C1305.66 232.899 1306.77 233.256 1308 233.422C1309.25 233.591 1310.42 233.541 1311.51 233.274C1312.59 233.007 1313.57 232.555 1314.43 231.92C1315.29 231.285 1316.01 230.495 1316.58 229.55C1317.15 228.606 1317.51 227.539 1317.67 226.348C1317.83 225.157 1317.76 224.034 1317.47 222.981Z" fill="white"/>
<path d="M1294.14 223.386L1290.72 221.162C1290.87 220.933 1291.01 220.639 1291.09 220.047L1295.11 220.59C1294.96 221.668 1294.65 222.557 1294.14 223.386Z" fill="white"/>
<path d="M1288.88 226.767C1288.84 226.252 1288.86 225.72 1288.94 225.141C1289.01 224.557 1289.14 224.037 1289.32 223.549L1293.11 224.984C1293.04 225.179 1292.99 225.408 1292.95 225.683C1292.92 225.957 1292.91 226.19 1292.92 226.397L1288.88 226.767Z" fill="white"/>
<path d="M1293.68 231.165L1289.66 230.622C1289.74 230.031 1289.68 229.709 1289.61 229.45L1293.49 228.212C1293.76 229.148 1293.83 230.087 1293.68 231.165Z" fill="white"/>
<path d="M1179.58 194.519C1179.94 194.591 1180.37 194.681 1180.75 194.894C1180.88 194.969 1181.01 195.057 1181.12 195.164C1181.35 195.377 1181.41 195.651 1181.35 195.957C1181.32 196.118 1181.26 196.17 1181.1 196.131C1180.98 196.103 1180.87 196.053 1180.76 196.004C1180.66 195.954 1180.55 195.89 1180.45 195.836C1180.28 195.753 1180.13 195.771 1180 195.907C1179.93 195.979 1179.87 196.057 1179.8 196.13C1179.7 196.239 1179.6 196.354 1179.48 196.452C1178.87 196.987 1177.81 196.717 1177.62 195.806C1177.58 195.623 1177.56 195.434 1177.56 195.248C1177.56 195.052 1177.63 194.978 1177.82 194.936C1177.96 194.905 1178.1 194.888 1178.23 194.866C1178.52 194.822 1178.78 194.746 1179.02 194.561C1179.15 194.452 1179.2 194.458 1179.58 194.519Z" fill="white"/>
<path d="M1181.02 194.847C1180.55 194.75 1180.17 194.581 1179.84 194.317C1179.65 194.167 1179.46 194.125 1179.23 194.137C1179.1 194.144 1178.96 194.135 1178.83 194.111C1178.66 194.08 1178.57 193.948 1178.63 193.776C1178.7 193.558 1178.79 193.344 1178.89 193.137C1178.95 193.005 1179.07 192.971 1179.24 193.027C1179.45 193.096 1179.67 193.17 1179.87 193.275C1180.18 193.439 1180.5 193.461 1180.83 193.392C1181.16 193.327 1181.48 193.275 1181.81 193.22C1181.89 193.207 1181.98 193.199 1182.06 193.2C1182.25 193.203 1182.31 193.282 1182.28 193.477C1182.27 193.548 1182.26 193.62 1182.23 193.687C1182.14 193.914 1182.05 194.14 1181.95 194.365C1181.85 194.592 1181.67 194.736 1181.44 194.793C1181.29 194.831 1181.13 194.835 1181.02 194.847Z" fill="white"/>
<path d="M1188 197.202C1187.94 197.547 1187.74 197.791 1187.46 197.976C1187.36 198.04 1187.27 198.034 1187.19 197.956C1187.06 197.833 1186.93 197.716 1186.82 197.576C1186.48 197.146 1186.06 196.863 1185.56 196.672C1185.32 196.583 1185.1 196.465 1184.88 196.337C1184.67 196.218 1184.64 196.071 1184.72 195.84C1184.8 195.587 1184.96 195.378 1185.17 195.23C1185.27 195.164 1185.39 195.118 1185.5 195.091C1185.67 195.051 1185.75 195.1 1185.8 195.28C1185.87 195.589 1186.06 195.815 1186.28 196.018C1186.73 196.423 1187.24 196.724 1187.81 196.909C1188.01 196.972 1188.03 197.012 1188 197.202Z" fill="white"/>
<path d="M1183.56 196.25C1183.54 196.243 1183.5 196.237 1183.47 196.215C1183.3 196.109 1183.13 196.01 1182.97 195.889C1182.8 195.753 1182.79 195.615 1182.95 195.454C1183.2 195.207 1183.46 194.972 1183.71 194.729C1183.83 194.613 1183.98 194.54 1184.13 194.484C1184.22 194.451 1184.3 194.443 1184.39 194.497C1184.52 194.577 1184.67 194.636 1184.8 194.714C1185.1 194.887 1185.11 195.027 1184.86 195.257C1184.75 195.353 1184.64 195.443 1184.53 195.538C1184.31 195.738 1184.09 195.937 1183.87 196.141C1183.79 196.217 1183.7 196.274 1183.56 196.25Z" fill="white"/>
<path d="M1184.24 196.307C1184.83 196.926 1185.57 197.218 1186.3 197.522C1186.33 197.535 1186.36 197.543 1186.4 197.556C1186.55 197.622 1186.58 197.669 1186.56 197.813C1186.53 197.982 1186.45 198.081 1186.3 198.068C1186.14 198.054 1185.98 198.022 1185.83 197.966C1185.3 197.763 1184.77 197.55 1184.24 197.332C1184.11 197.279 1183.98 197.208 1183.87 197.123C1183.7 196.991 1183.68 196.792 1183.83 196.632C1183.94 196.509 1184.09 196.421 1184.24 196.307Z" fill="white"/>
<path d="M1182.35 195.37C1182.05 195.332 1181.92 195.157 1181.99 194.882C1182.09 194.439 1182.36 194.108 1182.72 193.86C1182.89 193.745 1183.06 193.809 1183.22 193.906C1183.36 193.998 1183.46 194.12 1183.45 194.309C1183.42 194.781 1182.93 195.315 1182.47 195.368C1182.42 195.373 1182.37 195.37 1182.35 195.37Z" fill="white"/>
<path d="M1181.49 195.26C1181.51 195.103 1181.58 195.065 1181.71 195.142C1181.82 195.209 1181.93 195.287 1182.04 195.369C1182.32 195.591 1182.6 195.823 1182.89 196.039C1183.03 196.143 1183.19 196.22 1183.34 196.308C1183.39 196.337 1183.44 196.357 1183.49 196.388C1183.61 196.474 1183.65 196.572 1183.59 196.677C1183.54 196.793 1183.39 196.864 1183.27 196.81C1183.03 196.697 1182.78 196.593 1182.57 196.442C1182.25 196.227 1181.97 195.97 1181.67 195.734C1181.51 195.61 1181.48 195.439 1181.49 195.26Z" fill="white"/>
<path d="M1357.41 228.357C1357.84 228.009 1358.33 227.764 1358.89 227.624C1359.45 227.484 1360.04 227.457 1360.67 227.542C1361.4 227.641 1362.05 227.889 1362.6 228.286C1363.15 228.683 1363.63 229.218 1364.05 229.888L1367.17 227.684C1366.56 226.617 1365.72 225.752 1364.67 225.087C1363.61 224.423 1362.38 223.995 1360.95 223.802C1359.73 223.638 1358.58 223.686 1357.49 223.945C1356.4 224.206 1355.43 224.654 1354.58 225.29C1353.72 225.927 1353.01 226.719 1352.45 227.664C1351.89 228.61 1351.53 229.686 1351.37 230.892C1351.2 232.098 1351.27 233.232 1351.56 234.292C1351.85 235.353 1352.32 236.304 1352.98 237.145C1353.63 237.986 1354.45 238.676 1355.43 239.216C1356.41 239.755 1357.51 240.107 1358.73 240.271C1360.15 240.464 1361.46 240.376 1362.65 240.007C1363.84 239.638 1364.88 239.03 1365.75 238.18L1363.33 235.227C1362.75 235.762 1362.14 236.149 1361.5 236.385C1360.87 236.622 1360.18 236.69 1359.45 236.591C1358.82 236.506 1358.25 236.322 1357.75 236.039C1357.25 235.757 1356.84 235.391 1356.52 234.94C1356.2 234.49 1355.97 233.972 1355.84 233.385C1355.7 232.798 1355.68 232.165 1355.77 231.487C1355.86 230.808 1356.05 230.204 1356.34 229.675C1356.63 229.146 1356.98 228.706 1357.41 228.357Z" fill="white"/>
<path d="M1374.36 235.566L1377.03 230.769L1378.32 236.1L1374.36 235.566ZM1375.51 226.091L1366.57 241.008L1371.01 241.609L1372.63 238.694L1379.16 239.577L1379.95 242.816L1384.48 243.428L1379.8 226.671L1375.51 226.091Z" fill="white"/>
<path d="M1391.98 237.785L1393.24 228.488L1388.95 227.908L1386.81 243.743L1390.92 244.299L1398.52 235.881L1397.26 245.156L1401.55 245.736L1403.69 229.9L1399.6 229.347L1391.98 237.785Z" fill="white"/>
<path d="M1418.32 235.493L1418.83 231.945L1407.54 230.419L1405.4 246.255L1409.69 246.834L1411.35 234.551L1418.32 235.493Z" fill="white"/>
<path d="M1423.48 242.203L1426.14 237.406L1427.43 242.737L1423.48 242.203ZM1424.62 232.728L1415.68 247.645L1420.13 248.245L1421.75 245.331L1428.28 246.214L1429.06 249.453L1433.6 250.065L1428.91 233.308L1424.62 232.728Z" fill="white"/>
<path d="M1445.7 251.701L1450.61 252.364L1446.85 243.528L1452.71 236.522L1448.13 235.904L1443.63 241.561L1441.53 241.278L1442.36 235.124L1438.03 234.539L1435.89 250.375L1440.22 250.96L1441.04 244.898L1443.03 245.167L1445.7 251.701Z" fill="white"/>
<path d="M1393.63 223.442C1394 223.514 1394.42 223.604 1394.8 223.817C1394.93 223.893 1395.07 223.981 1395.18 224.087C1395.4 224.3 1395.47 224.575 1395.41 224.88C1395.38 225.042 1395.31 225.093 1395.15 225.055C1395.04 225.027 1394.93 224.977 1394.82 224.928C1394.71 224.878 1394.61 224.813 1394.5 224.759C1394.34 224.677 1394.19 224.695 1394.06 224.83C1393.99 224.903 1393.92 224.981 1393.85 225.054C1393.75 225.163 1393.65 225.278 1393.54 225.376C1392.93 225.91 1391.86 225.641 1391.67 224.729C1391.64 224.547 1391.62 224.358 1391.61 224.171C1391.61 223.976 1391.68 223.901 1391.87 223.859C1392.01 223.829 1392.15 223.811 1392.29 223.789C1392.57 223.746 1392.84 223.669 1393.07 223.484C1393.21 223.375 1393.26 223.381 1393.63 223.442Z" fill="white"/>
<path d="M1395.08 223.771C1394.6 223.673 1394.22 223.505 1393.89 223.241C1393.71 223.091 1393.51 223.049 1393.29 223.06C1393.15 223.067 1393.02 223.059 1392.89 223.035C1392.71 223.004 1392.63 222.871 1392.68 222.7C1392.75 222.481 1392.85 222.267 1392.95 222.06C1393.01 221.928 1393.12 221.894 1393.3 221.951C1393.51 222.02 1393.73 222.093 1393.92 222.198C1394.23 222.363 1394.55 222.384 1394.89 222.316C1395.21 222.25 1395.54 222.199 1395.87 222.144C1395.95 222.13 1396.03 222.122 1396.12 222.124C1396.3 222.127 1396.37 222.206 1396.34 222.401C1396.33 222.472 1396.31 222.544 1396.28 222.61C1396.19 222.837 1396.1 223.064 1396 223.289C1395.91 223.515 1395.73 223.659 1395.5 223.717C1395.34 223.755 1395.18 223.758 1395.08 223.771Z" fill="white"/>
<path d="M1402.05 226.126C1401.99 226.47 1401.79 226.714 1401.51 226.9C1401.42 226.963 1401.33 226.958 1401.24 226.88C1401.12 226.757 1400.98 226.639 1400.87 226.5C1400.54 226.069 1400.11 225.787 1399.61 225.596C1399.38 225.506 1399.15 225.388 1398.93 225.261C1398.73 225.141 1398.69 224.994 1398.77 224.764C1398.86 224.51 1399.01 224.302 1399.23 224.153C1399.33 224.087 1399.44 224.041 1399.56 224.015C1399.73 223.975 1399.81 224.024 1399.85 224.203C1399.93 224.512 1400.11 224.739 1400.34 224.942C1400.79 225.347 1401.29 225.648 1401.86 225.832C1402.06 225.896 1402.08 225.935 1402.05 226.126Z" fill="white"/>
<path d="M1397.62 225.173C1397.6 225.167 1397.55 225.16 1397.52 225.138C1397.35 225.033 1397.18 224.933 1397.03 224.812C1396.85 224.676 1396.85 224.539 1397.01 224.377C1397.26 224.131 1397.52 223.896 1397.77 223.653C1397.89 223.536 1398.03 223.463 1398.19 223.407C1398.28 223.375 1398.36 223.367 1398.44 223.42C1398.58 223.5 1398.72 223.56 1398.85 223.638C1399.15 223.811 1399.16 223.95 1398.91 224.181C1398.81 224.277 1398.69 224.366 1398.59 224.461C1398.37 224.661 1398.14 224.861 1397.92 225.064C1397.84 225.141 1397.76 225.198 1397.62 225.173Z" fill="white"/>
<path d="M1398.29 225.23C1398.89 225.85 1399.62 226.142 1400.35 226.445C1400.38 226.458 1400.42 226.466 1400.45 226.48C1400.61 226.546 1400.64 226.593 1400.61 226.736C1400.59 226.905 1400.5 227.005 1400.35 226.992C1400.19 226.977 1400.03 226.946 1399.88 226.889C1399.35 226.686 1398.82 226.473 1398.29 226.255C1398.16 226.203 1398.04 226.131 1397.93 226.046C1397.76 225.915 1397.73 225.715 1397.88 225.556C1398 225.433 1398.14 225.344 1398.29 225.23Z" fill="white"/>
<path d="M1396.41 224.294C1396.11 224.255 1395.98 224.08 1396.04 223.806C1396.15 223.363 1396.41 223.031 1396.78 222.784C1396.95 222.669 1397.11 222.733 1397.27 222.83C1397.42 222.921 1397.51 223.044 1397.5 223.233C1397.48 223.704 1396.98 224.239 1396.52 224.291C1396.47 224.296 1396.43 224.293 1396.41 224.294Z" fill="white"/>
<path d="M1395.55 224.183C1395.57 224.027 1395.63 223.989 1395.76 224.065C1395.88 224.133 1395.99 224.211 1396.09 224.293C1396.38 224.514 1396.65 224.747 1396.94 224.962C1397.08 225.066 1397.24 225.144 1397.39 225.232C1397.44 225.26 1397.49 225.28 1397.54 225.312C1397.67 225.398 1397.7 225.496 1397.65 225.601C1397.59 225.717 1397.45 225.788 1397.33 225.733C1397.09 225.62 1396.84 225.517 1396.62 225.366C1396.31 225.15 1396.02 224.893 1395.72 224.658C1395.56 224.533 1395.54 224.362 1395.55 224.183Z" fill="white"/>
</g>
<defs>
<clipPath id="clip0_63_2161">
<rect width="1694" height="51" fill="white" transform="translate(-143.172 0.00012207) rotate(7.69533)"/>
</clipPath>
</defs>
</svg>
