<svg width="182" height="24" viewBox="0 0 182 24" fill="none" xmlns="http://www.w3.org/2000/svg">
<path d="M5.6519 11.8679C6.02983 11.4758 6.48493 11.1756 7.01778 10.9685C7.55062 10.7613 8.13511 10.6575 8.77236 10.6575C9.51233 10.6575 10.1819 10.813 10.7817 11.1234C11.3815 11.4343 11.9325 11.8866 12.4365 12.4785L15.2346 9.94703C14.4799 8.99937 13.5356 8.27416 12.403 7.77025C11.2703 7.26748 9.98616 7.01553 8.54992 7.01553C7.3208 7.01553 6.18475 7.21187 5.14119 7.60399C4.09763 7.99667 3.19423 8.55562 2.43213 9.28027C1.6689 10.006 1.07363 10.8612 0.644067 11.8452C0.2145 12.8303 0 13.9147 0 15.099C0 16.2833 0.2145 17.3677 0.644067 18.3522C1.07363 19.3374 1.6689 20.192 2.43213 20.9172C3.19423 21.6429 4.09763 22.2019 5.14119 22.594C6.18475 22.9861 7.3208 23.1825 8.54992 23.1825C9.98616 23.1825 11.2703 22.9271 12.403 22.4164C13.5356 21.9051 14.4799 21.1839 15.2346 20.251L12.4365 17.7195C11.9325 18.3114 11.3815 18.7631 10.7817 19.0741C10.1819 19.385 9.51233 19.5405 8.77236 19.5405C8.13511 19.5405 7.55062 19.4372 7.01778 19.2295C6.48493 19.0224 6.02983 18.7228 5.6519 18.3301C5.27454 17.938 4.97833 17.4681 4.76383 16.92C4.54876 16.3724 4.44151 15.7652 4.44151 15.099C4.44151 14.4328 4.54876 13.8256 4.76383 13.278C4.97833 12.7304 5.27454 12.26 5.6519 11.8679Z" fill="#E2B44C"/>
<path d="M23.415 16.6091L25.4102 11.6381L27.4048 16.6091H23.415ZM23.2776 7.32656L16.4159 22.8716H20.9017L22.1138 19.8515H28.706L29.9181 22.8716H34.4924L27.6085 7.32656H23.2776Z" fill="#E2B44C"/>
<path d="M41.1747 16.4536V7.32656H36.8438V22.8716H40.9971L47.3929 13.7667V22.8716H51.7232V7.32656H47.5926L41.1747 16.4536Z" fill="#E2B44C"/>
<path d="M66.9707 10.8127L66.9928 7.32625H55.6005V22.8712H59.9308V10.8127H66.9707Z" fill="#E2B44C"/>
<path d="M72.9792 16.6091L74.9738 11.6387L76.9685 16.6091H72.9792ZM72.8419 7.32656L65.9802 22.8716H70.4659L71.678 19.8515H78.2702L79.4817 22.8716H84.0566L77.1722 7.32656H72.8419Z" fill="#E2B44C"/>
<path d="M96.2705 22.8716H101.223L96.3159 14.8431L101.178 7.32599H96.5594L92.859 13.3666H90.7406V7.32599H86.3661V22.8716H90.7406V16.92H92.7494L96.2705 22.8716Z" fill="#E2B44C"/>
<path d="M126.405 16.9278C126.191 17.4754 125.895 17.9452 125.517 18.3374C125.14 18.7295 124.696 19.0291 124.185 19.2362C123.675 19.4439 123.123 19.5472 122.532 19.5472C121.939 19.5472 121.388 19.4439 120.878 19.2362C120.368 19.0291 119.923 18.7295 119.546 18.3374C119.168 17.9452 118.872 17.4754 118.658 16.9278C118.443 16.3802 118.337 15.7736 118.337 15.1074C118.337 14.427 118.443 13.817 118.658 13.2762C118.872 12.7365 119.168 12.2701 119.546 11.878C119.923 11.4858 120.368 11.1862 120.878 10.9785C121.388 10.772 121.939 10.6681 122.532 10.6681C123.123 10.6681 123.675 10.772 124.185 10.9785C124.696 11.1862 125.14 11.4858 125.517 11.878C125.895 12.2701 126.191 12.7365 126.405 13.2762C126.62 13.817 126.727 14.427 126.727 15.1074C126.727 15.7736 126.62 16.3802 126.405 16.9278ZM128.702 9.32496C127.933 8.59237 127.027 8.02661 125.984 7.62655C124.94 7.22763 123.789 7.02732 122.532 7.02732C121.289 7.02732 120.142 7.22763 119.091 7.62655C118.04 8.02661 117.126 8.59237 116.349 9.32496C115.572 10.0576 114.969 10.9121 114.54 11.8887C114.111 12.8653 113.897 13.939 113.897 15.1074C113.897 16.2769 114.111 17.3494 114.54 18.326C114.969 19.3032 115.572 20.1578 116.349 20.8904C117.126 21.6224 118.04 22.1887 119.091 22.5882C120.142 22.9877 121.289 23.1874 122.532 23.1874C123.789 23.1874 124.94 22.9877 125.984 22.5882C127.027 22.1887 127.933 21.6264 128.702 20.9011C129.472 20.1765 130.075 19.3219 130.512 18.3374C130.948 17.3534 131.167 16.2769 131.167 15.1074C131.167 13.939 130.948 12.8653 130.512 11.8887C130.075 10.9121 129.472 10.0576 128.702 9.32496Z" fill="#00A5A5"/>
<path d="M142.809 14.7525C142.358 15.152 141.673 15.3517 140.756 15.3517H138.315V10.8013H140.756C141.673 10.8013 142.358 11.001 142.809 11.4005C143.261 11.8 143.486 12.3623 143.486 13.0875C143.486 13.798 143.261 14.353 142.809 14.7525ZM144.696 8.02637C143.667 7.56787 142.443 7.33805 141.022 7.33805H133.919V22.8768H138.315V18.8149H141.022C142.443 18.8149 143.667 18.5817 144.696 18.1158C145.725 17.6494 146.52 16.9871 147.082 16.1286C147.645 15.2706 147.926 14.2571 147.926 13.0875C147.926 11.9038 147.645 10.879 147.082 10.0131C146.52 9.14767 145.725 8.48545 144.696 8.02637Z" fill="#00A5A5"/>
<path d="M163.409 7.33815H149.557V10.8235H163.409V7.33815Z" fill="#00A5A5"/>
<path d="M177.238 16.9278C177.024 17.4754 176.728 17.9452 176.35 18.3374C175.973 18.7295 175.529 19.0291 175.019 19.2362C174.508 19.4439 173.956 19.5472 173.365 19.5472C172.773 19.5472 172.222 19.4439 171.711 19.2362C171.2 19.0291 170.756 18.7295 170.379 18.3374C170.002 17.9452 169.705 17.4754 169.491 16.9278C169.276 16.3802 169.169 15.7736 169.169 15.1074C169.169 14.427 169.276 13.817 169.491 13.2762C169.705 12.7365 170.002 12.2701 170.379 11.878C170.756 11.4858 171.2 11.1862 171.711 10.9785C172.222 10.772 172.773 10.6681 173.365 10.6681C173.956 10.6681 174.508 10.772 175.019 10.9785C175.529 11.1862 175.973 11.4858 176.35 11.878C176.728 12.2701 177.024 12.7365 177.238 13.2762C177.452 13.817 177.56 14.427 177.56 15.1074C177.56 15.7736 177.452 16.3802 177.238 16.9278ZM181.345 11.8887C180.908 10.9121 180.305 10.0576 179.536 9.32496C178.766 8.59237 177.86 8.02661 176.816 7.62655C175.773 7.22763 174.622 7.02732 173.365 7.02732C172.122 7.02732 170.975 7.22763 169.924 7.62655C168.873 8.02661 167.959 8.59237 167.182 9.32496C166.406 10.0576 165.802 10.9121 165.373 11.8887C164.944 12.8653 164.73 13.939 164.73 15.1074C164.73 16.2769 164.944 17.3494 165.373 18.326C165.802 19.3032 166.406 20.1578 167.182 20.8904C167.959 21.6224 168.873 22.1887 169.924 22.5882C170.975 22.9877 172.122 23.1874 173.365 23.1874C174.622 23.1874 175.773 22.9877 176.816 22.5882C177.86 22.1887 178.766 21.6264 179.536 20.9011C180.305 20.1765 180.908 19.3219 181.345 18.3374C181.781 17.3534 182 16.2769 182 15.1074C182 13.939 181.781 12.8653 181.345 11.8887Z" fill="#00A5A5"/>
<path d="M158.282 15.3177L154.601 13.6188C154.712 13.3793 154.814 13.0774 154.814 12.4963H158.868C158.868 13.5547 158.682 14.4512 158.282 15.3177Z" fill="#00A5A5"/>
<path d="M153.523 19.2621C153.414 18.7712 153.361 18.256 153.361 17.6868C153.361 17.1137 153.414 16.5962 153.525 16.103L157.481 16.9917C157.437 17.1892 157.415 17.4167 157.415 17.6868C157.415 17.9552 157.437 18.1816 157.481 18.3791L153.523 19.2621Z" fill="#00A5A5"/>
<path d="M158.868 22.8768H154.814C154.814 22.2963 154.712 21.9938 154.601 21.7544L158.282 20.0554C158.682 20.9219 158.868 21.8185 158.868 22.8768Z" fill="#00A5A5"/>
<path d="M40.8853 2.41148C41.2593 2.43305 41.6888 2.46482 42.0946 2.62087C42.2376 2.67592 42.3806 2.74345 42.5048 2.83197C42.7534 3.00845 42.8561 3.26437 42.8396 3.56626C42.8306 3.72629 42.7698 3.78473 42.6098 3.76771C42.4924 3.75579 42.3755 3.72231 42.2614 3.68883C42.1473 3.65479 42.0373 3.60599 41.9243 3.56797C41.7518 3.50952 41.6043 3.5464 41.4925 3.69451C41.4335 3.77339 41.3813 3.8568 41.3223 3.93625C41.2343 4.05485 41.1514 4.17855 41.0527 4.2875C40.5159 4.88277 39.4241 4.7619 39.1165 3.90731C39.0553 3.7365 39.0116 3.55662 38.9843 3.3773C38.9559 3.1889 39.0161 3.10776 39.1983 3.0425C39.3305 2.9954 39.4672 2.96022 39.6023 2.92106C39.8758 2.84218 40.13 2.7338 40.336 2.52497C40.4569 2.4024 40.5057 2.40183 40.8853 2.41148Z" fill="#E2B44C"/>
<path d="M42.3634 2.53976C41.8822 2.50742 41.4827 2.39449 41.1207 2.18283C40.9147 2.06253 40.7161 2.04778 40.4942 2.08807C40.3637 2.1119 40.2275 2.12155 40.0953 2.1153C39.9193 2.10793 39.8161 1.9916 39.8478 1.81909C39.8893 1.59892 39.9511 1.38101 40.0221 1.16821C40.0669 1.03316 40.173 0.985492 40.3546 1.01727C40.5759 1.05586 40.8 1.09842 41.0106 1.17389C41.3403 1.29192 41.6563 1.27149 41.9804 1.16197C42.2936 1.05642 42.6108 0.963928 42.9275 0.868595C43.008 0.844762 43.0909 0.826036 43.1743 0.816389C43.3604 0.794825 43.4331 0.86292 43.4308 1.05472C43.4297 1.12452 43.4217 1.19602 43.4047 1.26355C43.3457 1.4945 43.2844 1.72489 43.218 1.95415C43.1505 2.18567 42.9955 2.3474 42.7748 2.43251C42.6256 2.48983 42.4644 2.51423 42.3634 2.53976Z" fill="#E2B44C"/>
<path d="M49.5884 3.90176C49.5753 4.24167 49.413 4.5027 49.1611 4.71777C49.0743 4.79154 48.9818 4.79835 48.891 4.73366C48.748 4.63152 48.597 4.53618 48.4711 4.41588C48.0829 4.04419 47.6221 3.82742 47.1029 3.70826C46.8578 3.65265 46.6177 3.5681 46.3845 3.4739C46.1643 3.38537 46.1099 3.24805 46.1575 3.01596C46.2103 2.76003 46.3329 2.53929 46.5281 2.36792C46.6149 2.29131 46.7244 2.23173 46.8339 2.19144C46.9996 2.13072 47.0848 2.1676 47.1528 2.33444C47.2709 2.62271 47.4842 2.81678 47.7345 2.98304C48.2333 3.31501 48.7735 3.53972 49.3648 3.643C49.5691 3.67875 49.5958 3.71393 49.5884 3.90176Z" fill="#E2B44C"/>
<path d="M45.0684 3.56079C45.0491 3.55738 45.0043 3.55681 44.9668 3.53979C44.7881 3.45978 44.6053 3.38601 44.4345 3.29011C44.2427 3.18172 44.2195 3.0495 44.3585 2.87302C44.5713 2.60291 44.7966 2.34245 45.0133 2.07574C45.1178 1.9475 45.2488 1.85841 45.3952 1.78464C45.4821 1.74094 45.5581 1.72335 45.6534 1.76307C45.7953 1.82322 45.9457 1.86181 46.0887 1.91969C46.4042 2.04794 46.436 2.18072 46.2169 2.43551C46.1256 2.54219 46.0274 2.64264 45.9349 2.74818C45.7408 2.97006 45.5462 3.19137 45.3555 3.41608C45.284 3.50063 45.208 3.56646 45.0684 3.56079Z" fill="#E2B44C"/>
<path d="M45.7425 3.52813C46.4172 4.04792 47.1855 4.23348 47.9488 4.43096C47.9828 4.43947 48.018 4.4423 48.0521 4.45138C48.2155 4.49451 48.2512 4.53594 48.2484 4.67723C48.2444 4.8435 48.1741 4.95075 48.0242 4.95756C47.8642 4.96437 47.6991 4.95529 47.543 4.92011C46.9881 4.79413 46.4354 4.65737 45.8832 4.51607C45.7482 4.48203 45.6137 4.42982 45.4928 4.36229C45.305 4.25788 45.2556 4.06835 45.3816 3.89527C45.4786 3.76192 45.6137 3.65694 45.7425 3.52813Z" fill="#E2B44C"/>
<path d="M43.7512 2.87082C43.4459 2.87309 43.2973 2.72102 43.3251 2.4475C43.3699 2.00715 43.585 1.65306 43.9147 1.36706C44.0684 1.2337 44.2415 1.27399 44.4095 1.34719C44.5667 1.41642 44.6785 1.52197 44.6932 1.70526C44.7301 2.1632 44.3125 2.74315 43.8642 2.85323C43.8171 2.86458 43.7683 2.86799 43.7512 2.87082Z" fill="#E2B44C"/>
<path d="M42.8837 2.87635C42.8826 2.72257 42.9411 2.67774 43.0818 2.73449C43.2044 2.78443 43.3241 2.84514 43.4393 2.91097C43.7508 3.08745 44.0555 3.27528 44.3699 3.44552C44.5226 3.5278 44.6905 3.58171 44.8523 3.64696C44.9039 3.66796 44.9595 3.68044 45.0094 3.70485C45.1462 3.77124 45.1944 3.8609 45.1559 3.96928C45.1144 4.08845 44.9794 4.17584 44.8562 4.13839C44.602 4.06121 44.3404 3.99368 44.1044 3.87679C43.7656 3.70939 43.4489 3.49886 43.1198 3.31103C42.945 3.21172 42.8991 3.05 42.8837 2.87635Z" fill="#E2B44C"/>
</svg>
