<svg width="137" height="24" viewBox="0 0 137 24" fill="none" xmlns="http://www.w3.org/2000/svg">
<path d="M12.9132 17.8781L17.6382 20.8781C18.2476 21.2625 18.9976 20.6906 18.8195 19.9875L17.4507 14.6062C17.4137 14.4571 17.4196 14.3005 17.4677 14.1545C17.5158 14.0086 17.6042 13.8792 17.7226 13.7812L21.9601 10.2469C22.5132 9.78749 22.232 8.85937 21.5101 8.81249L15.9789 8.45624C15.8279 8.44746 15.6828 8.39491 15.5613 8.305C15.4398 8.2151 15.347 8.09174 15.2945 7.94999L13.232 2.75624C13.1774 2.60615 13.0779 2.4765 12.9471 2.38488C12.8163 2.29326 12.6604 2.24411 12.5007 2.24411C12.341 2.24411 12.1852 2.29326 12.0544 2.38488C11.9235 2.4765 11.8241 2.60615 11.7695 2.75624L9.70698 7.94999C9.65441 8.09174 9.56169 8.2151 9.44016 8.305C9.31862 8.39491 9.17352 8.44746 9.0226 8.45624L3.49135 8.81249C2.76948 8.85937 2.48823 9.78749 3.04135 10.2469L7.27885 13.7812C7.39729 13.8792 7.48565 14.0086 7.53375 14.1545C7.58185 14.3005 7.58774 14.4571 7.55073 14.6062L6.2851 19.5937C6.06948 20.4375 6.96948 21.1219 7.69135 20.6625L12.0882 17.8781C12.2115 17.7997 12.3546 17.7581 12.5007 17.7581C12.6468 17.7581 12.7899 17.7997 12.9132 17.8781Z" fill="#FFC263"/>
<path d="M40.9132 17.8781L45.6382 20.8781C46.2476 21.2625 46.9976 20.6906 46.8195 19.9875L45.4507 14.6062C45.4137 14.4571 45.4196 14.3005 45.4677 14.1545C45.5158 14.0086 45.6042 13.8792 45.7226 13.7812L49.9601 10.2469C50.5132 9.78749 50.232 8.85937 49.5101 8.81249L43.9789 8.45624C43.8279 8.44746 43.6828 8.39491 43.5613 8.305C43.4398 8.2151 43.347 8.09174 43.2945 7.94999L41.232 2.75624C41.1774 2.60615 41.0779 2.4765 40.9471 2.38488C40.8163 2.29326 40.6604 2.24411 40.5007 2.24411C40.341 2.24411 40.1852 2.29326 40.0544 2.38488C39.9235 2.4765 39.8241 2.60615 39.7695 2.75624L37.707 7.94999C37.6544 8.09174 37.5617 8.2151 37.4402 8.305C37.3186 8.39491 37.1735 8.44746 37.0226 8.45624L31.4914 8.81249C30.7695 8.85937 30.4882 9.78749 31.0414 10.2469L35.2789 13.7812C35.3973 13.8792 35.4857 14.0086 35.5338 14.1545C35.5819 14.3005 35.5877 14.4571 35.5507 14.6062L34.2851 19.5937C34.0695 20.4375 34.9695 21.1219 35.6914 20.6625L40.0882 17.8781C40.2115 17.7997 40.3546 17.7581 40.5007 17.7581C40.6468 17.7581 40.7899 17.7997 40.9132 17.8781Z" fill="#FFC263"/>
<path d="M68.9132 17.8781L73.6382 20.8781C74.2476 21.2625 74.9976 20.6906 74.8195 19.9875L73.4507 14.6062C73.4137 14.4571 73.4196 14.3005 73.4677 14.1545C73.5158 14.0086 73.6042 13.8792 73.7226 13.7812L77.9601 10.2469C78.5132 9.78749 78.232 8.85937 77.5101 8.81249L71.9789 8.45624C71.8279 8.44746 71.6828 8.39491 71.5613 8.305C71.4398 8.2151 71.347 8.09174 71.2945 7.94999L69.232 2.75624C69.1774 2.60615 69.0779 2.4765 68.9471 2.38488C68.8163 2.29326 68.6604 2.24411 68.5007 2.24411C68.341 2.24411 68.1852 2.29326 68.0544 2.38488C67.9235 2.4765 67.8241 2.60615 67.7695 2.75624L65.707 7.94999C65.6544 8.09174 65.5617 8.2151 65.4402 8.305C65.3186 8.39491 65.1735 8.44746 65.0226 8.45624L59.4914 8.81249C58.7695 8.85937 58.4882 9.78749 59.0414 10.2469L63.2789 13.7812C63.3973 13.8792 63.4857 14.0086 63.5338 14.1545C63.5819 14.3005 63.5877 14.4571 63.5507 14.6062L62.2851 19.5937C62.0695 20.4375 62.9695 21.1219 63.6914 20.6625L68.0882 17.8781C68.2115 17.7997 68.3546 17.7581 68.5007 17.7581C68.6468 17.7581 68.7899 17.7997 68.9132 17.8781Z" fill="#FFC263"/>
<path d="M96.9132 17.8781L101.638 20.8781C102.248 21.2625 102.998 20.6906 102.819 19.9875L101.451 14.6062C101.414 14.4571 101.42 14.3005 101.468 14.1545C101.516 14.0086 101.604 13.8792 101.723 13.7812L105.96 10.2469C106.513 9.78749 106.232 8.85937 105.51 8.81249L99.9789 8.45624C99.8279 8.44746 99.6828 8.39491 99.5613 8.305C99.4398 8.2151 99.347 8.09174 99.2945 7.94999L97.232 2.75624C97.1774 2.60615 97.0779 2.4765 96.9471 2.38488C96.8163 2.29326 96.6604 2.24411 96.5007 2.24411C96.341 2.24411 96.1852 2.29326 96.0544 2.38488C95.9235 2.4765 95.8241 2.60615 95.7695 2.75624L93.707 7.94999C93.6544 8.09174 93.5617 8.2151 93.4402 8.305C93.3186 8.39491 93.1735 8.44746 93.0226 8.45624L87.4914 8.81249C86.7695 8.85937 86.4882 9.78749 87.0414 10.2469L91.2789 13.7812C91.3973 13.8792 91.4857 14.0086 91.5338 14.1545C91.5819 14.3005 91.5877 14.4571 91.5507 14.6062L90.2851 19.5937C90.0695 20.4375 90.9695 21.1219 91.6914 20.6625L96.0882 17.8781C96.2115 17.7997 96.3546 17.7581 96.5007 17.7581C96.6468 17.7581 96.7899 17.7997 96.9132 17.8781Z" fill="#FFC263"/>
<path d="M124.913 17.8781L129.638 20.8781C130.248 21.2625 130.998 20.6906 130.819 19.9875L129.451 14.6062C129.414 14.4571 129.42 14.3005 129.468 14.1545C129.516 14.0086 129.604 13.8792 129.723 13.7812L133.96 10.2469C134.513 9.78749 134.232 8.85937 133.51 8.81249L127.979 8.45624C127.828 8.44746 127.683 8.39491 127.561 8.305C127.44 8.2151 127.347 8.09174 127.294 7.94999L125.232 2.75624C125.177 2.60615 125.078 2.4765 124.947 2.38488C124.816 2.29326 124.66 2.24411 124.501 2.24411C124.341 2.24411 124.185 2.29326 124.054 2.38488C123.924 2.4765 123.824 2.60615 123.769 2.75624L121.707 7.94999C121.654 8.09174 121.562 8.2151 121.44 8.305C121.319 8.39491 121.174 8.44746 121.023 8.45624L115.491 8.81249C114.769 8.85937 114.488 9.78749 115.041 10.2469L119.279 13.7812C119.397 13.8792 119.486 14.0086 119.534 14.1545C119.582 14.3005 119.588 14.4571 119.551 14.6062L118.285 19.5937C118.069 20.4375 118.969 21.1219 119.691 20.6625L124.088 17.8781C124.212 17.7997 124.355 17.7581 124.501 17.7581C124.647 17.7581 124.79 17.7997 124.913 17.8781Z" fill="#FFC263"/>
</svg>
