<svg width="238" height="382" viewBox="0 0 238 382" fill="none" xmlns="http://www.w3.org/2000/svg">
<path d="M300.8 106.814C331.129 135.346 348.531 173.985 349.809 215.607L347.816 215.668C345.225 130.84 274.115 63.945 189.287 66.5359C148.195 67.791 110.052 84.9724 81.8903 114.908C53.729 144.844 38.9006 183.972 40.1626 225.057L38.1695 225.118C36.898 183.489 51.9164 143.866 80.4477 113.537C108.979 83.2083 147.618 65.8066 189.24 64.5283C230.848 63.2645 270.471 78.2829 300.8 106.814Z" fill="#FFC263"/>
<path d="M293.407 114.673C320.488 140.149 337.866 175.923 339.087 215.927L337.094 215.988C334.684 137.083 268.527 74.8475 189.615 77.2507C110.711 79.6606 48.4679 145.825 50.8779 224.73L48.8848 224.791C46.4411 144.784 109.547 77.7012 189.561 75.2503C229.558 74.0357 266.334 89.2047 293.407 114.673Z" fill="#FFC263"/>
<path d="M286.103 122.438C312.259 147.043 327.263 180.365 328.366 216.262L326.373 216.323C325.293 180.955 310.502 148.136 284.74 123.901C258.971 99.6592 225.303 86.9067 189.95 87.9865C154.583 89.0667 121.764 103.857 97.5289 129.619C73.2869 155.389 60.5344 189.056 61.6142 224.409L59.621 224.47C58.5248 188.58 71.4739 154.397 96.079 128.242C120.684 102.086 154.006 87.0822 189.903 85.9788C225.772 84.8903 259.948 97.8325 286.103 122.438Z" fill="#FFC263"/>
<path d="M278.71 130.297C301.784 152.003 316.595 182.494 317.637 216.589L315.644 216.65C313.595 149.563 257.35 96.6525 190.263 98.7016C123.176 100.751 70.2653 156.995 72.3143 224.082L70.3212 224.143C68.2385 155.953 122.019 98.7839 190.202 96.7085C224.297 95.6671 255.635 108.59 278.71 130.297Z" fill="#FFC263"/>
<path d="M271.363 138.105C292.435 157.927 305.97 185.776 306.921 216.917L304.928 216.977C303.059 155.799 251.775 107.555 190.604 109.43C129.425 111.299 81.181 162.583 83.0565 223.754L81.0633 223.815C79.1615 161.548 128.283 109.331 190.55 107.43C221.669 106.472 250.292 118.282 271.363 138.105Z" fill="#FFC263"/>
<path d="M264.019 145.913C283.095 163.858 295.339 189.065 296.2 217.237L294.206 217.298C292.519 162.042 246.188 118.457 190.932 120.145C164.159 120.963 139.309 132.156 120.96 151.662C102.61 171.167 92.9541 196.654 93.7718 223.427L91.7786 223.488C90.9377 196.185 100.798 170.19 119.51 150.298C138.223 130.407 163.575 118.985 190.871 118.152C219.043 117.291 244.943 127.968 264.019 145.913Z" fill="#FFC263"/>
<path d="M256.674 153.721C273.746 169.782 284.707 192.34 285.478 217.572L283.485 217.632C281.978 168.285 240.607 129.366 191.26 130.874C141.912 132.381 102.994 173.752 104.501 223.099L102.508 223.16C100.967 172.71 140.756 130.414 191.205 128.873C216.409 128.103 239.601 137.66 256.674 153.721Z" fill="#FFC263"/>
<path d="M68.2407 263.25L76.3901 263.008L72.4434 267.204L68.2407 263.25Z" fill="#FFC263"/>
<path d="M60.4618 255.932L83.7147 255.222L79.768 259.417L64.6571 259.879L60.4618 255.932Z" fill="#FFC263"/>
<path d="M37.1687 234.02L105.62 231.936L101.735 236.066L41.3058 237.912L37.1687 234.02Z" fill="#FFC263"/>
<path d="M44.8893 241.283L98.3572 239.657L94.4105 243.852L49.0847 245.23L44.8893 241.283Z" fill="#FFC263"/>
<path d="M52.6755 248.608L91.0394 247.436L87.0859 251.639L56.8709 252.554L52.6755 248.608Z" fill="#FFC263"/>
</svg>
