<svg width="159" height="158" viewBox="0 0 159 158" fill="none" xmlns="http://www.w3.org/2000/svg">
<g clip-path="url(#clip0_133_1202)">
<path d="M-45.7793 49.2749L2.28904 1.20654C0.957657 1.47005 -0.34602 1.78902 -1.64966 2.13573L-44.8501 45.3362C-45.1968 46.6399 -45.5158 47.9435 -45.7793 49.2749Z" fill="#A1D2CB"/>
<path d="M-47 61.4931C-47 61.6179 -47 61.7566 -47 61.8814L14.8953 0C14.7704 0 14.6318 0 14.5069 0C13.6055 0 12.7179 0.027737 11.8442 0.0554741L-46.9307 58.8303C-46.9723 59.7179 -47 60.6055 -47 61.4931Z" fill="#A1D2CB"/>
<path d="M-46.0431 72.3383L25.3382 0.956966C24.4784 0.804413 23.6047 0.665727 22.7448 0.554779L-46.4453 69.7449C-46.3344 70.6047 -46.1957 71.4784 -46.0431 72.3383Z" fill="#A1D2CB"/>
<path d="M-43.7124 81.3944L34.3951 3.28684C33.6462 3.02334 32.8834 2.78757 32.1207 2.56567L-44.4336 79.12C-44.1978 79.8827 -43.9621 80.6455 -43.7124 81.3944Z" fill="#A1D2CB"/>
<path d="M-40.3161 89.3965L42.4097 6.6707C41.744 6.33786 41.0644 6.00501 40.3849 5.68604L-41.3008 87.3717C-40.9818 88.0512 -40.6628 88.7308 -40.3161 89.3965Z" fill="#A1D2CB"/>
<path d="M-36.0434 96.525L49.5392 10.9423C48.9429 10.5262 48.3466 10.124 47.7364 9.73572L-37.25 94.7221C-36.8617 95.3323 -36.4595 95.9286 -36.0434 96.525Z" fill="#A1D2CB"/>
<path d="M-30.9957 102.877L55.8767 16.0043C55.3497 15.5328 54.8227 15.0613 54.2818 14.6036L-32.3965 101.282C-31.9388 101.809 -31.4673 102.35 -30.9957 102.877Z" fill="#A1D2CB"/>
<path d="M-25.1843 108.466L61.4802 21.8014C61.0226 21.2606 60.551 20.7197 60.0795 20.1927L-26.793 107.065C-26.266 107.537 -25.739 108.008 -25.1843 108.466Z" fill="#A1D2CB"/>
<path d="M-18.6385 113.306L66.3201 28.3473C65.9318 27.7371 65.5296 27.1407 65.1136 26.5444L-20.4414 112.113C-19.8451 112.515 -19.2487 112.918 -18.6385 113.306Z" fill="#A1D2CB"/>
<path d="M-11.2739 117.342L70.3424 35.7254C70.0235 35.0459 69.7045 34.3663 69.3578 33.7006L-13.3125 116.371C-12.6329 116.704 -11.9534 117.023 -11.2739 117.342Z" fill="#A1D2CB"/>
<path d="M-2.99511 120.462L73.476 43.9909C73.2541 43.2281 73.0045 42.4654 72.7548 41.7165L-5.26953 119.741C-4.52063 120.004 -3.75788 120.24 -2.99511 120.462Z" fill="#A1D2CB"/>
<path d="M6.40803 122.459L75.4733 53.3938C75.3624 52.5201 75.2237 51.6464 75.0711 50.7866L3.80078 122.057C4.66063 122.209 5.53431 122.348 6.40803 122.459Z" fill="#A1D2CB"/>
<path d="M14.5073 123C15.4642 123 16.4072 122.972 17.3364 122.931L75.931 64.3362C75.9726 63.3931 76.0003 62.4501 76.0003 61.507C76.0003 61.4238 76.0003 61.3545 76.0003 61.2712L14.2715 123C14.3408 122.986 14.4241 123 14.5073 123Z" fill="#A1D2CB"/>
<path d="M30.8725 120.781L73.7956 77.858C74.1562 76.5543 74.4751 75.2368 74.7525 73.9055L26.9199 121.738C28.2513 121.461 29.5688 121.142 30.8725 120.781Z" fill="#A1D2CB"/>
<path d="M67.7059 92.3366L45.3359 114.707C54.6001 109.326 62.3249 101.601 67.7059 92.3366Z" fill="#A1D2CB"/>
</g>
<g clip-path="url(#clip1_133_1202)">
<path d="M92.2676 104.16L105.603 90.7167C103.235 92.0805 101.037 93.7123 99.0479 95.5632L97.075 97.5522C95.239 99.5574 93.6204 101.774 92.2676 104.16Z" fill="#FFE3B8"/>
<path d="M88.2891 114.844L116.2 86.7063C115.427 86.8605 114.67 87.0472 113.913 87.2502L88.8286 112.538C88.6273 113.301 88.4421 114.064 88.2891 114.844Z" fill="#FFE3B8"/>
<path d="M87.5801 121.996C87.5801 122.069 87.5801 122.15 87.5801 122.223L123.519 86C123.447 86 123.366 86 123.294 86C122.77 86 122.255 86.0162 121.748 86.0325L87.6203 120.437C87.5962 120.957 87.5801 121.476 87.5801 121.996Z" fill="#FFE3B8"/>
<path d="M88.1359 128.344L129.583 86.5602C129.084 86.4709 128.577 86.3897 128.077 86.3247L87.9023 126.826C87.9668 127.33 88.0473 127.841 88.1359 128.344Z" fill="#FFE3B8"/>
<path d="M89.489 133.646L134.842 87.924C134.407 87.7698 133.964 87.6317 133.521 87.5019L89.0703 132.314C89.2072 132.761 89.3441 133.207 89.489 133.646Z" fill="#FFE3B8"/>
<path d="M91.4604 138.33L139.495 89.9048C139.108 89.71 138.714 89.5151 138.319 89.3284L90.8887 137.144C91.0739 137.542 91.2591 137.94 91.4604 138.33Z" fill="#FFE3B8"/>
<path d="M93.9428 142.502L143.636 92.4053C143.29 92.1617 142.943 91.9263 142.589 91.699L93.2422 141.447C93.4677 141.804 93.7012 142.153 93.9428 142.502Z" fill="#FFE3B8"/>
<path d="M96.8739 146.221L147.316 95.3684C147.01 95.0924 146.704 94.8164 146.39 94.5485L96.0605 145.287C96.3263 145.595 96.6001 145.912 96.8739 146.221Z" fill="#FFE3B8"/>
<path d="M100.247 149.492L150.568 98.7618C150.302 98.4452 150.028 98.1286 149.755 97.8201L99.3125 148.672C99.6185 148.948 99.9245 149.224 100.247 149.492Z" fill="#FFE3B8"/>
<path d="M104.049 152.325L153.38 102.594C153.154 102.236 152.921 101.887 152.679 101.538L103.002 151.627C103.348 151.863 103.694 152.098 104.049 152.325Z" fill="#FFE3B8"/>
<path d="M108.324 154.688L155.714 106.912C155.529 106.515 155.344 106.117 155.143 105.727L107.141 154.12C107.535 154.314 107.93 154.501 108.324 154.688Z" fill="#FFE3B8"/>
<path d="M113.131 156.514L157.534 111.751C157.405 111.304 157.26 110.858 157.115 110.419L111.811 156.092C112.245 156.246 112.688 156.384 113.131 156.514Z" fill="#FFE3B8"/>
<path d="M118.592 157.683L158.694 117.255C158.63 116.743 158.549 116.232 158.461 115.729L117.078 157.448C117.577 157.537 118.085 157.618 118.592 157.683Z" fill="#FFE3B8"/>
<path d="M123.293 158C123.849 158 124.396 157.984 124.936 157.959L158.959 123.66C158.983 123.108 158.999 122.556 158.999 122.004C158.999 121.955 158.999 121.915 158.999 121.866L123.156 158C123.197 157.992 123.245 158 123.293 158Z" fill="#FFE3B8"/>
<path d="M132.797 156.701L157.72 131.575C157.929 130.812 158.115 130.041 158.276 129.262L130.502 157.261C131.275 157.099 132.04 156.912 132.797 156.701Z" fill="#FFE3B8"/>
<path d="M154.184 140.051L141.195 153.145C146.575 149.995 151.06 145.474 154.184 140.051Z" fill="#FFE3B8"/>
</g>
<defs>
<clipPath id="clip0_133_1202">
<rect width="76" height="123" fill="white"/>
</clipPath>
<clipPath id="clip1_133_1202">
<rect width="72" height="72" fill="white" transform="translate(87 86)"/>
</clipPath>
</defs>
</svg>
